%TF.GenerationSoftware,KiCad,Pcbnew,9.0.4-9.0.4-0~ubuntu24.04.1*%
%TF.CreationDate,2025-09-07T14:44:50-04:00*%
%TF.ProjectId,TCD1304Rev2,54434431-3330-4345-9265-76322e6b6963,rev?*%
%TF.SameCoordinates,PX7270e00PY7270e00*%
%TF.FileFunction,Copper,L2,Inr*%
%TF.FilePolarity,Positive*%
%FSLAX46Y46*%
G04 Gerber Fmt 4.6, Leading zero omitted, Abs format (unit mm)*
G04 Created by KiCad (PCBNEW 9.0.4-9.0.4-0~ubuntu24.04.1) date 2025-09-07 14:44:50*
%MOMM*%
%LPD*%
G01*
G04 APERTURE LIST*
%TA.AperFunction,ComponentPad*%
%ADD10C,1.700000*%
%TD*%
%TA.AperFunction,ComponentPad*%
%ADD11R,1.700000X1.700000*%
%TD*%
%TA.AperFunction,ComponentPad*%
%ADD12O,1.700000X1.700000*%
%TD*%
%TA.AperFunction,ComponentPad*%
%ADD13C,1.290000*%
%TD*%
%TA.AperFunction,ComponentPad*%
%ADD14R,1.290000X1.290000*%
%TD*%
%TA.AperFunction,ComponentPad*%
%ADD15R,1.218000X1.218000*%
%TD*%
%TA.AperFunction,ComponentPad*%
%ADD16C,1.218000*%
%TD*%
%TA.AperFunction,ComponentPad*%
%ADD17C,1.600000*%
%TD*%
%TA.AperFunction,ComponentPad*%
%ADD18C,5.600000*%
%TD*%
%TA.AperFunction,ViaPad*%
%ADD19C,0.800000*%
%TD*%
%TA.AperFunction,ViaPad*%
%ADD20C,1.000000*%
%TD*%
G04 APERTURE END LIST*
D10*
%TO.N,Net-(J3-Pin_16)*%
%TO.C,J3*%
X57070000Y2500000D03*
%TO.N,Earth*%
X54530000Y2500000D03*
%TO.N,unconnected-(J3-Pin_14-Pad14)*%
X51990000Y2500000D03*
%TO.N,unconnected-(J3-Pin_13-Pad13)*%
X49450000Y2500000D03*
%TO.N,unconnected-(J3-Pin_12-Pad12)*%
X46910000Y2500000D03*
%TO.N,Net-(J3-Pin_11)*%
X44370000Y2500000D03*
%TO.N,Net-(J3-Pin_10)*%
X41830000Y2500000D03*
%TO.N,Net-(J3-Pin_9)*%
X39290000Y2500000D03*
%TO.N,Net-(J3-Pin_8)*%
X36750000Y2500000D03*
%TO.N,Earth*%
X34210000Y2500000D03*
%TO.N,Net-(J3-Pin_6)*%
X31670000Y2500000D03*
%TO.N,Earth*%
X29130000Y2500000D03*
%TO.N,Net-(J3-Pin_4)*%
X26590000Y2500000D03*
%TO.N,Net-(J3-Pin_3)*%
X24050000Y2500000D03*
%TO.N,Net-(J3-Pin_2)*%
X21510000Y2500000D03*
D11*
%TO.N,Net-(J3-Pin_1)*%
X18970000Y2500000D03*
%TD*%
D12*
%TO.N,Earth*%
%TO.C,J2*%
X18950000Y37500000D03*
%TO.N,Net-(J2-Pin_15)*%
X21490000Y37500000D03*
%TO.N,Net-(J2-Pin_14)*%
X24030000Y37500000D03*
%TO.N,Net-(J2-Pin_13)*%
X26570000Y37500000D03*
%TO.N,Net-(J2-Pin_12)*%
X29110000Y37500000D03*
%TO.N,Net-(J2-Pin_11)*%
X31650000Y37500000D03*
%TO.N,Net-(J2-Pin_10)*%
X34190000Y37500000D03*
%TO.N,Earth*%
X36730000Y37500000D03*
%TO.N,Net-(J2-Pin_8)*%
X39270000Y37500000D03*
%TO.N,Net-(J2-Pin_7)*%
X41810000Y37500000D03*
%TO.N,Net-(J2-Pin_6)*%
X44350000Y37500000D03*
%TO.N,Net-(J2-Pin_5)*%
X46890000Y37500000D03*
%TO.N,Net-(J2-Pin_4)*%
X49430000Y37500000D03*
%TO.N,Net-(J2-Pin_3)*%
X51970000Y37500000D03*
%TO.N,Net-(J2-Pin_2)*%
X54510000Y37500000D03*
D11*
%TO.N,Earth*%
X57050000Y37500000D03*
%TD*%
D13*
%TO.N,Earth*%
%TO.C,U1*%
X26870000Y14920000D03*
%TO.N,Net-(U1-OS)*%
X29410000Y14920000D03*
%TO.N,N/C*%
X31950000Y14920000D03*
X34490000Y14920000D03*
X37030000Y14920000D03*
X39570000Y14920000D03*
X42110000Y14920000D03*
X44650000Y14920000D03*
X47190000Y14920000D03*
X49730000Y14920000D03*
X52270000Y14920000D03*
X52270000Y25080000D03*
X49730000Y25080000D03*
X47190000Y25080000D03*
X44650000Y25080000D03*
X42110000Y25080000D03*
X39570000Y25080000D03*
%TO.N,Net-(J2-Pin_8)*%
X37030000Y25080000D03*
%TO.N,Net-(J2-Pin_6)*%
X34490000Y25080000D03*
%TO.N,Net-(J2-Pin_7)*%
X31950000Y25080000D03*
%TO.N,+3.3V*%
X29410000Y25080000D03*
D14*
X26870000Y25080000D03*
%TD*%
D15*
%TO.N,+3.3V*%
%TO.C,RV1*%
X6960000Y28100000D03*
D16*
%TO.N,Net-(U2-+IN2)*%
X9500000Y28100000D03*
%TO.N,Earth*%
X12040000Y28100000D03*
%TD*%
D17*
%TO.N,Earth*%
%TO.C,U3*%
X67080000Y27620000D03*
%TO.N,Net-(J2-Pin_2)*%
X64540000Y27620000D03*
%TO.N,Net-(J2-Pin_3)*%
X62000000Y27620000D03*
%TO.N,Net-(J2-Pin_4)*%
X59460000Y27620000D03*
%TO.N,Net-(J2-Pin_5)*%
X56920000Y27620000D03*
%TO.N,Net-(J2-Pin_6)*%
X54380000Y27620000D03*
X51840000Y27620000D03*
%TO.N,Net-(J2-Pin_7)*%
X49300000Y27620000D03*
%TO.N,Net-(J2-Pin_8)*%
X46760000Y27620000D03*
%TO.N,Net-(J2-Pin_10)*%
X44220000Y27620000D03*
%TO.N,Net-(J2-Pin_11)*%
X41680000Y27620000D03*
%TO.N,Net-(J2-Pin_12)*%
X39140000Y27620000D03*
%TO.N,Net-(J2-Pin_13)*%
X36600000Y27620000D03*
%TO.N,Net-(J2-Pin_14)*%
X34060000Y27620000D03*
%TO.N,Net-(J2-Pin_15)*%
X34060000Y12380000D03*
%TO.N,Net-(U3-14_A0_TX3_SPDIF_OUT)*%
X36600000Y12380000D03*
%TO.N,Net-(J3-Pin_1)*%
X39140000Y12380000D03*
%TO.N,Net-(J3-Pin_2)*%
X41680000Y12380000D03*
%TO.N,Net-(J3-Pin_3)*%
X44220000Y12380000D03*
%TO.N,Net-(J3-Pin_4)*%
X46760000Y12380000D03*
%TO.N,Net-(J3-Pin_6)*%
X49300000Y12380000D03*
%TO.N,Net-(J3-Pin_8)*%
X51840000Y12380000D03*
%TO.N,Net-(J3-Pin_9)*%
X54380000Y12380000D03*
%TO.N,Net-(J3-Pin_10)*%
X56920000Y12380000D03*
%TO.N,Net-(J3-Pin_11)*%
X59460000Y12380000D03*
%TO.N,+3.3V*%
X62000000Y12380000D03*
%TO.N,Earth*%
X64540000Y12380000D03*
%TO.N,Net-(J3-Pin_16)*%
X67080000Y12380000D03*
%TD*%
D18*
%TO.N,N/C*%
%TO.C,REF\u002A\u002A*%
X65500000Y4500000D03*
%TD*%
%TO.N,N/C*%
%TO.C,REF\u002A\u002A*%
X65500000Y35500000D03*
%TD*%
%TO.N,N/C*%
%TO.C,REF\u002A\u002A*%
X4500000Y35500000D03*
%TD*%
%TO.N,N/C*%
%TO.C,REF\u002A\u002A*%
X4500000Y4500000D03*
%TD*%
D19*
%TO.N,+3.3V*%
X6500000Y12750000D03*
X6500000Y14750000D03*
X44750000Y6500000D03*
X51500000Y6500000D03*
%TO.N,Earth*%
X23250000Y27500000D03*
D20*
X2500000Y22100000D03*
X11875000Y12750000D03*
X14800000Y22100000D03*
X11875000Y14750000D03*
D19*
X40157500Y9250000D03*
%TD*%
%TA.AperFunction,Conductor*%
%TO.N,Earth*%
G36*
X69442121Y39479998D02*
G01*
X69488614Y39426342D01*
X69500000Y39374000D01*
X69500000Y626000D01*
X69479998Y557879D01*
X69426342Y511386D01*
X69374000Y500000D01*
X626000Y500000D01*
X557879Y520002D01*
X511386Y573658D01*
X500000Y626000D01*
X500000Y4662543D01*
X1191500Y4662543D01*
X1191500Y4337458D01*
X1223361Y4013973D01*
X1223364Y4013951D01*
X1286777Y3695145D01*
X1286780Y3695134D01*
X1286781Y3695131D01*
X1381145Y3384056D01*
X1472594Y3163279D01*
X1505545Y3083728D01*
X1658784Y2797038D01*
X1839378Y2526759D01*
X1839389Y2526744D01*
X2045601Y2275475D01*
X2045619Y2275455D01*
X2275454Y2045620D01*
X2275474Y2045602D01*
X2515262Y1848812D01*
X2526752Y1839383D01*
X2797040Y1658783D01*
X3083728Y1505545D01*
X3384056Y1381145D01*
X3695131Y1286781D01*
X3695140Y1286780D01*
X3695144Y1286778D01*
X3824365Y1261075D01*
X4013957Y1223363D01*
X4337464Y1191500D01*
X4337473Y1191500D01*
X4662527Y1191500D01*
X4662536Y1191500D01*
X4986043Y1223363D01*
X5237696Y1273420D01*
X5304855Y1286778D01*
X5304857Y1286779D01*
X5304869Y1286781D01*
X5615944Y1381145D01*
X5916272Y1505545D01*
X6202960Y1658783D01*
X6473248Y1839383D01*
X6724532Y2045607D01*
X6954393Y2275468D01*
X7160617Y2526752D01*
X7341217Y2797040D01*
X7494455Y3083728D01*
X7618855Y3384056D01*
X7618860Y3384071D01*
X7618861Y3384073D01*
X7623283Y3398650D01*
X17611500Y3398650D01*
X17611500Y1601351D01*
X17618009Y1540804D01*
X17618011Y1540796D01*
X17669110Y1403798D01*
X17669112Y1403793D01*
X17756738Y1286739D01*
X17873792Y1199113D01*
X17873794Y1199112D01*
X17873796Y1199111D01*
X17894202Y1191500D01*
X18010795Y1148012D01*
X18010803Y1148010D01*
X18071350Y1141501D01*
X18071355Y1141501D01*
X18071362Y1141500D01*
X18071368Y1141500D01*
X19868632Y1141500D01*
X19868638Y1141500D01*
X19868645Y1141501D01*
X19868649Y1141501D01*
X19929196Y1148010D01*
X19929199Y1148011D01*
X19929201Y1148011D01*
X20066204Y1199111D01*
X20098600Y1223362D01*
X20183261Y1286739D01*
X20270887Y1403793D01*
X20270887Y1403794D01*
X20270889Y1403796D01*
X20314869Y1521712D01*
X20357414Y1578544D01*
X20423934Y1603355D01*
X20493308Y1588264D01*
X20522018Y1566771D01*
X20624990Y1463799D01*
X20624993Y1463797D01*
X20624996Y1463794D01*
X20797991Y1338106D01*
X20988517Y1241028D01*
X21191878Y1174953D01*
X21191879Y1174953D01*
X21191884Y1174951D01*
X21403084Y1141500D01*
X21403087Y1141500D01*
X21616913Y1141500D01*
X21616916Y1141500D01*
X21828116Y1174951D01*
X22031483Y1241028D01*
X22222009Y1338106D01*
X22395004Y1463794D01*
X22546206Y1614996D01*
X22671894Y1787991D01*
X22671899Y1788003D01*
X22672561Y1789080D01*
X22672924Y1789409D01*
X22674804Y1791996D01*
X22675347Y1791602D01*
X22725204Y1836717D01*
X22795244Y1848330D01*
X22860445Y1820234D01*
X22885021Y1791870D01*
X22885196Y1791996D01*
X22886668Y1789970D01*
X22887439Y1789080D01*
X22888104Y1787994D01*
X22888106Y1787991D01*
X23013794Y1614996D01*
X23013796Y1614994D01*
X23013798Y1614991D01*
X23164990Y1463799D01*
X23164993Y1463797D01*
X23164996Y1463794D01*
X23337991Y1338106D01*
X23528517Y1241028D01*
X23731878Y1174953D01*
X23731879Y1174953D01*
X23731884Y1174951D01*
X23943084Y1141500D01*
X23943087Y1141500D01*
X24156913Y1141500D01*
X24156916Y1141500D01*
X24368116Y1174951D01*
X24571483Y1241028D01*
X24762009Y1338106D01*
X24935004Y1463794D01*
X25086206Y1614996D01*
X25211894Y1787991D01*
X25211899Y1788003D01*
X25212561Y1789080D01*
X25212924Y1789409D01*
X25214804Y1791996D01*
X25215347Y1791602D01*
X25265204Y1836717D01*
X25335244Y1848330D01*
X25400445Y1820234D01*
X25425021Y1791870D01*
X25425196Y1791996D01*
X25426668Y1789970D01*
X25427439Y1789080D01*
X25428104Y1787994D01*
X25428106Y1787991D01*
X25553794Y1614996D01*
X25553796Y1614994D01*
X25553798Y1614991D01*
X25704990Y1463799D01*
X25704993Y1463797D01*
X25704996Y1463794D01*
X25877991Y1338106D01*
X26068517Y1241028D01*
X26271878Y1174953D01*
X26271879Y1174953D01*
X26271884Y1174951D01*
X26483084Y1141500D01*
X26483087Y1141500D01*
X26696913Y1141500D01*
X26696916Y1141500D01*
X26908116Y1174951D01*
X27111483Y1241028D01*
X27302009Y1338106D01*
X27475004Y1463794D01*
X27475009Y1463799D01*
X27524950Y1513739D01*
X27626201Y1614991D01*
X27626206Y1614996D01*
X27751894Y1787991D01*
X27751902Y1788008D01*
X27752854Y1789559D01*
X27753377Y1790033D01*
X27754804Y1791996D01*
X27755216Y1791697D01*
X27805497Y1837196D01*
X27875537Y1848811D01*
X27940738Y1820715D01*
X27965485Y1792158D01*
X27965624Y1792258D01*
X27966794Y1790647D01*
X27967726Y1789572D01*
X27968536Y1788250D01*
X28006620Y1735833D01*
X28006621Y1735832D01*
X28645841Y2375053D01*
X28664075Y2307007D01*
X28729901Y2192993D01*
X28822993Y2099901D01*
X28937007Y2034075D01*
X29005051Y2015843D01*
X28365831Y1376622D01*
X28418249Y1338537D01*
X28418251Y1338536D01*
X28608707Y1241494D01*
X28608713Y1241491D01*
X28811996Y1175441D01*
X29023126Y1142000D01*
X29236874Y1142000D01*
X29448003Y1175441D01*
X29651286Y1241491D01*
X29651292Y1241494D01*
X29841750Y1338537D01*
X29894167Y1376622D01*
X29894167Y1376624D01*
X29254948Y2015843D01*
X29322993Y2034075D01*
X29437007Y2099901D01*
X29530099Y2192993D01*
X29595925Y2307007D01*
X29614157Y2375052D01*
X30253376Y1735833D01*
X30253378Y1735833D01*
X30291459Y1788244D01*
X30292259Y1789549D01*
X30292694Y1789943D01*
X30294377Y1792259D01*
X30294863Y1791906D01*
X30344897Y1837191D01*
X30414936Y1848812D01*
X30480140Y1820722D01*
X30505097Y1791925D01*
X30505196Y1791996D01*
X30506025Y1790855D01*
X30507136Y1789573D01*
X30508103Y1787994D01*
X30583518Y1684194D01*
X30633794Y1614996D01*
X30633796Y1614994D01*
X30633798Y1614991D01*
X30784990Y1463799D01*
X30784993Y1463797D01*
X30784996Y1463794D01*
X30957991Y1338106D01*
X31148517Y1241028D01*
X31351878Y1174953D01*
X31351879Y1174953D01*
X31351884Y1174951D01*
X31563084Y1141500D01*
X31563087Y1141500D01*
X31776913Y1141500D01*
X31776916Y1141500D01*
X31988116Y1174951D01*
X32191483Y1241028D01*
X32382009Y1338106D01*
X32555004Y1463794D01*
X32555009Y1463799D01*
X32604950Y1513739D01*
X32706201Y1614991D01*
X32706206Y1614996D01*
X32831894Y1787991D01*
X32831902Y1788008D01*
X32832854Y1789559D01*
X32833377Y1790033D01*
X32834804Y1791996D01*
X32835216Y1791697D01*
X32885497Y1837196D01*
X32955537Y1848811D01*
X33020738Y1820715D01*
X33045485Y1792158D01*
X33045624Y1792258D01*
X33046794Y1790647D01*
X33047726Y1789572D01*
X33048536Y1788250D01*
X33086620Y1735833D01*
X33086621Y1735832D01*
X33725841Y2375053D01*
X33744075Y2307007D01*
X33809901Y2192993D01*
X33902993Y2099901D01*
X34017007Y2034075D01*
X34085051Y2015843D01*
X33445831Y1376622D01*
X33498249Y1338537D01*
X33498251Y1338536D01*
X33688707Y1241494D01*
X33688713Y1241491D01*
X33891996Y1175441D01*
X34103126Y1142000D01*
X34316874Y1142000D01*
X34528003Y1175441D01*
X34731286Y1241491D01*
X34731292Y1241494D01*
X34921750Y1338537D01*
X34974167Y1376622D01*
X34974167Y1376624D01*
X34334948Y2015843D01*
X34402993Y2034075D01*
X34517007Y2099901D01*
X34610099Y2192993D01*
X34675925Y2307007D01*
X34694157Y2375052D01*
X35333376Y1735833D01*
X35333378Y1735833D01*
X35371459Y1788244D01*
X35372259Y1789549D01*
X35372694Y1789943D01*
X35374377Y1792259D01*
X35374863Y1791906D01*
X35424897Y1837191D01*
X35494936Y1848812D01*
X35560140Y1820722D01*
X35585097Y1791925D01*
X35585196Y1791996D01*
X35586025Y1790855D01*
X35587136Y1789573D01*
X35588103Y1787994D01*
X35663518Y1684194D01*
X35713794Y1614996D01*
X35713796Y1614994D01*
X35713798Y1614991D01*
X35864990Y1463799D01*
X35864993Y1463797D01*
X35864996Y1463794D01*
X36037991Y1338106D01*
X36228517Y1241028D01*
X36431878Y1174953D01*
X36431879Y1174953D01*
X36431884Y1174951D01*
X36643084Y1141500D01*
X36643087Y1141500D01*
X36856913Y1141500D01*
X36856916Y1141500D01*
X37068116Y1174951D01*
X37271483Y1241028D01*
X37462009Y1338106D01*
X37635004Y1463794D01*
X37786206Y1614996D01*
X37911894Y1787991D01*
X37911899Y1788003D01*
X37912561Y1789080D01*
X37912924Y1789409D01*
X37914804Y1791996D01*
X37915347Y1791602D01*
X37965204Y1836717D01*
X38035244Y1848330D01*
X38100445Y1820234D01*
X38125021Y1791870D01*
X38125196Y1791996D01*
X38126668Y1789970D01*
X38127439Y1789080D01*
X38128104Y1787994D01*
X38128106Y1787991D01*
X38253794Y1614996D01*
X38253796Y1614994D01*
X38253798Y1614991D01*
X38404990Y1463799D01*
X38404993Y1463797D01*
X38404996Y1463794D01*
X38577991Y1338106D01*
X38768517Y1241028D01*
X38971878Y1174953D01*
X38971879Y1174953D01*
X38971884Y1174951D01*
X39183084Y1141500D01*
X39183087Y1141500D01*
X39396913Y1141500D01*
X39396916Y1141500D01*
X39608116Y1174951D01*
X39811483Y1241028D01*
X40002009Y1338106D01*
X40175004Y1463794D01*
X40326206Y1614996D01*
X40451894Y1787991D01*
X40451899Y1788003D01*
X40452561Y1789080D01*
X40452924Y1789409D01*
X40454804Y1791996D01*
X40455347Y1791602D01*
X40505204Y1836717D01*
X40575244Y1848330D01*
X40640445Y1820234D01*
X40665021Y1791870D01*
X40665196Y1791996D01*
X40666668Y1789970D01*
X40667439Y1789080D01*
X40668104Y1787994D01*
X40668106Y1787991D01*
X40793794Y1614996D01*
X40793796Y1614994D01*
X40793798Y1614991D01*
X40944990Y1463799D01*
X40944993Y1463797D01*
X40944996Y1463794D01*
X41117991Y1338106D01*
X41308517Y1241028D01*
X41511878Y1174953D01*
X41511879Y1174953D01*
X41511884Y1174951D01*
X41723084Y1141500D01*
X41723087Y1141500D01*
X41936913Y1141500D01*
X41936916Y1141500D01*
X42148116Y1174951D01*
X42351483Y1241028D01*
X42542009Y1338106D01*
X42715004Y1463794D01*
X42866206Y1614996D01*
X42991894Y1787991D01*
X42991899Y1788003D01*
X42992561Y1789080D01*
X42992924Y1789409D01*
X42994804Y1791996D01*
X42995347Y1791602D01*
X43045204Y1836717D01*
X43115244Y1848330D01*
X43180445Y1820234D01*
X43205021Y1791870D01*
X43205196Y1791996D01*
X43206668Y1789970D01*
X43207439Y1789080D01*
X43208104Y1787994D01*
X43208106Y1787991D01*
X43333794Y1614996D01*
X43333796Y1614994D01*
X43333798Y1614991D01*
X43484990Y1463799D01*
X43484993Y1463797D01*
X43484996Y1463794D01*
X43657991Y1338106D01*
X43848517Y1241028D01*
X44051878Y1174953D01*
X44051879Y1174953D01*
X44051884Y1174951D01*
X44263084Y1141500D01*
X44263087Y1141500D01*
X44476913Y1141500D01*
X44476916Y1141500D01*
X44688116Y1174951D01*
X44891483Y1241028D01*
X45082009Y1338106D01*
X45255004Y1463794D01*
X45406206Y1614996D01*
X45531894Y1787991D01*
X45531899Y1788003D01*
X45532561Y1789080D01*
X45532924Y1789409D01*
X45534804Y1791996D01*
X45535347Y1791602D01*
X45585204Y1836717D01*
X45655244Y1848330D01*
X45720445Y1820234D01*
X45745021Y1791870D01*
X45745196Y1791996D01*
X45746668Y1789970D01*
X45747439Y1789080D01*
X45748104Y1787994D01*
X45748106Y1787991D01*
X45873794Y1614996D01*
X45873796Y1614994D01*
X45873798Y1614991D01*
X46024990Y1463799D01*
X46024993Y1463797D01*
X46024996Y1463794D01*
X46197991Y1338106D01*
X46388517Y1241028D01*
X46591878Y1174953D01*
X46591879Y1174953D01*
X46591884Y1174951D01*
X46803084Y1141500D01*
X46803087Y1141500D01*
X47016913Y1141500D01*
X47016916Y1141500D01*
X47228116Y1174951D01*
X47431483Y1241028D01*
X47622009Y1338106D01*
X47795004Y1463794D01*
X47946206Y1614996D01*
X48071894Y1787991D01*
X48071899Y1788003D01*
X48072561Y1789080D01*
X48072924Y1789409D01*
X48074804Y1791996D01*
X48075347Y1791602D01*
X48125204Y1836717D01*
X48195244Y1848330D01*
X48260445Y1820234D01*
X48285021Y1791870D01*
X48285196Y1791996D01*
X48286668Y1789970D01*
X48287439Y1789080D01*
X48288104Y1787994D01*
X48288106Y1787991D01*
X48413794Y1614996D01*
X48413796Y1614994D01*
X48413798Y1614991D01*
X48564990Y1463799D01*
X48564993Y1463797D01*
X48564996Y1463794D01*
X48737991Y1338106D01*
X48928517Y1241028D01*
X49131878Y1174953D01*
X49131879Y1174953D01*
X49131884Y1174951D01*
X49343084Y1141500D01*
X49343087Y1141500D01*
X49556913Y1141500D01*
X49556916Y1141500D01*
X49768116Y1174951D01*
X49971483Y1241028D01*
X50162009Y1338106D01*
X50335004Y1463794D01*
X50486206Y1614996D01*
X50611894Y1787991D01*
X50611899Y1788003D01*
X50612561Y1789080D01*
X50612924Y1789409D01*
X50614804Y1791996D01*
X50615347Y1791602D01*
X50665204Y1836717D01*
X50735244Y1848330D01*
X50800445Y1820234D01*
X50825021Y1791870D01*
X50825196Y1791996D01*
X50826668Y1789970D01*
X50827439Y1789080D01*
X50828104Y1787994D01*
X50828106Y1787991D01*
X50953794Y1614996D01*
X50953796Y1614994D01*
X50953798Y1614991D01*
X51104990Y1463799D01*
X51104993Y1463797D01*
X51104996Y1463794D01*
X51277991Y1338106D01*
X51468517Y1241028D01*
X51671878Y1174953D01*
X51671879Y1174953D01*
X51671884Y1174951D01*
X51883084Y1141500D01*
X51883087Y1141500D01*
X52096913Y1141500D01*
X52096916Y1141500D01*
X52308116Y1174951D01*
X52511483Y1241028D01*
X52702009Y1338106D01*
X52875004Y1463794D01*
X52875009Y1463799D01*
X52924950Y1513739D01*
X53026201Y1614991D01*
X53026206Y1614996D01*
X53151894Y1787991D01*
X53151902Y1788008D01*
X53152854Y1789559D01*
X53153377Y1790033D01*
X53154804Y1791996D01*
X53155216Y1791697D01*
X53205497Y1837196D01*
X53275537Y1848811D01*
X53340738Y1820715D01*
X53365485Y1792158D01*
X53365624Y1792258D01*
X53366794Y1790647D01*
X53367726Y1789572D01*
X53368536Y1788250D01*
X53406620Y1735833D01*
X53406621Y1735832D01*
X54045841Y2375053D01*
X54064075Y2307007D01*
X54129901Y2192993D01*
X54222993Y2099901D01*
X54337007Y2034075D01*
X54405051Y2015843D01*
X53765831Y1376622D01*
X53818249Y1338537D01*
X53818251Y1338536D01*
X54008707Y1241494D01*
X54008713Y1241491D01*
X54211996Y1175441D01*
X54423126Y1142000D01*
X54636874Y1142000D01*
X54848003Y1175441D01*
X55051286Y1241491D01*
X55051292Y1241494D01*
X55241750Y1338537D01*
X55294167Y1376622D01*
X55294167Y1376624D01*
X54654948Y2015843D01*
X54722993Y2034075D01*
X54837007Y2099901D01*
X54930099Y2192993D01*
X54995925Y2307007D01*
X55014157Y2375052D01*
X55653376Y1735833D01*
X55653378Y1735833D01*
X55691459Y1788244D01*
X55692259Y1789549D01*
X55692694Y1789943D01*
X55694377Y1792259D01*
X55694863Y1791906D01*
X55744897Y1837191D01*
X55814936Y1848812D01*
X55880140Y1820722D01*
X55905097Y1791925D01*
X55905196Y1791996D01*
X55906025Y1790855D01*
X55907136Y1789573D01*
X55908103Y1787994D01*
X55983518Y1684194D01*
X56033794Y1614996D01*
X56033796Y1614994D01*
X56033798Y1614991D01*
X56184990Y1463799D01*
X56184993Y1463797D01*
X56184996Y1463794D01*
X56357991Y1338106D01*
X56548517Y1241028D01*
X56751878Y1174953D01*
X56751879Y1174953D01*
X56751884Y1174951D01*
X56963084Y1141500D01*
X56963087Y1141500D01*
X57176913Y1141500D01*
X57176916Y1141500D01*
X57388116Y1174951D01*
X57591483Y1241028D01*
X57782009Y1338106D01*
X57955004Y1463794D01*
X58106206Y1614996D01*
X58231894Y1787991D01*
X58328972Y1978517D01*
X58395049Y2181884D01*
X58428500Y2393084D01*
X58428500Y2606916D01*
X58395049Y2818116D01*
X58328972Y3021483D01*
X58231894Y3212009D01*
X58106206Y3385004D01*
X58106203Y3385007D01*
X58106201Y3385010D01*
X57955009Y3536202D01*
X57955006Y3536204D01*
X57955004Y3536206D01*
X57782601Y3661464D01*
X57782012Y3661892D01*
X57782011Y3661893D01*
X57782009Y3661894D01*
X57591483Y3758972D01*
X57591480Y3758973D01*
X57591478Y3758974D01*
X57388120Y3825048D01*
X57388123Y3825048D01*
X57348801Y3831276D01*
X57176916Y3858500D01*
X56963084Y3858500D01*
X56751884Y3825049D01*
X56751878Y3825048D01*
X56548521Y3758974D01*
X56548515Y3758971D01*
X56357987Y3661892D01*
X56184993Y3536204D01*
X56184990Y3536202D01*
X56033798Y3385010D01*
X56033796Y3385007D01*
X55908100Y3212002D01*
X55907131Y3210420D01*
X55906606Y3209946D01*
X55905196Y3208004D01*
X55904787Y3208301D01*
X55854479Y3162794D01*
X55784437Y3151193D01*
X55719242Y3179303D01*
X55694514Y3207843D01*
X55694376Y3207742D01*
X55693199Y3209361D01*
X55692270Y3210434D01*
X55691461Y3211753D01*
X55653378Y3264169D01*
X55014157Y2624949D01*
X54995925Y2692993D01*
X54930099Y2807007D01*
X54837007Y2900099D01*
X54722993Y2965925D01*
X54654947Y2984159D01*
X55294168Y3623379D01*
X55294167Y3623380D01*
X55241750Y3661464D01*
X55241748Y3661465D01*
X55051292Y3758507D01*
X55051286Y3758510D01*
X54848003Y3824560D01*
X54636874Y3858000D01*
X54423126Y3858000D01*
X54211996Y3824560D01*
X54008713Y3758510D01*
X54008707Y3758507D01*
X53818253Y3661466D01*
X53765831Y3623379D01*
X53765831Y3623378D01*
X54405051Y2984158D01*
X54337007Y2965925D01*
X54222993Y2900099D01*
X54129901Y2807007D01*
X54064075Y2692993D01*
X54045842Y2624949D01*
X53406622Y3264169D01*
X53406621Y3264169D01*
X53368528Y3211739D01*
X53367724Y3210426D01*
X53367288Y3210033D01*
X53365624Y3207741D01*
X53365142Y3208091D01*
X53315075Y3162797D01*
X53245033Y3151193D01*
X53179836Y3179298D01*
X53154901Y3208076D01*
X53154804Y3208004D01*
X53153975Y3209145D01*
X53152859Y3210433D01*
X53151899Y3211999D01*
X53151894Y3212009D01*
X53026206Y3385004D01*
X53026203Y3385007D01*
X53026201Y3385010D01*
X52875009Y3536202D01*
X52875006Y3536204D01*
X52875004Y3536206D01*
X52702601Y3661464D01*
X52702012Y3661892D01*
X52702011Y3661893D01*
X52702009Y3661894D01*
X52511483Y3758972D01*
X52511480Y3758973D01*
X52511478Y3758974D01*
X52308120Y3825048D01*
X52308123Y3825048D01*
X52268801Y3831276D01*
X52096916Y3858500D01*
X51883084Y3858500D01*
X51671884Y3825049D01*
X51671878Y3825048D01*
X51468521Y3758974D01*
X51468515Y3758971D01*
X51277987Y3661892D01*
X51104993Y3536204D01*
X51104990Y3536202D01*
X50953798Y3385010D01*
X50953796Y3385007D01*
X50828108Y3212013D01*
X50827434Y3210912D01*
X50827068Y3210582D01*
X50825196Y3208004D01*
X50824654Y3208398D01*
X50774787Y3163279D01*
X50704745Y3151672D01*
X50639547Y3179774D01*
X50614976Y3208130D01*
X50614804Y3208004D01*
X50613341Y3210018D01*
X50612566Y3210912D01*
X50611896Y3212004D01*
X50611894Y3212009D01*
X50486206Y3385004D01*
X50486203Y3385007D01*
X50486201Y3385010D01*
X50335009Y3536202D01*
X50335006Y3536204D01*
X50335004Y3536206D01*
X50162601Y3661464D01*
X50162012Y3661892D01*
X50162011Y3661893D01*
X50162009Y3661894D01*
X49971483Y3758972D01*
X49971480Y3758973D01*
X49971478Y3758974D01*
X49768120Y3825048D01*
X49768123Y3825048D01*
X49728801Y3831276D01*
X49556916Y3858500D01*
X49343084Y3858500D01*
X49131884Y3825049D01*
X49131878Y3825048D01*
X48928521Y3758974D01*
X48928515Y3758971D01*
X48737987Y3661892D01*
X48564993Y3536204D01*
X48564990Y3536202D01*
X48413798Y3385010D01*
X48413796Y3385007D01*
X48288108Y3212013D01*
X48287434Y3210912D01*
X48287068Y3210582D01*
X48285196Y3208004D01*
X48284654Y3208398D01*
X48234787Y3163279D01*
X48164745Y3151672D01*
X48099547Y3179774D01*
X48074976Y3208130D01*
X48074804Y3208004D01*
X48073341Y3210018D01*
X48072566Y3210912D01*
X48071896Y3212004D01*
X48071894Y3212009D01*
X47946206Y3385004D01*
X47946203Y3385007D01*
X47946201Y3385010D01*
X47795009Y3536202D01*
X47795006Y3536204D01*
X47795004Y3536206D01*
X47622601Y3661464D01*
X47622012Y3661892D01*
X47622011Y3661893D01*
X47622009Y3661894D01*
X47431483Y3758972D01*
X47431480Y3758973D01*
X47431478Y3758974D01*
X47228120Y3825048D01*
X47228123Y3825048D01*
X47188801Y3831276D01*
X47016916Y3858500D01*
X46803084Y3858500D01*
X46591884Y3825049D01*
X46591878Y3825048D01*
X46388521Y3758974D01*
X46388515Y3758971D01*
X46197987Y3661892D01*
X46024993Y3536204D01*
X46024990Y3536202D01*
X45873798Y3385010D01*
X45873796Y3385007D01*
X45748108Y3212013D01*
X45747434Y3210912D01*
X45747068Y3210582D01*
X45745196Y3208004D01*
X45744654Y3208398D01*
X45694787Y3163279D01*
X45624745Y3151672D01*
X45559547Y3179774D01*
X45534976Y3208130D01*
X45534804Y3208004D01*
X45533341Y3210018D01*
X45532566Y3210912D01*
X45531896Y3212004D01*
X45531894Y3212009D01*
X45406206Y3385004D01*
X45406203Y3385007D01*
X45406201Y3385010D01*
X45255009Y3536202D01*
X45255006Y3536204D01*
X45255004Y3536206D01*
X45082601Y3661464D01*
X45082012Y3661892D01*
X45082011Y3661893D01*
X45082009Y3661894D01*
X44891483Y3758972D01*
X44891480Y3758973D01*
X44891478Y3758974D01*
X44688120Y3825048D01*
X44688123Y3825048D01*
X44648801Y3831276D01*
X44476916Y3858500D01*
X44263084Y3858500D01*
X44051884Y3825049D01*
X44051878Y3825048D01*
X43848521Y3758974D01*
X43848515Y3758971D01*
X43657987Y3661892D01*
X43484993Y3536204D01*
X43484990Y3536202D01*
X43333798Y3385010D01*
X43333796Y3385007D01*
X43208108Y3212013D01*
X43207434Y3210912D01*
X43207068Y3210582D01*
X43205196Y3208004D01*
X43204654Y3208398D01*
X43154787Y3163279D01*
X43084745Y3151672D01*
X43019547Y3179774D01*
X42994976Y3208130D01*
X42994804Y3208004D01*
X42993341Y3210018D01*
X42992566Y3210912D01*
X42991896Y3212004D01*
X42991894Y3212009D01*
X42866206Y3385004D01*
X42866203Y3385007D01*
X42866201Y3385010D01*
X42715009Y3536202D01*
X42715006Y3536204D01*
X42715004Y3536206D01*
X42542601Y3661464D01*
X42542012Y3661892D01*
X42542011Y3661893D01*
X42542009Y3661894D01*
X42351483Y3758972D01*
X42351480Y3758973D01*
X42351478Y3758974D01*
X42148120Y3825048D01*
X42148123Y3825048D01*
X42108801Y3831276D01*
X41936916Y3858500D01*
X41723084Y3858500D01*
X41511884Y3825049D01*
X41511878Y3825048D01*
X41308521Y3758974D01*
X41308515Y3758971D01*
X41117987Y3661892D01*
X40944993Y3536204D01*
X40944990Y3536202D01*
X40793798Y3385010D01*
X40793796Y3385007D01*
X40668108Y3212013D01*
X40667434Y3210912D01*
X40667068Y3210582D01*
X40665196Y3208004D01*
X40664654Y3208398D01*
X40614787Y3163279D01*
X40544745Y3151672D01*
X40479547Y3179774D01*
X40454976Y3208130D01*
X40454804Y3208004D01*
X40453341Y3210018D01*
X40452566Y3210912D01*
X40451896Y3212004D01*
X40451894Y3212009D01*
X40326206Y3385004D01*
X40326203Y3385007D01*
X40326201Y3385010D01*
X40175009Y3536202D01*
X40175006Y3536204D01*
X40175004Y3536206D01*
X40002601Y3661464D01*
X40002012Y3661892D01*
X40002011Y3661893D01*
X40002009Y3661894D01*
X39811483Y3758972D01*
X39811480Y3758973D01*
X39811478Y3758974D01*
X39608120Y3825048D01*
X39608123Y3825048D01*
X39568801Y3831276D01*
X39396916Y3858500D01*
X39183084Y3858500D01*
X38971884Y3825049D01*
X38971878Y3825048D01*
X38768521Y3758974D01*
X38768515Y3758971D01*
X38577987Y3661892D01*
X38404993Y3536204D01*
X38404990Y3536202D01*
X38253798Y3385010D01*
X38253796Y3385007D01*
X38128108Y3212013D01*
X38127434Y3210912D01*
X38127068Y3210582D01*
X38125196Y3208004D01*
X38124654Y3208398D01*
X38074787Y3163279D01*
X38004745Y3151672D01*
X37939547Y3179774D01*
X37914976Y3208130D01*
X37914804Y3208004D01*
X37913341Y3210018D01*
X37912566Y3210912D01*
X37911896Y3212004D01*
X37911894Y3212009D01*
X37786206Y3385004D01*
X37786203Y3385007D01*
X37786201Y3385010D01*
X37635009Y3536202D01*
X37635006Y3536204D01*
X37635004Y3536206D01*
X37462601Y3661464D01*
X37462012Y3661892D01*
X37462011Y3661893D01*
X37462009Y3661894D01*
X37271483Y3758972D01*
X37271480Y3758973D01*
X37271478Y3758974D01*
X37068120Y3825048D01*
X37068123Y3825048D01*
X37028801Y3831276D01*
X36856916Y3858500D01*
X36643084Y3858500D01*
X36431884Y3825049D01*
X36431878Y3825048D01*
X36228521Y3758974D01*
X36228515Y3758971D01*
X36037987Y3661892D01*
X35864993Y3536204D01*
X35864990Y3536202D01*
X35713798Y3385010D01*
X35713796Y3385007D01*
X35588100Y3212002D01*
X35587131Y3210420D01*
X35586606Y3209946D01*
X35585196Y3208004D01*
X35584787Y3208301D01*
X35534479Y3162794D01*
X35464437Y3151193D01*
X35399242Y3179303D01*
X35374514Y3207843D01*
X35374376Y3207742D01*
X35373199Y3209361D01*
X35372270Y3210434D01*
X35371461Y3211753D01*
X35333378Y3264169D01*
X34694157Y2624949D01*
X34675925Y2692993D01*
X34610099Y2807007D01*
X34517007Y2900099D01*
X34402993Y2965925D01*
X34334947Y2984159D01*
X34974168Y3623379D01*
X34974167Y3623380D01*
X34921750Y3661464D01*
X34921748Y3661465D01*
X34731292Y3758507D01*
X34731286Y3758510D01*
X34528003Y3824560D01*
X34316874Y3858000D01*
X34103126Y3858000D01*
X33891996Y3824560D01*
X33688713Y3758510D01*
X33688707Y3758507D01*
X33498253Y3661466D01*
X33445831Y3623379D01*
X33445831Y3623378D01*
X34085051Y2984158D01*
X34017007Y2965925D01*
X33902993Y2900099D01*
X33809901Y2807007D01*
X33744075Y2692993D01*
X33725842Y2624949D01*
X33086622Y3264169D01*
X33086621Y3264169D01*
X33048528Y3211739D01*
X33047724Y3210426D01*
X33047288Y3210033D01*
X33045624Y3207741D01*
X33045142Y3208091D01*
X32995075Y3162797D01*
X32925033Y3151193D01*
X32859836Y3179298D01*
X32834901Y3208076D01*
X32834804Y3208004D01*
X32833975Y3209145D01*
X32832859Y3210433D01*
X32831899Y3211999D01*
X32831894Y3212009D01*
X32706206Y3385004D01*
X32706203Y3385007D01*
X32706201Y3385010D01*
X32555009Y3536202D01*
X32555006Y3536204D01*
X32555004Y3536206D01*
X32382601Y3661464D01*
X32382012Y3661892D01*
X32382011Y3661893D01*
X32382009Y3661894D01*
X32191483Y3758972D01*
X32191480Y3758973D01*
X32191478Y3758974D01*
X31988120Y3825048D01*
X31988123Y3825048D01*
X31948801Y3831276D01*
X31776916Y3858500D01*
X31563084Y3858500D01*
X31351884Y3825049D01*
X31351878Y3825048D01*
X31148521Y3758974D01*
X31148515Y3758971D01*
X30957987Y3661892D01*
X30784993Y3536204D01*
X30784990Y3536202D01*
X30633798Y3385010D01*
X30633796Y3385007D01*
X30508100Y3212002D01*
X30507131Y3210420D01*
X30506606Y3209946D01*
X30505196Y3208004D01*
X30504787Y3208301D01*
X30454479Y3162794D01*
X30384437Y3151193D01*
X30319242Y3179303D01*
X30294514Y3207843D01*
X30294376Y3207742D01*
X30293199Y3209361D01*
X30292270Y3210434D01*
X30291461Y3211753D01*
X30253378Y3264169D01*
X29614157Y2624949D01*
X29595925Y2692993D01*
X29530099Y2807007D01*
X29437007Y2900099D01*
X29322993Y2965925D01*
X29254947Y2984159D01*
X29894168Y3623379D01*
X29894167Y3623380D01*
X29841750Y3661464D01*
X29841748Y3661465D01*
X29651292Y3758507D01*
X29651286Y3758510D01*
X29448003Y3824560D01*
X29236874Y3858000D01*
X29023126Y3858000D01*
X28811996Y3824560D01*
X28608713Y3758510D01*
X28608707Y3758507D01*
X28418253Y3661466D01*
X28365831Y3623379D01*
X28365831Y3623378D01*
X29005051Y2984158D01*
X28937007Y2965925D01*
X28822993Y2900099D01*
X28729901Y2807007D01*
X28664075Y2692993D01*
X28645842Y2624949D01*
X28006622Y3264169D01*
X28006621Y3264169D01*
X27968528Y3211739D01*
X27967724Y3210426D01*
X27967288Y3210033D01*
X27965624Y3207741D01*
X27965142Y3208091D01*
X27915075Y3162797D01*
X27845033Y3151193D01*
X27779836Y3179298D01*
X27754901Y3208076D01*
X27754804Y3208004D01*
X27753975Y3209145D01*
X27752859Y3210433D01*
X27751899Y3211999D01*
X27751894Y3212009D01*
X27626206Y3385004D01*
X27626203Y3385007D01*
X27626201Y3385010D01*
X27475009Y3536202D01*
X27475006Y3536204D01*
X27475004Y3536206D01*
X27302601Y3661464D01*
X27302012Y3661892D01*
X27302011Y3661893D01*
X27302009Y3661894D01*
X27111483Y3758972D01*
X27111480Y3758973D01*
X27111478Y3758974D01*
X26908120Y3825048D01*
X26908123Y3825048D01*
X26868801Y3831276D01*
X26696916Y3858500D01*
X26483084Y3858500D01*
X26271884Y3825049D01*
X26271878Y3825048D01*
X26068521Y3758974D01*
X26068515Y3758971D01*
X25877987Y3661892D01*
X25704993Y3536204D01*
X25704990Y3536202D01*
X25553798Y3385010D01*
X25553796Y3385007D01*
X25428108Y3212013D01*
X25427434Y3210912D01*
X25427068Y3210582D01*
X25425196Y3208004D01*
X25424654Y3208398D01*
X25374787Y3163279D01*
X25304745Y3151672D01*
X25239547Y3179774D01*
X25214976Y3208130D01*
X25214804Y3208004D01*
X25213341Y3210018D01*
X25212566Y3210912D01*
X25211896Y3212004D01*
X25211894Y3212009D01*
X25086206Y3385004D01*
X25086203Y3385007D01*
X25086201Y3385010D01*
X24935009Y3536202D01*
X24935006Y3536204D01*
X24935004Y3536206D01*
X24762601Y3661464D01*
X24762012Y3661892D01*
X24762011Y3661893D01*
X24762009Y3661894D01*
X24571483Y3758972D01*
X24571480Y3758973D01*
X24571478Y3758974D01*
X24368120Y3825048D01*
X24368123Y3825048D01*
X24328801Y3831276D01*
X24156916Y3858500D01*
X23943084Y3858500D01*
X23731884Y3825049D01*
X23731878Y3825048D01*
X23528521Y3758974D01*
X23528515Y3758971D01*
X23337987Y3661892D01*
X23164993Y3536204D01*
X23164990Y3536202D01*
X23013798Y3385010D01*
X23013796Y3385007D01*
X22888108Y3212013D01*
X22887434Y3210912D01*
X22887068Y3210582D01*
X22885196Y3208004D01*
X22884654Y3208398D01*
X22834787Y3163279D01*
X22764745Y3151672D01*
X22699547Y3179774D01*
X22674976Y3208130D01*
X22674804Y3208004D01*
X22673341Y3210018D01*
X22672566Y3210912D01*
X22671896Y3212004D01*
X22671894Y3212009D01*
X22546206Y3385004D01*
X22546203Y3385007D01*
X22546201Y3385010D01*
X22395009Y3536202D01*
X22395006Y3536204D01*
X22395004Y3536206D01*
X22222601Y3661464D01*
X22222012Y3661892D01*
X22222011Y3661893D01*
X22222009Y3661894D01*
X22031483Y3758972D01*
X22031480Y3758973D01*
X22031478Y3758974D01*
X21828120Y3825048D01*
X21828123Y3825048D01*
X21788801Y3831276D01*
X21616916Y3858500D01*
X21403084Y3858500D01*
X21191884Y3825049D01*
X21191878Y3825048D01*
X20988521Y3758974D01*
X20988515Y3758971D01*
X20797987Y3661892D01*
X20624995Y3536206D01*
X20522018Y3433229D01*
X20459706Y3399204D01*
X20388890Y3404270D01*
X20332054Y3446816D01*
X20314871Y3478285D01*
X20270889Y3596204D01*
X20270886Y3596208D01*
X20270886Y3596209D01*
X20183261Y3713262D01*
X20066207Y3800888D01*
X20066202Y3800890D01*
X19929204Y3851989D01*
X19929196Y3851991D01*
X19868649Y3858500D01*
X19868638Y3858500D01*
X18071362Y3858500D01*
X18071350Y3858500D01*
X18010803Y3851991D01*
X18010795Y3851989D01*
X17873797Y3800890D01*
X17873792Y3800888D01*
X17756738Y3713262D01*
X17669112Y3596208D01*
X17669110Y3596203D01*
X17618011Y3459205D01*
X17618009Y3459197D01*
X17611500Y3398650D01*
X7623283Y3398650D01*
X7635394Y3438576D01*
X7635397Y3438588D01*
X7665008Y3536202D01*
X7713219Y3695131D01*
X7716826Y3713262D01*
X7739061Y3825049D01*
X7776637Y4013957D01*
X7808500Y4337464D01*
X7808500Y4662536D01*
X7808499Y4662543D01*
X62191500Y4662543D01*
X62191500Y4337458D01*
X62223361Y4013973D01*
X62223364Y4013951D01*
X62286777Y3695145D01*
X62286780Y3695134D01*
X62286781Y3695131D01*
X62381145Y3384056D01*
X62472594Y3163279D01*
X62505545Y3083728D01*
X62658784Y2797038D01*
X62839378Y2526759D01*
X62839389Y2526744D01*
X63045601Y2275475D01*
X63045619Y2275455D01*
X63275454Y2045620D01*
X63275474Y2045602D01*
X63515262Y1848812D01*
X63526752Y1839383D01*
X63797040Y1658783D01*
X64083728Y1505545D01*
X64384056Y1381145D01*
X64695131Y1286781D01*
X64695140Y1286780D01*
X64695144Y1286778D01*
X64824365Y1261075D01*
X65013957Y1223363D01*
X65337464Y1191500D01*
X65337473Y1191500D01*
X65662527Y1191500D01*
X65662536Y1191500D01*
X65986043Y1223363D01*
X66237696Y1273420D01*
X66304855Y1286778D01*
X66304857Y1286779D01*
X66304869Y1286781D01*
X66615944Y1381145D01*
X66916272Y1505545D01*
X67202960Y1658783D01*
X67473248Y1839383D01*
X67724532Y2045607D01*
X67954393Y2275468D01*
X68160617Y2526752D01*
X68341217Y2797040D01*
X68494455Y3083728D01*
X68618855Y3384056D01*
X68713219Y3695131D01*
X68716826Y3713262D01*
X68739061Y3825049D01*
X68776637Y4013957D01*
X68808500Y4337464D01*
X68808500Y4662536D01*
X68776637Y4986043D01*
X68713219Y5304869D01*
X68618855Y5615944D01*
X68494455Y5916272D01*
X68341217Y6202960D01*
X68160617Y6473248D01*
X68160613Y6473253D01*
X68160610Y6473257D01*
X67954398Y6724526D01*
X67954380Y6724546D01*
X67724545Y6954381D01*
X67724525Y6954399D01*
X67473256Y7160611D01*
X67473241Y7160622D01*
X67202962Y7341216D01*
X66916272Y7494455D01*
X66615944Y7618855D01*
X66304869Y7713219D01*
X66304866Y7713220D01*
X66304855Y7713223D01*
X65986049Y7776636D01*
X65986045Y7776637D01*
X65986043Y7776637D01*
X65986038Y7776638D01*
X65986027Y7776639D01*
X65662542Y7808500D01*
X65662536Y7808500D01*
X65337464Y7808500D01*
X65337457Y7808500D01*
X65013972Y7776639D01*
X65013950Y7776636D01*
X64695144Y7713223D01*
X64384062Y7618857D01*
X64384060Y7618857D01*
X64384056Y7618855D01*
X64222029Y7551742D01*
X64083727Y7494455D01*
X63797037Y7341216D01*
X63526758Y7160622D01*
X63526743Y7160611D01*
X63275474Y6954399D01*
X63275454Y6954381D01*
X63045619Y6724546D01*
X63045601Y6724526D01*
X62839389Y6473257D01*
X62839378Y6473242D01*
X62658784Y6202963D01*
X62505545Y5916273D01*
X62505545Y5916272D01*
X62385482Y5626413D01*
X62381143Y5615938D01*
X62286777Y5304856D01*
X62223364Y4986050D01*
X62223361Y4986028D01*
X62191500Y4662543D01*
X7808499Y4662543D01*
X7776637Y4986043D01*
X7713219Y5304869D01*
X7618855Y5615944D01*
X7494455Y5916272D01*
X7341217Y6202960D01*
X7160617Y6473248D01*
X7160614Y6473251D01*
X7160611Y6473256D01*
X7125749Y6515735D01*
X7065226Y6589482D01*
X43841500Y6589482D01*
X43841500Y6410519D01*
X43876414Y6234997D01*
X43896473Y6186571D01*
X43944898Y6069664D01*
X44044322Y5920865D01*
X44170865Y5794322D01*
X44319664Y5694898D01*
X44485000Y5626413D01*
X44660521Y5591500D01*
X44660522Y5591500D01*
X44839478Y5591500D01*
X44839479Y5591500D01*
X45015000Y5626413D01*
X45180336Y5694898D01*
X45329135Y5794322D01*
X45455678Y5920865D01*
X45555102Y6069664D01*
X45623587Y6235000D01*
X45658500Y6410521D01*
X45658500Y6589479D01*
X45658499Y6589482D01*
X50591500Y6589482D01*
X50591500Y6410519D01*
X50626414Y6234997D01*
X50646473Y6186571D01*
X50694898Y6069664D01*
X50794322Y5920865D01*
X50920865Y5794322D01*
X51069664Y5694898D01*
X51235000Y5626413D01*
X51410521Y5591500D01*
X51410522Y5591500D01*
X51589478Y5591500D01*
X51589479Y5591500D01*
X51765000Y5626413D01*
X51930336Y5694898D01*
X52079135Y5794322D01*
X52205678Y5920865D01*
X52305102Y6069664D01*
X52373587Y6235000D01*
X52408500Y6410521D01*
X52408500Y6589479D01*
X52373587Y6765000D01*
X52305102Y6930336D01*
X52205678Y7079135D01*
X52079135Y7205678D01*
X51930336Y7305102D01*
X51813429Y7353527D01*
X51765003Y7373586D01*
X51765001Y7373587D01*
X51765000Y7373587D01*
X51676645Y7391162D01*
X51589481Y7408500D01*
X51589479Y7408500D01*
X51410521Y7408500D01*
X51410518Y7408500D01*
X51279771Y7382493D01*
X51235000Y7373587D01*
X51234999Y7373587D01*
X51234996Y7373586D01*
X51069662Y7305101D01*
X50920869Y7205681D01*
X50920862Y7205676D01*
X50794324Y7079138D01*
X50794319Y7079131D01*
X50694899Y6930338D01*
X50626414Y6765004D01*
X50626413Y6765001D01*
X50626413Y6765000D01*
X50618362Y6724526D01*
X50591500Y6589482D01*
X45658499Y6589482D01*
X45623587Y6765000D01*
X45555102Y6930336D01*
X45455678Y7079135D01*
X45329135Y7205678D01*
X45180336Y7305102D01*
X45063429Y7353527D01*
X45015003Y7373586D01*
X45015001Y7373587D01*
X45015000Y7373587D01*
X44926645Y7391162D01*
X44839481Y7408500D01*
X44839479Y7408500D01*
X44660521Y7408500D01*
X44660518Y7408500D01*
X44529771Y7382493D01*
X44485000Y7373587D01*
X44484999Y7373587D01*
X44484996Y7373586D01*
X44319662Y7305101D01*
X44170869Y7205681D01*
X44170862Y7205676D01*
X44044324Y7079138D01*
X44044319Y7079131D01*
X43944899Y6930338D01*
X43876414Y6765004D01*
X43876413Y6765001D01*
X43876413Y6765000D01*
X43868362Y6724526D01*
X43841500Y6589482D01*
X7065226Y6589482D01*
X6954398Y6724526D01*
X6954380Y6724546D01*
X6724545Y6954381D01*
X6724525Y6954399D01*
X6473256Y7160611D01*
X6473241Y7160622D01*
X6202962Y7341216D01*
X5916272Y7494455D01*
X5615944Y7618855D01*
X5304869Y7713219D01*
X5304866Y7713220D01*
X5304855Y7713223D01*
X4986049Y7776636D01*
X4986045Y7776637D01*
X4986043Y7776637D01*
X4986038Y7776638D01*
X4986027Y7776639D01*
X4662542Y7808500D01*
X4662536Y7808500D01*
X4337464Y7808500D01*
X4337457Y7808500D01*
X4013972Y7776639D01*
X4013950Y7776636D01*
X3695144Y7713223D01*
X3384062Y7618857D01*
X3384060Y7618857D01*
X3384056Y7618855D01*
X3222029Y7551742D01*
X3083727Y7494455D01*
X2797037Y7341216D01*
X2526758Y7160622D01*
X2526743Y7160611D01*
X2275474Y6954399D01*
X2275454Y6954381D01*
X2045619Y6724546D01*
X2045601Y6724526D01*
X1839389Y6473257D01*
X1839378Y6473242D01*
X1658784Y6202963D01*
X1505545Y5916273D01*
X1505545Y5916272D01*
X1385482Y5626413D01*
X1381143Y5615938D01*
X1286777Y5304856D01*
X1223364Y4986050D01*
X1223361Y4986028D01*
X1191500Y4662543D01*
X500000Y4662543D01*
X500000Y14839482D01*
X5591500Y14839482D01*
X5591500Y14660519D01*
X5593615Y14649888D01*
X5625418Y14490000D01*
X5626414Y14484997D01*
X5629640Y14477210D01*
X5694898Y14319664D01*
X5794322Y14170865D01*
X5920865Y14044322D01*
X6069664Y13944898D01*
X6235000Y13876413D01*
X6249251Y13873579D01*
X6312159Y13840671D01*
X6347291Y13778976D01*
X6343491Y13708081D01*
X6301965Y13650495D01*
X6249251Y13626422D01*
X6235000Y13623587D01*
X6234998Y13623587D01*
X6234997Y13623586D01*
X6069662Y13555101D01*
X5920869Y13455681D01*
X5920862Y13455676D01*
X5794324Y13329138D01*
X5794319Y13329131D01*
X5694899Y13180338D01*
X5626414Y13015004D01*
X5591500Y12839482D01*
X5591500Y12660519D01*
X5626414Y12484997D01*
X5639913Y12452409D01*
X5694898Y12319664D01*
X5794322Y12170865D01*
X5920865Y12044322D01*
X6069664Y11944898D01*
X6235000Y11876413D01*
X6410521Y11841500D01*
X6410522Y11841500D01*
X6589478Y11841500D01*
X6589479Y11841500D01*
X6765000Y11876413D01*
X6930336Y11944898D01*
X7079135Y12044322D01*
X7205678Y12170865D01*
X7305102Y12319664D01*
X7373587Y12485000D01*
X7408500Y12660521D01*
X7408500Y12839479D01*
X7373587Y13015000D01*
X7305102Y13180336D01*
X7205678Y13329135D01*
X7079135Y13455678D01*
X6930336Y13555102D01*
X6861853Y13583469D01*
X6765002Y13623587D01*
X6758521Y13624876D01*
X6750748Y13626422D01*
X6687840Y13659328D01*
X6652708Y13721023D01*
X6656508Y13791918D01*
X6698033Y13849504D01*
X6750748Y13873579D01*
X6765000Y13876413D01*
X6930336Y13944898D01*
X7079135Y14044322D01*
X7205678Y14170865D01*
X7305102Y14319664D01*
X7373587Y14485000D01*
X7408500Y14660521D01*
X7408500Y14839479D01*
X7374434Y15010740D01*
X25717000Y15010740D01*
X25717000Y14829261D01*
X25745392Y14650000D01*
X25801471Y14477407D01*
X25801476Y14477395D01*
X25883861Y14315704D01*
X25883868Y14315694D01*
X25893383Y14302596D01*
X26442996Y14852208D01*
X26469304Y14754026D01*
X26525915Y14655974D01*
X26605974Y14575915D01*
X26704026Y14519304D01*
X26802206Y14492997D01*
X26252594Y13943386D01*
X26265701Y13933863D01*
X26427394Y13851477D01*
X26427406Y13851472D01*
X26599999Y13795393D01*
X26779260Y13767000D01*
X26960740Y13767000D01*
X27140000Y13795393D01*
X27312593Y13851472D01*
X27312599Y13851475D01*
X27474307Y13933869D01*
X27487404Y13943385D01*
X27487404Y13943387D01*
X26937794Y14492997D01*
X27035974Y14519304D01*
X27134026Y14575915D01*
X27214085Y14655974D01*
X27270696Y14754026D01*
X27297003Y14852206D01*
X27846613Y14302596D01*
X27846615Y14302596D01*
X27856131Y14315693D01*
X27938525Y14477401D01*
X27938528Y14477407D01*
X27994607Y14650001D01*
X28015297Y14780631D01*
X28045709Y14844784D01*
X28105977Y14882312D01*
X28176966Y14881298D01*
X28236139Y14842066D01*
X28264195Y14780632D01*
X28284904Y14649883D01*
X28340945Y14477407D01*
X28341009Y14477210D01*
X28423438Y14315434D01*
X28530159Y14168545D01*
X28530161Y14168543D01*
X28530163Y14168540D01*
X28658539Y14040164D01*
X28658542Y14040162D01*
X28658545Y14040159D01*
X28805434Y13933438D01*
X28967210Y13851009D01*
X29139882Y13794905D01*
X29139883Y13794905D01*
X29139888Y13794903D01*
X29319218Y13766500D01*
X29319221Y13766500D01*
X29500779Y13766500D01*
X29500782Y13766500D01*
X29680112Y13794903D01*
X29852790Y13851009D01*
X30014566Y13933438D01*
X30161455Y14040159D01*
X30289841Y14168545D01*
X30396562Y14315434D01*
X30478991Y14477210D01*
X30535097Y14649888D01*
X30555551Y14779037D01*
X30585963Y14843187D01*
X30646232Y14880714D01*
X30717221Y14879700D01*
X30776393Y14840467D01*
X30804447Y14779037D01*
X30823219Y14660523D01*
X30824904Y14649883D01*
X30880945Y14477407D01*
X30881009Y14477210D01*
X30963438Y14315434D01*
X31070159Y14168545D01*
X31070161Y14168543D01*
X31070163Y14168540D01*
X31198539Y14040164D01*
X31198542Y14040162D01*
X31198545Y14040159D01*
X31345434Y13933438D01*
X31507210Y13851009D01*
X31679882Y13794905D01*
X31679883Y13794905D01*
X31679888Y13794903D01*
X31859218Y13766500D01*
X31859221Y13766500D01*
X32040779Y13766500D01*
X32040782Y13766500D01*
X32220112Y13794903D01*
X32392790Y13851009D01*
X32554566Y13933438D01*
X32701455Y14040159D01*
X32829841Y14168545D01*
X32936562Y14315434D01*
X33018991Y14477210D01*
X33075097Y14649888D01*
X33095551Y14779037D01*
X33125963Y14843187D01*
X33186232Y14880714D01*
X33257221Y14879700D01*
X33316393Y14840467D01*
X33344447Y14779037D01*
X33363219Y14660523D01*
X33364904Y14649883D01*
X33420945Y14477407D01*
X33421009Y14477210D01*
X33503438Y14315434D01*
X33610159Y14168545D01*
X33610161Y14168543D01*
X33610163Y14168540D01*
X33738539Y14040164D01*
X33738542Y14040162D01*
X33738545Y14040159D01*
X33885434Y13933438D01*
X33923611Y13913986D01*
X33975225Y13865240D01*
X33992292Y13796325D01*
X33969392Y13729123D01*
X33913795Y13684970D01*
X33886120Y13677271D01*
X33753586Y13656279D01*
X33557714Y13592636D01*
X33557708Y13592633D01*
X33374193Y13499127D01*
X33207567Y13378066D01*
X33207564Y13378064D01*
X33061936Y13232436D01*
X33061934Y13232433D01*
X32940873Y13065807D01*
X32847367Y12882292D01*
X32847364Y12882286D01*
X32783721Y12686413D01*
X32783720Y12686410D01*
X32783720Y12686408D01*
X32751500Y12482981D01*
X32751500Y12277019D01*
X32783720Y12073592D01*
X32783721Y12073588D01*
X32825534Y11944900D01*
X32847366Y11877710D01*
X32940871Y11694197D01*
X33061932Y11527570D01*
X33061934Y11527568D01*
X33061936Y11527565D01*
X33207564Y11381937D01*
X33207567Y11381935D01*
X33207570Y11381932D01*
X33374197Y11260871D01*
X33557710Y11167366D01*
X33753592Y11103720D01*
X33957019Y11071500D01*
X33957022Y11071500D01*
X34162978Y11071500D01*
X34162981Y11071500D01*
X34366408Y11103720D01*
X34562290Y11167366D01*
X34745803Y11260871D01*
X34912430Y11381932D01*
X35058068Y11527570D01*
X35179129Y11694197D01*
X35217734Y11769966D01*
X35266481Y11821578D01*
X35335396Y11838644D01*
X35402598Y11815743D01*
X35442264Y11769966D01*
X35480871Y11694197D01*
X35601932Y11527570D01*
X35601934Y11527568D01*
X35601936Y11527565D01*
X35747564Y11381937D01*
X35747567Y11381935D01*
X35747570Y11381932D01*
X35914197Y11260871D01*
X36097710Y11167366D01*
X36293592Y11103720D01*
X36497019Y11071500D01*
X36497022Y11071500D01*
X36702978Y11071500D01*
X36702981Y11071500D01*
X36906408Y11103720D01*
X37102290Y11167366D01*
X37285803Y11260871D01*
X37452430Y11381932D01*
X37598068Y11527570D01*
X37719129Y11694197D01*
X37757734Y11769966D01*
X37806481Y11821578D01*
X37875396Y11838644D01*
X37942598Y11815743D01*
X37982264Y11769966D01*
X38020871Y11694197D01*
X38141932Y11527570D01*
X38141934Y11527568D01*
X38141936Y11527565D01*
X38287564Y11381937D01*
X38287567Y11381935D01*
X38287570Y11381932D01*
X38454197Y11260871D01*
X38637710Y11167366D01*
X38833592Y11103720D01*
X39037019Y11071500D01*
X39037022Y11071500D01*
X39242978Y11071500D01*
X39242981Y11071500D01*
X39446408Y11103720D01*
X39642290Y11167366D01*
X39825803Y11260871D01*
X39992430Y11381932D01*
X40138068Y11527570D01*
X40259129Y11694197D01*
X40297734Y11769966D01*
X40346481Y11821578D01*
X40415396Y11838644D01*
X40482598Y11815743D01*
X40522264Y11769966D01*
X40560871Y11694197D01*
X40681932Y11527570D01*
X40681934Y11527568D01*
X40681936Y11527565D01*
X40827564Y11381937D01*
X40827567Y11381935D01*
X40827570Y11381932D01*
X40994197Y11260871D01*
X41177710Y11167366D01*
X41373592Y11103720D01*
X41577019Y11071500D01*
X41577022Y11071500D01*
X41782978Y11071500D01*
X41782981Y11071500D01*
X41986408Y11103720D01*
X42182290Y11167366D01*
X42365803Y11260871D01*
X42532430Y11381932D01*
X42678068Y11527570D01*
X42799129Y11694197D01*
X42837734Y11769966D01*
X42886481Y11821578D01*
X42955396Y11838644D01*
X43022598Y11815743D01*
X43062264Y11769966D01*
X43100871Y11694197D01*
X43221932Y11527570D01*
X43221934Y11527568D01*
X43221936Y11527565D01*
X43367564Y11381937D01*
X43367567Y11381935D01*
X43367570Y11381932D01*
X43534197Y11260871D01*
X43717710Y11167366D01*
X43913592Y11103720D01*
X44117019Y11071500D01*
X44117022Y11071500D01*
X44322978Y11071500D01*
X44322981Y11071500D01*
X44526408Y11103720D01*
X44722290Y11167366D01*
X44905803Y11260871D01*
X45072430Y11381932D01*
X45218068Y11527570D01*
X45339129Y11694197D01*
X45377734Y11769966D01*
X45426481Y11821578D01*
X45495396Y11838644D01*
X45562598Y11815743D01*
X45602264Y11769966D01*
X45640871Y11694197D01*
X45761932Y11527570D01*
X45761934Y11527568D01*
X45761936Y11527565D01*
X45907564Y11381937D01*
X45907567Y11381935D01*
X45907570Y11381932D01*
X46074197Y11260871D01*
X46257710Y11167366D01*
X46453592Y11103720D01*
X46657019Y11071500D01*
X46657022Y11071500D01*
X46862978Y11071500D01*
X46862981Y11071500D01*
X47066408Y11103720D01*
X47262290Y11167366D01*
X47445803Y11260871D01*
X47612430Y11381932D01*
X47758068Y11527570D01*
X47879129Y11694197D01*
X47917734Y11769966D01*
X47966481Y11821578D01*
X48035396Y11838644D01*
X48102598Y11815743D01*
X48142264Y11769966D01*
X48180871Y11694197D01*
X48301932Y11527570D01*
X48301934Y11527568D01*
X48301936Y11527565D01*
X48447564Y11381937D01*
X48447567Y11381935D01*
X48447570Y11381932D01*
X48614197Y11260871D01*
X48797710Y11167366D01*
X48993592Y11103720D01*
X49197019Y11071500D01*
X49197022Y11071500D01*
X49402978Y11071500D01*
X49402981Y11071500D01*
X49606408Y11103720D01*
X49802290Y11167366D01*
X49985803Y11260871D01*
X50152430Y11381932D01*
X50298068Y11527570D01*
X50419129Y11694197D01*
X50457734Y11769966D01*
X50506481Y11821578D01*
X50575396Y11838644D01*
X50642598Y11815743D01*
X50682264Y11769966D01*
X50720871Y11694197D01*
X50841932Y11527570D01*
X50841934Y11527568D01*
X50841936Y11527565D01*
X50987564Y11381937D01*
X50987567Y11381935D01*
X50987570Y11381932D01*
X51154197Y11260871D01*
X51337710Y11167366D01*
X51533592Y11103720D01*
X51737019Y11071500D01*
X51737022Y11071500D01*
X51942978Y11071500D01*
X51942981Y11071500D01*
X52146408Y11103720D01*
X52342290Y11167366D01*
X52525803Y11260871D01*
X52692430Y11381932D01*
X52838068Y11527570D01*
X52959129Y11694197D01*
X52997734Y11769966D01*
X53046481Y11821578D01*
X53115396Y11838644D01*
X53182598Y11815743D01*
X53222264Y11769966D01*
X53260871Y11694197D01*
X53381932Y11527570D01*
X53381934Y11527568D01*
X53381936Y11527565D01*
X53527564Y11381937D01*
X53527567Y11381935D01*
X53527570Y11381932D01*
X53694197Y11260871D01*
X53877710Y11167366D01*
X54073592Y11103720D01*
X54277019Y11071500D01*
X54277022Y11071500D01*
X54482978Y11071500D01*
X54482981Y11071500D01*
X54686408Y11103720D01*
X54882290Y11167366D01*
X55065803Y11260871D01*
X55232430Y11381932D01*
X55378068Y11527570D01*
X55499129Y11694197D01*
X55537734Y11769966D01*
X55586481Y11821578D01*
X55655396Y11838644D01*
X55722598Y11815743D01*
X55762264Y11769966D01*
X55800871Y11694197D01*
X55921932Y11527570D01*
X55921934Y11527568D01*
X55921936Y11527565D01*
X56067564Y11381937D01*
X56067567Y11381935D01*
X56067570Y11381932D01*
X56234197Y11260871D01*
X56417710Y11167366D01*
X56613592Y11103720D01*
X56817019Y11071500D01*
X56817022Y11071500D01*
X57022978Y11071500D01*
X57022981Y11071500D01*
X57226408Y11103720D01*
X57422290Y11167366D01*
X57605803Y11260871D01*
X57772430Y11381932D01*
X57918068Y11527570D01*
X58039129Y11694197D01*
X58077734Y11769966D01*
X58126481Y11821578D01*
X58195396Y11838644D01*
X58262598Y11815743D01*
X58302264Y11769966D01*
X58340871Y11694197D01*
X58461932Y11527570D01*
X58461934Y11527568D01*
X58461936Y11527565D01*
X58607564Y11381937D01*
X58607567Y11381935D01*
X58607570Y11381932D01*
X58774197Y11260871D01*
X58957710Y11167366D01*
X59153592Y11103720D01*
X59357019Y11071500D01*
X59357022Y11071500D01*
X59562978Y11071500D01*
X59562981Y11071500D01*
X59766408Y11103720D01*
X59962290Y11167366D01*
X60145803Y11260871D01*
X60312430Y11381932D01*
X60458068Y11527570D01*
X60579129Y11694197D01*
X60617734Y11769966D01*
X60666481Y11821578D01*
X60735396Y11838644D01*
X60802598Y11815743D01*
X60842264Y11769966D01*
X60880871Y11694197D01*
X61001932Y11527570D01*
X61001934Y11527568D01*
X61001936Y11527565D01*
X61147564Y11381937D01*
X61147567Y11381935D01*
X61147570Y11381932D01*
X61314197Y11260871D01*
X61497710Y11167366D01*
X61693592Y11103720D01*
X61897019Y11071500D01*
X61897022Y11071500D01*
X62102978Y11071500D01*
X62102981Y11071500D01*
X62306408Y11103720D01*
X62502290Y11167366D01*
X62685803Y11260871D01*
X62852430Y11381932D01*
X62852435Y11381937D01*
X62900033Y11429534D01*
X62998063Y11527565D01*
X62998068Y11527570D01*
X63119129Y11694197D01*
X63158014Y11770514D01*
X63206759Y11822126D01*
X63275674Y11839193D01*
X63342876Y11816293D01*
X63382545Y11770513D01*
X63421294Y11694465D01*
X63421298Y11694459D01*
X63452416Y11651628D01*
X64015016Y12214229D01*
X64027482Y12167708D01*
X64099890Y12042292D01*
X64202292Y11939890D01*
X64327708Y11867482D01*
X64374226Y11855018D01*
X63811626Y11292418D01*
X63811626Y11292417D01*
X63854454Y11261301D01*
X64037900Y11167830D01*
X64037906Y11167827D01*
X64233705Y11104209D01*
X64233701Y11104209D01*
X64437061Y11072000D01*
X64642939Y11072000D01*
X64846296Y11104209D01*
X65042093Y11167827D01*
X65042099Y11167830D01*
X65225541Y11261299D01*
X65268372Y11292418D01*
X65268372Y11292419D01*
X64705773Y11855018D01*
X64752292Y11867482D01*
X64877708Y11939890D01*
X64980110Y12042292D01*
X65052518Y12167708D01*
X65064982Y12214227D01*
X65627581Y11651628D01*
X65627582Y11651628D01*
X65658701Y11694459D01*
X65697453Y11770512D01*
X65746201Y11822127D01*
X65815116Y11839193D01*
X65882318Y11816292D01*
X65921985Y11770514D01*
X65960871Y11694197D01*
X66081932Y11527570D01*
X66081934Y11527568D01*
X66081936Y11527565D01*
X66227564Y11381937D01*
X66227567Y11381935D01*
X66227570Y11381932D01*
X66394197Y11260871D01*
X66577710Y11167366D01*
X66773592Y11103720D01*
X66977019Y11071500D01*
X66977022Y11071500D01*
X67182978Y11071500D01*
X67182981Y11071500D01*
X67386408Y11103720D01*
X67582290Y11167366D01*
X67765803Y11260871D01*
X67932430Y11381932D01*
X68078068Y11527570D01*
X68199129Y11694197D01*
X68292634Y11877710D01*
X68356280Y12073592D01*
X68388500Y12277019D01*
X68388500Y12482981D01*
X68356280Y12686408D01*
X68292634Y12882290D01*
X68199129Y13065803D01*
X68078068Y13232430D01*
X68078065Y13232433D01*
X68078063Y13232436D01*
X67932435Y13378064D01*
X67932432Y13378066D01*
X67932430Y13378068D01*
X67766391Y13498702D01*
X67765806Y13499127D01*
X67765805Y13499128D01*
X67765803Y13499129D01*
X67582290Y13592634D01*
X67582287Y13592635D01*
X67582285Y13592636D01*
X67386412Y13656279D01*
X67386410Y13656280D01*
X67386408Y13656280D01*
X67182981Y13688500D01*
X66977019Y13688500D01*
X66773592Y13656280D01*
X66773590Y13656280D01*
X66773587Y13656279D01*
X66577714Y13592636D01*
X66577708Y13592633D01*
X66394193Y13499127D01*
X66227567Y13378066D01*
X66227564Y13378064D01*
X66081936Y13232436D01*
X66081934Y13232433D01*
X65960872Y13065807D01*
X65921987Y12989489D01*
X65873238Y12937874D01*
X65804323Y12920808D01*
X65737122Y12943709D01*
X65697453Y12989489D01*
X65658699Y13065546D01*
X65627583Y13108374D01*
X65627582Y13108374D01*
X65064982Y12545774D01*
X65052518Y12592292D01*
X64980110Y12717708D01*
X64877708Y12820110D01*
X64752292Y12892518D01*
X64705772Y12904984D01*
X65268372Y13467584D01*
X65225541Y13498702D01*
X65225540Y13498703D01*
X65042099Y13592171D01*
X65042093Y13592174D01*
X64846294Y13655792D01*
X64846298Y13655792D01*
X64642939Y13688000D01*
X64437061Y13688000D01*
X64233703Y13655792D01*
X64037906Y13592174D01*
X64037900Y13592171D01*
X63854452Y13498699D01*
X63811625Y13467584D01*
X64374226Y12904983D01*
X64327708Y12892518D01*
X64202292Y12820110D01*
X64099890Y12717708D01*
X64027482Y12592292D01*
X64015017Y12545774D01*
X63452416Y13108375D01*
X63421301Y13065547D01*
X63421299Y13065544D01*
X63382546Y12989488D01*
X63333798Y12937873D01*
X63264883Y12920808D01*
X63197681Y12943709D01*
X63158013Y12989489D01*
X63145014Y13015000D01*
X63119129Y13065803D01*
X63119127Y13065807D01*
X63035915Y13180338D01*
X62998068Y13232430D01*
X62998065Y13232433D01*
X62998063Y13232436D01*
X62852435Y13378064D01*
X62852432Y13378066D01*
X62852430Y13378068D01*
X62686391Y13498702D01*
X62685806Y13499127D01*
X62685805Y13499128D01*
X62685803Y13499129D01*
X62502290Y13592634D01*
X62502287Y13592635D01*
X62502285Y13592636D01*
X62306412Y13656279D01*
X62306410Y13656280D01*
X62306408Y13656280D01*
X62102981Y13688500D01*
X61897019Y13688500D01*
X61693592Y13656280D01*
X61693590Y13656280D01*
X61693587Y13656279D01*
X61497714Y13592636D01*
X61497708Y13592633D01*
X61314193Y13499127D01*
X61147567Y13378066D01*
X61147564Y13378064D01*
X61001936Y13232436D01*
X61001934Y13232433D01*
X60880873Y13065807D01*
X60880871Y13065803D01*
X60854986Y13015000D01*
X60842267Y12990038D01*
X60793518Y12938423D01*
X60724603Y12921357D01*
X60657402Y12944258D01*
X60617733Y12990038D01*
X60579129Y13065803D01*
X60458068Y13232430D01*
X60458065Y13232433D01*
X60458063Y13232436D01*
X60312435Y13378064D01*
X60312432Y13378066D01*
X60312430Y13378068D01*
X60146391Y13498702D01*
X60145806Y13499127D01*
X60145805Y13499128D01*
X60145803Y13499129D01*
X59962290Y13592634D01*
X59962287Y13592635D01*
X59962285Y13592636D01*
X59766412Y13656279D01*
X59766410Y13656280D01*
X59766408Y13656280D01*
X59562981Y13688500D01*
X59357019Y13688500D01*
X59153592Y13656280D01*
X59153590Y13656280D01*
X59153587Y13656279D01*
X58957714Y13592636D01*
X58957708Y13592633D01*
X58774193Y13499127D01*
X58607567Y13378066D01*
X58607564Y13378064D01*
X58461936Y13232436D01*
X58461934Y13232433D01*
X58340873Y13065807D01*
X58340871Y13065803D01*
X58314986Y13015000D01*
X58302267Y12990038D01*
X58253518Y12938423D01*
X58184603Y12921357D01*
X58117402Y12944258D01*
X58077733Y12990038D01*
X58039129Y13065803D01*
X57918068Y13232430D01*
X57918065Y13232433D01*
X57918063Y13232436D01*
X57772435Y13378064D01*
X57772432Y13378066D01*
X57772430Y13378068D01*
X57606391Y13498702D01*
X57605806Y13499127D01*
X57605805Y13499128D01*
X57605803Y13499129D01*
X57422290Y13592634D01*
X57422287Y13592635D01*
X57422285Y13592636D01*
X57226412Y13656279D01*
X57226410Y13656280D01*
X57226408Y13656280D01*
X57022981Y13688500D01*
X56817019Y13688500D01*
X56613592Y13656280D01*
X56613590Y13656280D01*
X56613587Y13656279D01*
X56417714Y13592636D01*
X56417708Y13592633D01*
X56234193Y13499127D01*
X56067567Y13378066D01*
X56067564Y13378064D01*
X55921936Y13232436D01*
X55921934Y13232433D01*
X55800873Y13065807D01*
X55800871Y13065803D01*
X55774986Y13015000D01*
X55762267Y12990038D01*
X55713518Y12938423D01*
X55644603Y12921357D01*
X55577402Y12944258D01*
X55537733Y12990038D01*
X55499129Y13065803D01*
X55378068Y13232430D01*
X55378065Y13232433D01*
X55378063Y13232436D01*
X55232435Y13378064D01*
X55232432Y13378066D01*
X55232430Y13378068D01*
X55066391Y13498702D01*
X55065806Y13499127D01*
X55065805Y13499128D01*
X55065803Y13499129D01*
X54882290Y13592634D01*
X54882287Y13592635D01*
X54882285Y13592636D01*
X54686412Y13656279D01*
X54686410Y13656280D01*
X54686408Y13656280D01*
X54482981Y13688500D01*
X54277019Y13688500D01*
X54073592Y13656280D01*
X54073590Y13656280D01*
X54073587Y13656279D01*
X53877714Y13592636D01*
X53877708Y13592633D01*
X53694193Y13499127D01*
X53527567Y13378066D01*
X53527564Y13378064D01*
X53381936Y13232436D01*
X53381934Y13232433D01*
X53260873Y13065807D01*
X53260871Y13065803D01*
X53234986Y13015000D01*
X53222267Y12990038D01*
X53173518Y12938423D01*
X53104603Y12921357D01*
X53037402Y12944258D01*
X52997733Y12990038D01*
X52959129Y13065803D01*
X52838068Y13232430D01*
X52838065Y13232433D01*
X52838063Y13232436D01*
X52692435Y13378064D01*
X52692432Y13378066D01*
X52692430Y13378068D01*
X52526391Y13498702D01*
X52525806Y13499127D01*
X52525805Y13499128D01*
X52525803Y13499129D01*
X52431881Y13546985D01*
X52380267Y13595733D01*
X52363201Y13664648D01*
X52386102Y13731849D01*
X52441700Y13776001D01*
X52469367Y13783699D01*
X52540112Y13794903D01*
X52712790Y13851009D01*
X52874566Y13933438D01*
X53021455Y14040159D01*
X53149841Y14168545D01*
X53256562Y14315434D01*
X53338991Y14477210D01*
X53395097Y14649888D01*
X53423500Y14829218D01*
X53423500Y15010782D01*
X53395097Y15190112D01*
X53338991Y15362790D01*
X53256562Y15524566D01*
X53149841Y15671455D01*
X53149838Y15671458D01*
X53149836Y15671461D01*
X53021460Y15799837D01*
X53021457Y15799839D01*
X53021455Y15799841D01*
X52874566Y15906562D01*
X52712790Y15988991D01*
X52712787Y15988992D01*
X52712785Y15988993D01*
X52540115Y16045096D01*
X52540119Y16045096D01*
X52506732Y16050384D01*
X52360782Y16073500D01*
X52179218Y16073500D01*
X51999888Y16045097D01*
X51999882Y16045096D01*
X51827214Y15988993D01*
X51827208Y15988990D01*
X51665430Y15906560D01*
X51518542Y15799839D01*
X51518539Y15799837D01*
X51390163Y15671461D01*
X51390161Y15671458D01*
X51283440Y15524570D01*
X51201010Y15362792D01*
X51201007Y15362786D01*
X51144904Y15190118D01*
X51144903Y15190113D01*
X51144903Y15190112D01*
X51128410Y15085974D01*
X51124449Y15060967D01*
X51094036Y14996814D01*
X51033768Y14959287D01*
X50962779Y14960301D01*
X50903607Y14999534D01*
X50875551Y15060967D01*
X50855097Y15190112D01*
X50798991Y15362790D01*
X50716562Y15524566D01*
X50609841Y15671455D01*
X50609838Y15671458D01*
X50609836Y15671461D01*
X50481460Y15799837D01*
X50481457Y15799839D01*
X50481455Y15799841D01*
X50334566Y15906562D01*
X50172790Y15988991D01*
X50172787Y15988992D01*
X50172785Y15988993D01*
X50000115Y16045096D01*
X50000119Y16045096D01*
X49966732Y16050384D01*
X49820782Y16073500D01*
X49639218Y16073500D01*
X49459888Y16045097D01*
X49459882Y16045096D01*
X49287214Y15988993D01*
X49287208Y15988990D01*
X49125430Y15906560D01*
X48978542Y15799839D01*
X48978539Y15799837D01*
X48850163Y15671461D01*
X48850161Y15671458D01*
X48743440Y15524570D01*
X48661010Y15362792D01*
X48661007Y15362786D01*
X48604904Y15190118D01*
X48604903Y15190113D01*
X48604903Y15190112D01*
X48588410Y15085974D01*
X48584449Y15060967D01*
X48554036Y14996814D01*
X48493768Y14959287D01*
X48422779Y14960301D01*
X48363607Y14999534D01*
X48335551Y15060967D01*
X48315097Y15190112D01*
X48258991Y15362790D01*
X48176562Y15524566D01*
X48069841Y15671455D01*
X48069838Y15671458D01*
X48069836Y15671461D01*
X47941460Y15799837D01*
X47941457Y15799839D01*
X47941455Y15799841D01*
X47794566Y15906562D01*
X47632790Y15988991D01*
X47632787Y15988992D01*
X47632785Y15988993D01*
X47460115Y16045096D01*
X47460119Y16045096D01*
X47426732Y16050384D01*
X47280782Y16073500D01*
X47099218Y16073500D01*
X46919888Y16045097D01*
X46919882Y16045096D01*
X46747214Y15988993D01*
X46747208Y15988990D01*
X46585430Y15906560D01*
X46438542Y15799839D01*
X46438539Y15799837D01*
X46310163Y15671461D01*
X46310161Y15671458D01*
X46203440Y15524570D01*
X46121010Y15362792D01*
X46121007Y15362786D01*
X46064904Y15190118D01*
X46064903Y15190113D01*
X46064903Y15190112D01*
X46048410Y15085974D01*
X46044449Y15060967D01*
X46014036Y14996814D01*
X45953768Y14959287D01*
X45882779Y14960301D01*
X45823607Y14999534D01*
X45795551Y15060967D01*
X45775097Y15190112D01*
X45718991Y15362790D01*
X45636562Y15524566D01*
X45529841Y15671455D01*
X45529838Y15671458D01*
X45529836Y15671461D01*
X45401460Y15799837D01*
X45401457Y15799839D01*
X45401455Y15799841D01*
X45254566Y15906562D01*
X45092790Y15988991D01*
X45092787Y15988992D01*
X45092785Y15988993D01*
X44920115Y16045096D01*
X44920119Y16045096D01*
X44886732Y16050384D01*
X44740782Y16073500D01*
X44559218Y16073500D01*
X44379888Y16045097D01*
X44379882Y16045096D01*
X44207214Y15988993D01*
X44207208Y15988990D01*
X44045430Y15906560D01*
X43898542Y15799839D01*
X43898539Y15799837D01*
X43770163Y15671461D01*
X43770161Y15671458D01*
X43663440Y15524570D01*
X43581010Y15362792D01*
X43581007Y15362786D01*
X43524904Y15190118D01*
X43524903Y15190113D01*
X43524903Y15190112D01*
X43508410Y15085974D01*
X43504449Y15060967D01*
X43474036Y14996814D01*
X43413768Y14959287D01*
X43342779Y14960301D01*
X43283607Y14999534D01*
X43255551Y15060967D01*
X43235097Y15190112D01*
X43178991Y15362790D01*
X43096562Y15524566D01*
X42989841Y15671455D01*
X42989838Y15671458D01*
X42989836Y15671461D01*
X42861460Y15799837D01*
X42861457Y15799839D01*
X42861455Y15799841D01*
X42714566Y15906562D01*
X42552790Y15988991D01*
X42552787Y15988992D01*
X42552785Y15988993D01*
X42380115Y16045096D01*
X42380119Y16045096D01*
X42346732Y16050384D01*
X42200782Y16073500D01*
X42019218Y16073500D01*
X41839888Y16045097D01*
X41839882Y16045096D01*
X41667214Y15988993D01*
X41667208Y15988990D01*
X41505430Y15906560D01*
X41358542Y15799839D01*
X41358539Y15799837D01*
X41230163Y15671461D01*
X41230161Y15671458D01*
X41123440Y15524570D01*
X41041010Y15362792D01*
X41041007Y15362786D01*
X40984904Y15190118D01*
X40984903Y15190113D01*
X40984903Y15190112D01*
X40968410Y15085974D01*
X40964449Y15060967D01*
X40934036Y14996814D01*
X40873768Y14959287D01*
X40802779Y14960301D01*
X40743607Y14999534D01*
X40715551Y15060967D01*
X40695097Y15190112D01*
X40638991Y15362790D01*
X40556562Y15524566D01*
X40449841Y15671455D01*
X40449838Y15671458D01*
X40449836Y15671461D01*
X40321460Y15799837D01*
X40321457Y15799839D01*
X40321455Y15799841D01*
X40174566Y15906562D01*
X40012790Y15988991D01*
X40012787Y15988992D01*
X40012785Y15988993D01*
X39840115Y16045096D01*
X39840119Y16045096D01*
X39806732Y16050384D01*
X39660782Y16073500D01*
X39479218Y16073500D01*
X39299888Y16045097D01*
X39299882Y16045096D01*
X39127214Y15988993D01*
X39127208Y15988990D01*
X38965430Y15906560D01*
X38818542Y15799839D01*
X38818539Y15799837D01*
X38690163Y15671461D01*
X38690161Y15671458D01*
X38583440Y15524570D01*
X38501010Y15362792D01*
X38501007Y15362786D01*
X38444904Y15190118D01*
X38444903Y15190113D01*
X38444903Y15190112D01*
X38428410Y15085974D01*
X38424449Y15060967D01*
X38394036Y14996814D01*
X38333768Y14959287D01*
X38262779Y14960301D01*
X38203607Y14999534D01*
X38175551Y15060967D01*
X38155097Y15190112D01*
X38098991Y15362790D01*
X38016562Y15524566D01*
X37909841Y15671455D01*
X37909838Y15671458D01*
X37909836Y15671461D01*
X37781460Y15799837D01*
X37781457Y15799839D01*
X37781455Y15799841D01*
X37634566Y15906562D01*
X37472790Y15988991D01*
X37472787Y15988992D01*
X37472785Y15988993D01*
X37300115Y16045096D01*
X37300119Y16045096D01*
X37266732Y16050384D01*
X37120782Y16073500D01*
X36939218Y16073500D01*
X36759888Y16045097D01*
X36759882Y16045096D01*
X36587214Y15988993D01*
X36587208Y15988990D01*
X36425430Y15906560D01*
X36278542Y15799839D01*
X36278539Y15799837D01*
X36150163Y15671461D01*
X36150161Y15671458D01*
X36043440Y15524570D01*
X35961010Y15362792D01*
X35961007Y15362786D01*
X35904904Y15190118D01*
X35904903Y15190113D01*
X35904903Y15190112D01*
X35888410Y15085974D01*
X35884449Y15060967D01*
X35854036Y14996814D01*
X35793768Y14959287D01*
X35722779Y14960301D01*
X35663607Y14999534D01*
X35635551Y15060967D01*
X35615097Y15190112D01*
X35558991Y15362790D01*
X35476562Y15524566D01*
X35369841Y15671455D01*
X35369838Y15671458D01*
X35369836Y15671461D01*
X35241460Y15799837D01*
X35241457Y15799839D01*
X35241455Y15799841D01*
X35094566Y15906562D01*
X34932790Y15988991D01*
X34932787Y15988992D01*
X34932785Y15988993D01*
X34760115Y16045096D01*
X34760119Y16045096D01*
X34726732Y16050384D01*
X34580782Y16073500D01*
X34399218Y16073500D01*
X34219888Y16045097D01*
X34219882Y16045096D01*
X34047214Y15988993D01*
X34047208Y15988990D01*
X33885430Y15906560D01*
X33738542Y15799839D01*
X33738539Y15799837D01*
X33610163Y15671461D01*
X33610161Y15671458D01*
X33503440Y15524570D01*
X33421010Y15362792D01*
X33421007Y15362786D01*
X33364904Y15190118D01*
X33364903Y15190113D01*
X33364903Y15190112D01*
X33348410Y15085974D01*
X33344449Y15060967D01*
X33314036Y14996814D01*
X33253768Y14959287D01*
X33182779Y14960301D01*
X33123607Y14999534D01*
X33095551Y15060967D01*
X33075097Y15190112D01*
X33018991Y15362790D01*
X32936562Y15524566D01*
X32829841Y15671455D01*
X32829838Y15671458D01*
X32829836Y15671461D01*
X32701460Y15799837D01*
X32701457Y15799839D01*
X32701455Y15799841D01*
X32554566Y15906562D01*
X32392790Y15988991D01*
X32392787Y15988992D01*
X32392785Y15988993D01*
X32220115Y16045096D01*
X32220119Y16045096D01*
X32186732Y16050384D01*
X32040782Y16073500D01*
X31859218Y16073500D01*
X31679888Y16045097D01*
X31679882Y16045096D01*
X31507214Y15988993D01*
X31507208Y15988990D01*
X31345430Y15906560D01*
X31198542Y15799839D01*
X31198539Y15799837D01*
X31070163Y15671461D01*
X31070161Y15671458D01*
X30963440Y15524570D01*
X30881010Y15362792D01*
X30881007Y15362786D01*
X30824904Y15190118D01*
X30824903Y15190113D01*
X30824903Y15190112D01*
X30808410Y15085974D01*
X30804449Y15060967D01*
X30774036Y14996814D01*
X30713768Y14959287D01*
X30642779Y14960301D01*
X30583607Y14999534D01*
X30555551Y15060967D01*
X30535097Y15190112D01*
X30478991Y15362790D01*
X30396562Y15524566D01*
X30289841Y15671455D01*
X30289838Y15671458D01*
X30289836Y15671461D01*
X30161460Y15799837D01*
X30161457Y15799839D01*
X30161455Y15799841D01*
X30014566Y15906562D01*
X29852790Y15988991D01*
X29852787Y15988992D01*
X29852785Y15988993D01*
X29680115Y16045096D01*
X29680119Y16045096D01*
X29646732Y16050384D01*
X29500782Y16073500D01*
X29319218Y16073500D01*
X29139888Y16045097D01*
X29139882Y16045096D01*
X28967214Y15988993D01*
X28967208Y15988990D01*
X28805430Y15906560D01*
X28658542Y15799839D01*
X28658539Y15799837D01*
X28530163Y15671461D01*
X28530161Y15671458D01*
X28423440Y15524570D01*
X28341010Y15362792D01*
X28341007Y15362786D01*
X28284904Y15190119D01*
X28264195Y15059368D01*
X28233782Y14995216D01*
X28173513Y14957689D01*
X28102524Y14958703D01*
X28043352Y14997936D01*
X28015297Y15059370D01*
X27994607Y15190000D01*
X27938528Y15362594D01*
X27938523Y15362606D01*
X27856137Y15524299D01*
X27846614Y15537406D01*
X27297003Y14987795D01*
X27270696Y15085974D01*
X27214085Y15184026D01*
X27134026Y15264085D01*
X27035974Y15320696D01*
X26937793Y15347004D01*
X27487405Y15896617D01*
X27474306Y15906132D01*
X27474296Y15906139D01*
X27312605Y15988524D01*
X27312593Y15988529D01*
X27140000Y16044608D01*
X26960740Y16073000D01*
X26779260Y16073000D01*
X26599999Y16044608D01*
X26427406Y15988529D01*
X26427400Y15988526D01*
X26265692Y15906132D01*
X26265691Y15906132D01*
X26252593Y15896616D01*
X26802205Y15347004D01*
X26704026Y15320696D01*
X26605974Y15264085D01*
X26525915Y15184026D01*
X26469304Y15085974D01*
X26442996Y14987795D01*
X25893384Y15537407D01*
X25883868Y15524309D01*
X25883868Y15524308D01*
X25801474Y15362600D01*
X25801471Y15362594D01*
X25745392Y15190001D01*
X25717000Y15010740D01*
X7374434Y15010740D01*
X7373587Y15015000D01*
X7373585Y15015004D01*
X7344188Y15085974D01*
X7305102Y15180336D01*
X7205678Y15329135D01*
X7079135Y15455678D01*
X6930336Y15555102D01*
X6813429Y15603527D01*
X6765003Y15623586D01*
X6765001Y15623587D01*
X6765000Y15623587D01*
X6676645Y15641162D01*
X6589481Y15658500D01*
X6589479Y15658500D01*
X6410521Y15658500D01*
X6410518Y15658500D01*
X6279771Y15632493D01*
X6235000Y15623587D01*
X6234999Y15623587D01*
X6234996Y15623586D01*
X6069662Y15555101D01*
X5920869Y15455681D01*
X5920862Y15455676D01*
X5794324Y15329138D01*
X5794319Y15329131D01*
X5694899Y15180338D01*
X5626414Y15015004D01*
X5626414Y15015003D01*
X5626413Y15015000D01*
X5618777Y14976611D01*
X5591500Y14839482D01*
X500000Y14839482D01*
X500000Y25773650D01*
X25716500Y25773650D01*
X25716500Y24386351D01*
X25723009Y24325804D01*
X25723011Y24325796D01*
X25774110Y24188798D01*
X25774112Y24188793D01*
X25861738Y24071739D01*
X25978792Y23984113D01*
X25978794Y23984112D01*
X25978796Y23984111D01*
X26037875Y23962076D01*
X26115795Y23933012D01*
X26115803Y23933010D01*
X26176350Y23926501D01*
X26176355Y23926501D01*
X26176362Y23926500D01*
X26176368Y23926500D01*
X27563632Y23926500D01*
X27563638Y23926500D01*
X27563645Y23926501D01*
X27563649Y23926501D01*
X27624196Y23933010D01*
X27624199Y23933011D01*
X27624201Y23933011D01*
X27761204Y23984111D01*
X27797136Y24011009D01*
X27878261Y24071739D01*
X27965887Y24188793D01*
X27965887Y24188794D01*
X27965889Y24188796D01*
X28016989Y24325799D01*
X28017285Y24328545D01*
X28023499Y24386351D01*
X28023500Y24386368D01*
X28023500Y24859342D01*
X28043502Y24927463D01*
X28097158Y24973956D01*
X28167432Y24984060D01*
X28232012Y24954566D01*
X28270396Y24894840D01*
X28273946Y24879063D01*
X28284903Y24809888D01*
X28284904Y24809883D01*
X28341007Y24637215D01*
X28341009Y24637210D01*
X28423438Y24475434D01*
X28530159Y24328545D01*
X28530161Y24328543D01*
X28530163Y24328540D01*
X28658539Y24200164D01*
X28658542Y24200162D01*
X28658545Y24200159D01*
X28805434Y24093438D01*
X28967210Y24011009D01*
X29139882Y23954905D01*
X29139883Y23954905D01*
X29139888Y23954903D01*
X29319218Y23926500D01*
X29319221Y23926500D01*
X29500779Y23926500D01*
X29500782Y23926500D01*
X29680112Y23954903D01*
X29852790Y24011009D01*
X30014566Y24093438D01*
X30161455Y24200159D01*
X30289841Y24328545D01*
X30396562Y24475434D01*
X30478991Y24637210D01*
X30535097Y24809888D01*
X30555551Y24939037D01*
X30585963Y25003187D01*
X30646232Y25040714D01*
X30717221Y25039700D01*
X30776393Y25000467D01*
X30804447Y24939037D01*
X30824903Y24809888D01*
X30824904Y24809883D01*
X30881007Y24637215D01*
X30881009Y24637210D01*
X30963438Y24475434D01*
X31070159Y24328545D01*
X31070161Y24328543D01*
X31070163Y24328540D01*
X31198539Y24200164D01*
X31198542Y24200162D01*
X31198545Y24200159D01*
X31345434Y24093438D01*
X31507210Y24011009D01*
X31679882Y23954905D01*
X31679883Y23954905D01*
X31679888Y23954903D01*
X31859218Y23926500D01*
X31859221Y23926500D01*
X32040779Y23926500D01*
X32040782Y23926500D01*
X32220112Y23954903D01*
X32392790Y24011009D01*
X32554566Y24093438D01*
X32701455Y24200159D01*
X32829841Y24328545D01*
X32936562Y24475434D01*
X33018991Y24637210D01*
X33075097Y24809888D01*
X33095551Y24939037D01*
X33125963Y25003187D01*
X33186232Y25040714D01*
X33257221Y25039700D01*
X33316393Y25000467D01*
X33344447Y24939037D01*
X33364903Y24809888D01*
X33364904Y24809883D01*
X33421007Y24637215D01*
X33421009Y24637210D01*
X33503438Y24475434D01*
X33610159Y24328545D01*
X33610161Y24328543D01*
X33610163Y24328540D01*
X33738539Y24200164D01*
X33738542Y24200162D01*
X33738545Y24200159D01*
X33885434Y24093438D01*
X34047210Y24011009D01*
X34219882Y23954905D01*
X34219883Y23954905D01*
X34219888Y23954903D01*
X34399218Y23926500D01*
X34399221Y23926500D01*
X34580779Y23926500D01*
X34580782Y23926500D01*
X34760112Y23954903D01*
X34932790Y24011009D01*
X35094566Y24093438D01*
X35241455Y24200159D01*
X35369841Y24328545D01*
X35476562Y24475434D01*
X35558991Y24637210D01*
X35615097Y24809888D01*
X35635551Y24939037D01*
X35665963Y25003187D01*
X35726232Y25040714D01*
X35797221Y25039700D01*
X35856393Y25000467D01*
X35884447Y24939037D01*
X35904903Y24809888D01*
X35904904Y24809883D01*
X35961007Y24637215D01*
X35961009Y24637210D01*
X36043438Y24475434D01*
X36150159Y24328545D01*
X36150161Y24328543D01*
X36150163Y24328540D01*
X36278539Y24200164D01*
X36278542Y24200162D01*
X36278545Y24200159D01*
X36425434Y24093438D01*
X36587210Y24011009D01*
X36759882Y23954905D01*
X36759883Y23954905D01*
X36759888Y23954903D01*
X36939218Y23926500D01*
X36939221Y23926500D01*
X37120779Y23926500D01*
X37120782Y23926500D01*
X37300112Y23954903D01*
X37472790Y24011009D01*
X37634566Y24093438D01*
X37781455Y24200159D01*
X37909841Y24328545D01*
X38016562Y24475434D01*
X38098991Y24637210D01*
X38155097Y24809888D01*
X38175551Y24939037D01*
X38205963Y25003187D01*
X38266232Y25040714D01*
X38337221Y25039700D01*
X38396393Y25000467D01*
X38424447Y24939037D01*
X38444903Y24809888D01*
X38444904Y24809883D01*
X38501007Y24637215D01*
X38501009Y24637210D01*
X38583438Y24475434D01*
X38690159Y24328545D01*
X38690161Y24328543D01*
X38690163Y24328540D01*
X38818539Y24200164D01*
X38818542Y24200162D01*
X38818545Y24200159D01*
X38965434Y24093438D01*
X39127210Y24011009D01*
X39299882Y23954905D01*
X39299883Y23954905D01*
X39299888Y23954903D01*
X39479218Y23926500D01*
X39479221Y23926500D01*
X39660779Y23926500D01*
X39660782Y23926500D01*
X39840112Y23954903D01*
X40012790Y24011009D01*
X40174566Y24093438D01*
X40321455Y24200159D01*
X40449841Y24328545D01*
X40556562Y24475434D01*
X40638991Y24637210D01*
X40695097Y24809888D01*
X40715551Y24939037D01*
X40745963Y25003187D01*
X40806232Y25040714D01*
X40877221Y25039700D01*
X40936393Y25000467D01*
X40964447Y24939037D01*
X40984903Y24809888D01*
X40984904Y24809883D01*
X41041007Y24637215D01*
X41041009Y24637210D01*
X41123438Y24475434D01*
X41230159Y24328545D01*
X41230161Y24328543D01*
X41230163Y24328540D01*
X41358539Y24200164D01*
X41358542Y24200162D01*
X41358545Y24200159D01*
X41505434Y24093438D01*
X41667210Y24011009D01*
X41839882Y23954905D01*
X41839883Y23954905D01*
X41839888Y23954903D01*
X42019218Y23926500D01*
X42019221Y23926500D01*
X42200779Y23926500D01*
X42200782Y23926500D01*
X42380112Y23954903D01*
X42552790Y24011009D01*
X42714566Y24093438D01*
X42861455Y24200159D01*
X42989841Y24328545D01*
X43096562Y24475434D01*
X43178991Y24637210D01*
X43235097Y24809888D01*
X43255551Y24939037D01*
X43285963Y25003187D01*
X43346232Y25040714D01*
X43417221Y25039700D01*
X43476393Y25000467D01*
X43504447Y24939037D01*
X43524903Y24809888D01*
X43524904Y24809883D01*
X43581007Y24637215D01*
X43581009Y24637210D01*
X43663438Y24475434D01*
X43770159Y24328545D01*
X43770161Y24328543D01*
X43770163Y24328540D01*
X43898539Y24200164D01*
X43898542Y24200162D01*
X43898545Y24200159D01*
X44045434Y24093438D01*
X44207210Y24011009D01*
X44379882Y23954905D01*
X44379883Y23954905D01*
X44379888Y23954903D01*
X44559218Y23926500D01*
X44559221Y23926500D01*
X44740779Y23926500D01*
X44740782Y23926500D01*
X44920112Y23954903D01*
X45092790Y24011009D01*
X45254566Y24093438D01*
X45401455Y24200159D01*
X45529841Y24328545D01*
X45636562Y24475434D01*
X45718991Y24637210D01*
X45775097Y24809888D01*
X45795551Y24939037D01*
X45825963Y25003187D01*
X45886232Y25040714D01*
X45957221Y25039700D01*
X46016393Y25000467D01*
X46044447Y24939037D01*
X46064903Y24809888D01*
X46064904Y24809883D01*
X46121007Y24637215D01*
X46121009Y24637210D01*
X46203438Y24475434D01*
X46310159Y24328545D01*
X46310161Y24328543D01*
X46310163Y24328540D01*
X46438539Y24200164D01*
X46438542Y24200162D01*
X46438545Y24200159D01*
X46585434Y24093438D01*
X46747210Y24011009D01*
X46919882Y23954905D01*
X46919883Y23954905D01*
X46919888Y23954903D01*
X47099218Y23926500D01*
X47099221Y23926500D01*
X47280779Y23926500D01*
X47280782Y23926500D01*
X47460112Y23954903D01*
X47632790Y24011009D01*
X47794566Y24093438D01*
X47941455Y24200159D01*
X48069841Y24328545D01*
X48176562Y24475434D01*
X48258991Y24637210D01*
X48315097Y24809888D01*
X48335551Y24939037D01*
X48365963Y25003187D01*
X48426232Y25040714D01*
X48497221Y25039700D01*
X48556393Y25000467D01*
X48584447Y24939037D01*
X48604903Y24809888D01*
X48604904Y24809883D01*
X48661007Y24637215D01*
X48661009Y24637210D01*
X48743438Y24475434D01*
X48850159Y24328545D01*
X48850161Y24328543D01*
X48850163Y24328540D01*
X48978539Y24200164D01*
X48978542Y24200162D01*
X48978545Y24200159D01*
X49125434Y24093438D01*
X49287210Y24011009D01*
X49459882Y23954905D01*
X49459883Y23954905D01*
X49459888Y23954903D01*
X49639218Y23926500D01*
X49639221Y23926500D01*
X49820779Y23926500D01*
X49820782Y23926500D01*
X50000112Y23954903D01*
X50172790Y24011009D01*
X50334566Y24093438D01*
X50481455Y24200159D01*
X50609841Y24328545D01*
X50716562Y24475434D01*
X50798991Y24637210D01*
X50855097Y24809888D01*
X50875551Y24939037D01*
X50905963Y25003187D01*
X50966232Y25040714D01*
X51037221Y25039700D01*
X51096393Y25000467D01*
X51124447Y24939037D01*
X51144903Y24809888D01*
X51144904Y24809883D01*
X51201007Y24637215D01*
X51201009Y24637210D01*
X51283438Y24475434D01*
X51390159Y24328545D01*
X51390161Y24328543D01*
X51390163Y24328540D01*
X51518539Y24200164D01*
X51518542Y24200162D01*
X51518545Y24200159D01*
X51665434Y24093438D01*
X51827210Y24011009D01*
X51999882Y23954905D01*
X51999883Y23954905D01*
X51999888Y23954903D01*
X52179218Y23926500D01*
X52179221Y23926500D01*
X52360779Y23926500D01*
X52360782Y23926500D01*
X52540112Y23954903D01*
X52712790Y24011009D01*
X52874566Y24093438D01*
X53021455Y24200159D01*
X53149841Y24328545D01*
X53256562Y24475434D01*
X53338991Y24637210D01*
X53395097Y24809888D01*
X53423500Y24989218D01*
X53423500Y25170782D01*
X53395097Y25350112D01*
X53338991Y25522790D01*
X53256562Y25684566D01*
X53149841Y25831455D01*
X53149838Y25831458D01*
X53149836Y25831461D01*
X53021460Y25959837D01*
X53021457Y25959839D01*
X53021455Y25959841D01*
X52874566Y26066562D01*
X52712790Y26148991D01*
X52712787Y26148992D01*
X52712785Y26148993D01*
X52540118Y26205096D01*
X52469373Y26216301D01*
X52405220Y26246714D01*
X52367694Y26306983D01*
X52368709Y26377972D01*
X52407942Y26437144D01*
X52431877Y26453014D01*
X52525803Y26500871D01*
X52692430Y26621932D01*
X52838068Y26767570D01*
X52959129Y26934197D01*
X52997734Y27009966D01*
X53046481Y27061578D01*
X53115396Y27078644D01*
X53182598Y27055743D01*
X53222264Y27009966D01*
X53260871Y26934197D01*
X53381932Y26767570D01*
X53381934Y26767568D01*
X53381936Y26767565D01*
X53527564Y26621937D01*
X53527567Y26621935D01*
X53527570Y26621932D01*
X53694197Y26500871D01*
X53877710Y26407366D01*
X54073592Y26343720D01*
X54277019Y26311500D01*
X54277022Y26311500D01*
X54482978Y26311500D01*
X54482981Y26311500D01*
X54686408Y26343720D01*
X54882290Y26407366D01*
X55065803Y26500871D01*
X55232430Y26621932D01*
X55378068Y26767570D01*
X55499129Y26934197D01*
X55537734Y27009966D01*
X55586481Y27061578D01*
X55655396Y27078644D01*
X55722598Y27055743D01*
X55762264Y27009966D01*
X55800871Y26934197D01*
X55921932Y26767570D01*
X55921934Y26767568D01*
X55921936Y26767565D01*
X56067564Y26621937D01*
X56067567Y26621935D01*
X56067570Y26621932D01*
X56234197Y26500871D01*
X56417710Y26407366D01*
X56613592Y26343720D01*
X56817019Y26311500D01*
X56817022Y26311500D01*
X57022978Y26311500D01*
X57022981Y26311500D01*
X57226408Y26343720D01*
X57422290Y26407366D01*
X57605803Y26500871D01*
X57772430Y26621932D01*
X57918068Y26767570D01*
X58039129Y26934197D01*
X58077734Y27009966D01*
X58126481Y27061578D01*
X58195396Y27078644D01*
X58262598Y27055743D01*
X58302264Y27009966D01*
X58340871Y26934197D01*
X58461932Y26767570D01*
X58461934Y26767568D01*
X58461936Y26767565D01*
X58607564Y26621937D01*
X58607567Y26621935D01*
X58607570Y26621932D01*
X58774197Y26500871D01*
X58957710Y26407366D01*
X59153592Y26343720D01*
X59357019Y26311500D01*
X59357022Y26311500D01*
X59562978Y26311500D01*
X59562981Y26311500D01*
X59766408Y26343720D01*
X59962290Y26407366D01*
X60145803Y26500871D01*
X60312430Y26621932D01*
X60458068Y26767570D01*
X60579129Y26934197D01*
X60617734Y27009966D01*
X60666481Y27061578D01*
X60735396Y27078644D01*
X60802598Y27055743D01*
X60842264Y27009966D01*
X60880871Y26934197D01*
X61001932Y26767570D01*
X61001934Y26767568D01*
X61001936Y26767565D01*
X61147564Y26621937D01*
X61147567Y26621935D01*
X61147570Y26621932D01*
X61314197Y26500871D01*
X61497710Y26407366D01*
X61693592Y26343720D01*
X61897019Y26311500D01*
X61897022Y26311500D01*
X62102978Y26311500D01*
X62102981Y26311500D01*
X62306408Y26343720D01*
X62502290Y26407366D01*
X62685803Y26500871D01*
X62852430Y26621932D01*
X62998068Y26767570D01*
X63119129Y26934197D01*
X63157734Y27009966D01*
X63206481Y27061578D01*
X63275396Y27078644D01*
X63342598Y27055743D01*
X63382264Y27009966D01*
X63420871Y26934197D01*
X63541932Y26767570D01*
X63541934Y26767568D01*
X63541936Y26767565D01*
X63687564Y26621937D01*
X63687567Y26621935D01*
X63687570Y26621932D01*
X63854197Y26500871D01*
X64037710Y26407366D01*
X64233592Y26343720D01*
X64437019Y26311500D01*
X64437022Y26311500D01*
X64642978Y26311500D01*
X64642981Y26311500D01*
X64846408Y26343720D01*
X65042290Y26407366D01*
X65225803Y26500871D01*
X65392430Y26621932D01*
X65392435Y26621937D01*
X65440033Y26669534D01*
X65538063Y26767565D01*
X65538068Y26767570D01*
X65659129Y26934197D01*
X65698014Y27010514D01*
X65746759Y27062126D01*
X65815674Y27079193D01*
X65882876Y27056293D01*
X65922545Y27010513D01*
X65961294Y26934465D01*
X65961298Y26934459D01*
X65992416Y26891628D01*
X66555016Y27454229D01*
X66567482Y27407708D01*
X66639890Y27282292D01*
X66742292Y27179890D01*
X66867708Y27107482D01*
X66914226Y27095018D01*
X66351626Y26532418D01*
X66351626Y26532417D01*
X66394454Y26501301D01*
X66577900Y26407830D01*
X66577906Y26407827D01*
X66773705Y26344209D01*
X66773701Y26344209D01*
X66977061Y26312000D01*
X67182939Y26312000D01*
X67386296Y26344209D01*
X67582093Y26407827D01*
X67582099Y26407830D01*
X67765541Y26501299D01*
X67808372Y26532418D01*
X67808372Y26532419D01*
X67245773Y27095018D01*
X67292292Y27107482D01*
X67417708Y27179890D01*
X67520110Y27282292D01*
X67592518Y27407708D01*
X67604982Y27454227D01*
X68167581Y26891628D01*
X68167582Y26891628D01*
X68198701Y26934459D01*
X68292170Y27117901D01*
X68292173Y27117907D01*
X68355791Y27313704D01*
X68388000Y27517062D01*
X68388000Y27722939D01*
X68355791Y27926297D01*
X68292173Y28122094D01*
X68292170Y28122100D01*
X68198699Y28305546D01*
X68167583Y28348374D01*
X68167582Y28348374D01*
X67604982Y27785774D01*
X67592518Y27832292D01*
X67520110Y27957708D01*
X67417708Y28060110D01*
X67292292Y28132518D01*
X67245772Y28144984D01*
X67808372Y28707584D01*
X67765541Y28738702D01*
X67765540Y28738703D01*
X67582099Y28832171D01*
X67582093Y28832174D01*
X67386294Y28895792D01*
X67386298Y28895792D01*
X67182939Y28928000D01*
X66977061Y28928000D01*
X66773703Y28895792D01*
X66577906Y28832174D01*
X66577900Y28832171D01*
X66394452Y28738699D01*
X66351625Y28707584D01*
X66914226Y28144983D01*
X66867708Y28132518D01*
X66742292Y28060110D01*
X66639890Y27957708D01*
X66567482Y27832292D01*
X66555017Y27785774D01*
X65992416Y28348375D01*
X65961301Y28305547D01*
X65961299Y28305544D01*
X65922546Y28229488D01*
X65873798Y28177873D01*
X65804883Y28160808D01*
X65737681Y28183709D01*
X65698013Y28229489D01*
X65659127Y28305807D01*
X65595588Y28393259D01*
X65538068Y28472430D01*
X65538065Y28472433D01*
X65538063Y28472436D01*
X65392435Y28618064D01*
X65392432Y28618066D01*
X65392430Y28618068D01*
X65226391Y28738702D01*
X65225806Y28739127D01*
X65225805Y28739128D01*
X65225803Y28739129D01*
X65042290Y28832634D01*
X65042287Y28832635D01*
X65042285Y28832636D01*
X64846412Y28896279D01*
X64846410Y28896280D01*
X64846408Y28896280D01*
X64642981Y28928500D01*
X64437019Y28928500D01*
X64233592Y28896280D01*
X64233590Y28896280D01*
X64233587Y28896279D01*
X64037714Y28832636D01*
X64037708Y28832633D01*
X63854193Y28739127D01*
X63687567Y28618066D01*
X63687564Y28618064D01*
X63541936Y28472436D01*
X63541934Y28472433D01*
X63420873Y28305807D01*
X63382267Y28230038D01*
X63333518Y28178423D01*
X63264603Y28161357D01*
X63197402Y28184258D01*
X63157733Y28230038D01*
X63154173Y28237025D01*
X63119129Y28305803D01*
X62998068Y28472430D01*
X62998065Y28472433D01*
X62998063Y28472436D01*
X62852435Y28618064D01*
X62852432Y28618066D01*
X62852430Y28618068D01*
X62686391Y28738702D01*
X62685806Y28739127D01*
X62685805Y28739128D01*
X62685803Y28739129D01*
X62502290Y28832634D01*
X62502287Y28832635D01*
X62502285Y28832636D01*
X62306412Y28896279D01*
X62306410Y28896280D01*
X62306408Y28896280D01*
X62102981Y28928500D01*
X61897019Y28928500D01*
X61693592Y28896280D01*
X61693590Y28896280D01*
X61693587Y28896279D01*
X61497714Y28832636D01*
X61497708Y28832633D01*
X61314193Y28739127D01*
X61147567Y28618066D01*
X61147564Y28618064D01*
X61001936Y28472436D01*
X61001934Y28472433D01*
X60880873Y28305807D01*
X60842267Y28230038D01*
X60793518Y28178423D01*
X60724603Y28161357D01*
X60657402Y28184258D01*
X60617733Y28230038D01*
X60614173Y28237025D01*
X60579129Y28305803D01*
X60458068Y28472430D01*
X60458065Y28472433D01*
X60458063Y28472436D01*
X60312435Y28618064D01*
X60312432Y28618066D01*
X60312430Y28618068D01*
X60146391Y28738702D01*
X60145806Y28739127D01*
X60145805Y28739128D01*
X60145803Y28739129D01*
X59962290Y28832634D01*
X59962287Y28832635D01*
X59962285Y28832636D01*
X59766412Y28896279D01*
X59766410Y28896280D01*
X59766408Y28896280D01*
X59562981Y28928500D01*
X59357019Y28928500D01*
X59153592Y28896280D01*
X59153590Y28896280D01*
X59153587Y28896279D01*
X58957714Y28832636D01*
X58957708Y28832633D01*
X58774193Y28739127D01*
X58607567Y28618066D01*
X58607564Y28618064D01*
X58461936Y28472436D01*
X58461934Y28472433D01*
X58340873Y28305807D01*
X58302267Y28230038D01*
X58253518Y28178423D01*
X58184603Y28161357D01*
X58117402Y28184258D01*
X58077733Y28230038D01*
X58074173Y28237025D01*
X58039129Y28305803D01*
X57918068Y28472430D01*
X57918065Y28472433D01*
X57918063Y28472436D01*
X57772435Y28618064D01*
X57772432Y28618066D01*
X57772430Y28618068D01*
X57606391Y28738702D01*
X57605806Y28739127D01*
X57605805Y28739128D01*
X57605803Y28739129D01*
X57422290Y28832634D01*
X57422287Y28832635D01*
X57422285Y28832636D01*
X57226412Y28896279D01*
X57226410Y28896280D01*
X57226408Y28896280D01*
X57022981Y28928500D01*
X56817019Y28928500D01*
X56613592Y28896280D01*
X56613590Y28896280D01*
X56613587Y28896279D01*
X56417714Y28832636D01*
X56417708Y28832633D01*
X56234193Y28739127D01*
X56067567Y28618066D01*
X56067564Y28618064D01*
X55921936Y28472436D01*
X55921934Y28472433D01*
X55800873Y28305807D01*
X55762267Y28230038D01*
X55713518Y28178423D01*
X55644603Y28161357D01*
X55577402Y28184258D01*
X55537733Y28230038D01*
X55534173Y28237025D01*
X55499129Y28305803D01*
X55378068Y28472430D01*
X55378065Y28472433D01*
X55378063Y28472436D01*
X55232435Y28618064D01*
X55232432Y28618066D01*
X55232430Y28618068D01*
X55066391Y28738702D01*
X55065806Y28739127D01*
X55065805Y28739128D01*
X55065803Y28739129D01*
X54882290Y28832634D01*
X54882287Y28832635D01*
X54882285Y28832636D01*
X54686412Y28896279D01*
X54686410Y28896280D01*
X54686408Y28896280D01*
X54482981Y28928500D01*
X54277019Y28928500D01*
X54073592Y28896280D01*
X54073590Y28896280D01*
X54073587Y28896279D01*
X53877714Y28832636D01*
X53877708Y28832633D01*
X53694193Y28739127D01*
X53527567Y28618066D01*
X53527564Y28618064D01*
X53381936Y28472436D01*
X53381934Y28472433D01*
X53260873Y28305807D01*
X53222267Y28230038D01*
X53173518Y28178423D01*
X53104603Y28161357D01*
X53037402Y28184258D01*
X52997733Y28230038D01*
X52994173Y28237025D01*
X52959129Y28305803D01*
X52838068Y28472430D01*
X52838065Y28472433D01*
X52838063Y28472436D01*
X52692435Y28618064D01*
X52692432Y28618066D01*
X52692430Y28618068D01*
X52526391Y28738702D01*
X52525806Y28739127D01*
X52525805Y28739128D01*
X52525803Y28739129D01*
X52342290Y28832634D01*
X52342287Y28832635D01*
X52342285Y28832636D01*
X52146412Y28896279D01*
X52146410Y28896280D01*
X52146408Y28896280D01*
X51942981Y28928500D01*
X51737019Y28928500D01*
X51533592Y28896280D01*
X51533590Y28896280D01*
X51533587Y28896279D01*
X51337714Y28832636D01*
X51337708Y28832633D01*
X51154193Y28739127D01*
X50987567Y28618066D01*
X50987564Y28618064D01*
X50841936Y28472436D01*
X50841934Y28472433D01*
X50720873Y28305807D01*
X50682267Y28230038D01*
X50633518Y28178423D01*
X50564603Y28161357D01*
X50497402Y28184258D01*
X50457733Y28230038D01*
X50454173Y28237025D01*
X50419129Y28305803D01*
X50298068Y28472430D01*
X50298065Y28472433D01*
X50298063Y28472436D01*
X50152435Y28618064D01*
X50152432Y28618066D01*
X50152430Y28618068D01*
X49986391Y28738702D01*
X49985806Y28739127D01*
X49985805Y28739128D01*
X49985803Y28739129D01*
X49802290Y28832634D01*
X49802287Y28832635D01*
X49802285Y28832636D01*
X49606412Y28896279D01*
X49606410Y28896280D01*
X49606408Y28896280D01*
X49402981Y28928500D01*
X49197019Y28928500D01*
X48993592Y28896280D01*
X48993590Y28896280D01*
X48993587Y28896279D01*
X48797714Y28832636D01*
X48797708Y28832633D01*
X48614193Y28739127D01*
X48447567Y28618066D01*
X48447564Y28618064D01*
X48301936Y28472436D01*
X48301934Y28472433D01*
X48180873Y28305807D01*
X48142267Y28230038D01*
X48093518Y28178423D01*
X48024603Y28161357D01*
X47957402Y28184258D01*
X47917733Y28230038D01*
X47914173Y28237025D01*
X47879129Y28305803D01*
X47758068Y28472430D01*
X47758065Y28472433D01*
X47758063Y28472436D01*
X47612435Y28618064D01*
X47612432Y28618066D01*
X47612430Y28618068D01*
X47446391Y28738702D01*
X47445806Y28739127D01*
X47445805Y28739128D01*
X47445803Y28739129D01*
X47262290Y28832634D01*
X47262287Y28832635D01*
X47262285Y28832636D01*
X47066412Y28896279D01*
X47066410Y28896280D01*
X47066408Y28896280D01*
X46862981Y28928500D01*
X46657019Y28928500D01*
X46453592Y28896280D01*
X46453590Y28896280D01*
X46453587Y28896279D01*
X46257714Y28832636D01*
X46257708Y28832633D01*
X46074193Y28739127D01*
X45907567Y28618066D01*
X45907564Y28618064D01*
X45761936Y28472436D01*
X45761934Y28472433D01*
X45640873Y28305807D01*
X45602267Y28230038D01*
X45553518Y28178423D01*
X45484603Y28161357D01*
X45417402Y28184258D01*
X45377733Y28230038D01*
X45374173Y28237025D01*
X45339129Y28305803D01*
X45218068Y28472430D01*
X45218065Y28472433D01*
X45218063Y28472436D01*
X45072435Y28618064D01*
X45072432Y28618066D01*
X45072430Y28618068D01*
X44906391Y28738702D01*
X44905806Y28739127D01*
X44905805Y28739128D01*
X44905803Y28739129D01*
X44722290Y28832634D01*
X44722287Y28832635D01*
X44722285Y28832636D01*
X44526412Y28896279D01*
X44526410Y28896280D01*
X44526408Y28896280D01*
X44322981Y28928500D01*
X44117019Y28928500D01*
X43913592Y28896280D01*
X43913590Y28896280D01*
X43913587Y28896279D01*
X43717714Y28832636D01*
X43717708Y28832633D01*
X43534193Y28739127D01*
X43367567Y28618066D01*
X43367564Y28618064D01*
X43221936Y28472436D01*
X43221934Y28472433D01*
X43100873Y28305807D01*
X43062267Y28230038D01*
X43013518Y28178423D01*
X42944603Y28161357D01*
X42877402Y28184258D01*
X42837733Y28230038D01*
X42834173Y28237025D01*
X42799129Y28305803D01*
X42678068Y28472430D01*
X42678065Y28472433D01*
X42678063Y28472436D01*
X42532435Y28618064D01*
X42532432Y28618066D01*
X42532430Y28618068D01*
X42366391Y28738702D01*
X42365806Y28739127D01*
X42365805Y28739128D01*
X42365803Y28739129D01*
X42182290Y28832634D01*
X42182287Y28832635D01*
X42182285Y28832636D01*
X41986412Y28896279D01*
X41986410Y28896280D01*
X41986408Y28896280D01*
X41782981Y28928500D01*
X41577019Y28928500D01*
X41373592Y28896280D01*
X41373590Y28896280D01*
X41373587Y28896279D01*
X41177714Y28832636D01*
X41177708Y28832633D01*
X40994193Y28739127D01*
X40827567Y28618066D01*
X40827564Y28618064D01*
X40681936Y28472436D01*
X40681934Y28472433D01*
X40560873Y28305807D01*
X40522267Y28230038D01*
X40473518Y28178423D01*
X40404603Y28161357D01*
X40337402Y28184258D01*
X40297733Y28230038D01*
X40294173Y28237025D01*
X40259129Y28305803D01*
X40138068Y28472430D01*
X40138065Y28472433D01*
X40138063Y28472436D01*
X39992435Y28618064D01*
X39992432Y28618066D01*
X39992430Y28618068D01*
X39826391Y28738702D01*
X39825806Y28739127D01*
X39825805Y28739128D01*
X39825803Y28739129D01*
X39642290Y28832634D01*
X39642287Y28832635D01*
X39642285Y28832636D01*
X39446412Y28896279D01*
X39446410Y28896280D01*
X39446408Y28896280D01*
X39242981Y28928500D01*
X39037019Y28928500D01*
X38833592Y28896280D01*
X38833590Y28896280D01*
X38833587Y28896279D01*
X38637714Y28832636D01*
X38637708Y28832633D01*
X38454193Y28739127D01*
X38287567Y28618066D01*
X38287564Y28618064D01*
X38141936Y28472436D01*
X38141934Y28472433D01*
X38020873Y28305807D01*
X37982267Y28230038D01*
X37933518Y28178423D01*
X37864603Y28161357D01*
X37797402Y28184258D01*
X37757733Y28230038D01*
X37754173Y28237025D01*
X37719129Y28305803D01*
X37598068Y28472430D01*
X37598065Y28472433D01*
X37598063Y28472436D01*
X37452435Y28618064D01*
X37452432Y28618066D01*
X37452430Y28618068D01*
X37286391Y28738702D01*
X37285806Y28739127D01*
X37285805Y28739128D01*
X37285803Y28739129D01*
X37102290Y28832634D01*
X37102287Y28832635D01*
X37102285Y28832636D01*
X36906412Y28896279D01*
X36906410Y28896280D01*
X36906408Y28896280D01*
X36702981Y28928500D01*
X36497019Y28928500D01*
X36293592Y28896280D01*
X36293590Y28896280D01*
X36293587Y28896279D01*
X36097714Y28832636D01*
X36097708Y28832633D01*
X35914193Y28739127D01*
X35747567Y28618066D01*
X35747564Y28618064D01*
X35601936Y28472436D01*
X35601934Y28472433D01*
X35480873Y28305807D01*
X35442267Y28230038D01*
X35393518Y28178423D01*
X35324603Y28161357D01*
X35257402Y28184258D01*
X35217733Y28230038D01*
X35214173Y28237025D01*
X35179129Y28305803D01*
X35058068Y28472430D01*
X35058065Y28472433D01*
X35058063Y28472436D01*
X34912435Y28618064D01*
X34912432Y28618066D01*
X34912430Y28618068D01*
X34746391Y28738702D01*
X34745806Y28739127D01*
X34745805Y28739128D01*
X34745803Y28739129D01*
X34562290Y28832634D01*
X34562287Y28832635D01*
X34562285Y28832636D01*
X34366412Y28896279D01*
X34366410Y28896280D01*
X34366408Y28896280D01*
X34162981Y28928500D01*
X33957019Y28928500D01*
X33753592Y28896280D01*
X33753590Y28896280D01*
X33753587Y28896279D01*
X33557714Y28832636D01*
X33557708Y28832633D01*
X33374193Y28739127D01*
X33207567Y28618066D01*
X33207564Y28618064D01*
X33061936Y28472436D01*
X33061934Y28472433D01*
X32940873Y28305807D01*
X32847367Y28122292D01*
X32847364Y28122286D01*
X32783721Y27926413D01*
X32783720Y27926410D01*
X32783720Y27926408D01*
X32751500Y27722981D01*
X32751500Y27517019D01*
X32783720Y27313592D01*
X32783721Y27313588D01*
X32838749Y27144228D01*
X32847366Y27117710D01*
X32940871Y26934197D01*
X33061932Y26767570D01*
X33061934Y26767568D01*
X33061936Y26767565D01*
X33207564Y26621937D01*
X33207567Y26621935D01*
X33207570Y26621932D01*
X33374197Y26500871D01*
X33557710Y26407366D01*
X33753592Y26343720D01*
X33886120Y26322730D01*
X33950272Y26292317D01*
X33987799Y26232049D01*
X33986785Y26161060D01*
X33947552Y26101888D01*
X33923611Y26086015D01*
X33885436Y26066564D01*
X33885435Y26066564D01*
X33738542Y25959839D01*
X33738539Y25959837D01*
X33610163Y25831461D01*
X33610161Y25831458D01*
X33503440Y25684570D01*
X33421010Y25522792D01*
X33421007Y25522786D01*
X33364904Y25350118D01*
X33364903Y25350113D01*
X33364903Y25350112D01*
X33357071Y25300659D01*
X33344449Y25220967D01*
X33314036Y25156814D01*
X33253768Y25119287D01*
X33182779Y25120301D01*
X33123607Y25159534D01*
X33095551Y25220967D01*
X33085487Y25284510D01*
X33075097Y25350112D01*
X33018991Y25522790D01*
X32936562Y25684566D01*
X32829841Y25831455D01*
X32829838Y25831458D01*
X32829836Y25831461D01*
X32701460Y25959837D01*
X32701457Y25959839D01*
X32701455Y25959841D01*
X32554566Y26066562D01*
X32392790Y26148991D01*
X32392787Y26148992D01*
X32392785Y26148993D01*
X32220115Y26205096D01*
X32220119Y26205096D01*
X32186732Y26210384D01*
X32040782Y26233500D01*
X31859218Y26233500D01*
X31679888Y26205097D01*
X31679882Y26205096D01*
X31507214Y26148993D01*
X31507208Y26148990D01*
X31345430Y26066560D01*
X31198542Y25959839D01*
X31198539Y25959837D01*
X31070163Y25831461D01*
X31070161Y25831458D01*
X30963440Y25684570D01*
X30881010Y25522792D01*
X30881007Y25522786D01*
X30824904Y25350118D01*
X30824903Y25350113D01*
X30824903Y25350112D01*
X30817071Y25300659D01*
X30804449Y25220967D01*
X30774036Y25156814D01*
X30713768Y25119287D01*
X30642779Y25120301D01*
X30583607Y25159534D01*
X30555551Y25220967D01*
X30545487Y25284510D01*
X30535097Y25350112D01*
X30478991Y25522790D01*
X30396562Y25684566D01*
X30289841Y25831455D01*
X30289838Y25831458D01*
X30289836Y25831461D01*
X30161460Y25959837D01*
X30161457Y25959839D01*
X30161455Y25959841D01*
X30014566Y26066562D01*
X29852790Y26148991D01*
X29852787Y26148992D01*
X29852785Y26148993D01*
X29680115Y26205096D01*
X29680119Y26205096D01*
X29646732Y26210384D01*
X29500782Y26233500D01*
X29319218Y26233500D01*
X29139888Y26205097D01*
X29139882Y26205096D01*
X28967214Y26148993D01*
X28967208Y26148990D01*
X28805430Y26066560D01*
X28658542Y25959839D01*
X28658539Y25959837D01*
X28530163Y25831461D01*
X28530161Y25831458D01*
X28423440Y25684570D01*
X28341010Y25522792D01*
X28341007Y25522786D01*
X28284904Y25350118D01*
X28284903Y25350113D01*
X28284903Y25350112D01*
X28277071Y25300659D01*
X28273949Y25280948D01*
X28243536Y25216795D01*
X28183268Y25179268D01*
X28112279Y25180282D01*
X28053107Y25219515D01*
X28024539Y25284510D01*
X28023500Y25300659D01*
X28023500Y25773633D01*
X28023499Y25773650D01*
X28016990Y25834197D01*
X28016988Y25834205D01*
X27987924Y25912125D01*
X27965889Y25971204D01*
X27965888Y25971206D01*
X27965887Y25971208D01*
X27878261Y26088262D01*
X27761207Y26175888D01*
X27761202Y26175890D01*
X27624204Y26226989D01*
X27624196Y26226991D01*
X27563649Y26233500D01*
X27563638Y26233500D01*
X26176362Y26233500D01*
X26176350Y26233500D01*
X26115803Y26226991D01*
X26115795Y26226989D01*
X25978797Y26175890D01*
X25978792Y26175888D01*
X25861738Y26088262D01*
X25774112Y25971208D01*
X25774110Y25971203D01*
X25723011Y25834205D01*
X25723009Y25834197D01*
X25716500Y25773650D01*
X500000Y25773650D01*
X500000Y28757650D01*
X5842500Y28757650D01*
X5842500Y27442351D01*
X5849009Y27381804D01*
X5849011Y27381796D01*
X5900110Y27244798D01*
X5900112Y27244793D01*
X5987738Y27127739D01*
X6104792Y27040113D01*
X6104794Y27040112D01*
X6104796Y27040111D01*
X6163875Y27018076D01*
X6241795Y26989012D01*
X6241803Y26989010D01*
X6302350Y26982501D01*
X6302355Y26982501D01*
X6302362Y26982500D01*
X6302368Y26982500D01*
X7617632Y26982500D01*
X7617638Y26982500D01*
X7617645Y26982501D01*
X7617649Y26982501D01*
X7678196Y26989010D01*
X7678199Y26989011D01*
X7678201Y26989011D01*
X7815204Y27040111D01*
X7843881Y27061578D01*
X7932261Y27127739D01*
X8019887Y27244793D01*
X8019887Y27244794D01*
X8019889Y27244796D01*
X8070989Y27381799D01*
X8073775Y27407708D01*
X8077499Y27442351D01*
X8077500Y27442368D01*
X8077500Y28187949D01*
X8382500Y28187949D01*
X8382500Y28012051D01*
X8396064Y27926408D01*
X8410016Y27838316D01*
X8447505Y27722939D01*
X8464372Y27671029D01*
X8544096Y27514561D01*
X8544230Y27514299D01*
X8569790Y27479119D01*
X8647618Y27371997D01*
X8647620Y27371995D01*
X8647622Y27371992D01*
X8771991Y27247623D01*
X8771994Y27247621D01*
X8771997Y27247618D01*
X8914302Y27144228D01*
X9071029Y27064372D01*
X9238318Y27010016D01*
X9412051Y26982500D01*
X9412053Y26982500D01*
X9587947Y26982500D01*
X9587949Y26982500D01*
X9761682Y27010016D01*
X9928971Y27064372D01*
X10085698Y27144228D01*
X10092484Y27149158D01*
X11448367Y27149158D01*
X11454564Y27144656D01*
X11611219Y27064837D01*
X11611225Y27064834D01*
X11778429Y27010506D01*
X11952093Y26983000D01*
X12127907Y26983000D01*
X12301570Y27010506D01*
X12468774Y27064834D01*
X12468780Y27064837D01*
X12625432Y27144655D01*
X12625440Y27144660D01*
X12631631Y27149158D01*
X12631631Y27149160D01*
X12040001Y27740790D01*
X12040000Y27740790D01*
X11448367Y27149158D01*
X10092484Y27149158D01*
X10228003Y27247618D01*
X10241175Y27260790D01*
X10266660Y27286274D01*
X10352377Y27371992D01*
X10352382Y27371997D01*
X10455772Y27514302D01*
X10535628Y27671029D01*
X10589984Y27838318D01*
X10617500Y28012051D01*
X10617500Y28187907D01*
X10923000Y28187907D01*
X10923000Y28012094D01*
X10950505Y27838430D01*
X11004833Y27671226D01*
X11004836Y27671220D01*
X11084658Y27514561D01*
X11089156Y27508369D01*
X11680790Y28100001D01*
X11634054Y28146737D01*
X11685000Y28146737D01*
X11685000Y28053263D01*
X11709193Y27962975D01*
X11755930Y27882025D01*
X11822025Y27815930D01*
X11902975Y27769193D01*
X11993263Y27745000D01*
X12086737Y27745000D01*
X12177025Y27769193D01*
X12257975Y27815930D01*
X12324070Y27882025D01*
X12370807Y27962975D01*
X12395000Y28053263D01*
X12395000Y28100001D01*
X12399210Y28100001D01*
X12399210Y28099999D01*
X12990840Y27508369D01*
X12990842Y27508369D01*
X12995340Y27514560D01*
X12995345Y27514568D01*
X13075163Y27671220D01*
X13075166Y27671226D01*
X13129494Y27838430D01*
X13157000Y28012094D01*
X13157000Y28187907D01*
X13129494Y28361571D01*
X13075166Y28528775D01*
X13075163Y28528781D01*
X12995344Y28685436D01*
X12990842Y28691633D01*
X12399210Y28100001D01*
X12395000Y28100001D01*
X12395000Y28146737D01*
X12370807Y28237025D01*
X12324070Y28317975D01*
X12257975Y28384070D01*
X12177025Y28430807D01*
X12086737Y28455000D01*
X11993263Y28455000D01*
X11902975Y28430807D01*
X11822025Y28384070D01*
X11755930Y28317975D01*
X11709193Y28237025D01*
X11685000Y28146737D01*
X11634054Y28146737D01*
X11089157Y28691634D01*
X11089156Y28691633D01*
X11084658Y28685440D01*
X11004836Y28528781D01*
X11004833Y28528775D01*
X10950505Y28361571D01*
X10923000Y28187907D01*
X10617500Y28187907D01*
X10617500Y28187949D01*
X10589984Y28361682D01*
X10535628Y28528971D01*
X10455772Y28685698D01*
X10352382Y28828003D01*
X10352379Y28828006D01*
X10352377Y28828009D01*
X10228008Y28952378D01*
X10228005Y28952380D01*
X10228003Y28952382D01*
X10092482Y29050843D01*
X11448366Y29050843D01*
X12039999Y28459210D01*
X12040000Y28459210D01*
X12631632Y29050844D01*
X12625439Y29055342D01*
X12468780Y29135164D01*
X12468774Y29135167D01*
X12301570Y29189495D01*
X12127907Y29217000D01*
X11952093Y29217000D01*
X11778429Y29189495D01*
X11611225Y29135167D01*
X11611219Y29135164D01*
X11454560Y29055342D01*
X11448367Y29050844D01*
X11448366Y29050843D01*
X10092482Y29050843D01*
X10085698Y29055772D01*
X9928971Y29135628D01*
X9928970Y29135629D01*
X9928969Y29135629D01*
X9761684Y29189984D01*
X9674815Y29203742D01*
X9587949Y29217500D01*
X9412051Y29217500D01*
X9342557Y29206494D01*
X9238315Y29189984D01*
X9071030Y29135629D01*
X8914298Y29055770D01*
X8771994Y28952380D01*
X8771991Y28952378D01*
X8647622Y28828009D01*
X8647620Y28828006D01*
X8544230Y28685702D01*
X8464371Y28528970D01*
X8410016Y28361685D01*
X8401166Y28305807D01*
X8382500Y28187949D01*
X8077500Y28187949D01*
X8077500Y28757633D01*
X8077499Y28757650D01*
X8070990Y28818197D01*
X8070988Y28818205D01*
X8041867Y28896280D01*
X8019889Y28955204D01*
X8019888Y28955206D01*
X8019887Y28955208D01*
X7932261Y29072262D01*
X7815207Y29159888D01*
X7815202Y29159890D01*
X7678204Y29210989D01*
X7678196Y29210991D01*
X7617649Y29217500D01*
X7617638Y29217500D01*
X6302362Y29217500D01*
X6302350Y29217500D01*
X6241803Y29210991D01*
X6241795Y29210989D01*
X6104797Y29159890D01*
X6104792Y29159888D01*
X5987738Y29072262D01*
X5900112Y28955208D01*
X5900110Y28955203D01*
X5849011Y28818205D01*
X5849009Y28818197D01*
X5842500Y28757650D01*
X500000Y28757650D01*
X500000Y35662543D01*
X1191500Y35662543D01*
X1191500Y35337458D01*
X1223361Y35013973D01*
X1223364Y35013951D01*
X1286777Y34695145D01*
X1286780Y34695134D01*
X1286781Y34695131D01*
X1381145Y34384056D01*
X1505545Y34083728D01*
X1658784Y33797038D01*
X1839378Y33526759D01*
X1839389Y33526744D01*
X2045601Y33275475D01*
X2045619Y33275455D01*
X2275454Y33045620D01*
X2275464Y33045611D01*
X2275468Y33045607D01*
X2526752Y32839383D01*
X2797040Y32658783D01*
X3083728Y32505545D01*
X3384056Y32381145D01*
X3695131Y32286781D01*
X3695140Y32286780D01*
X3695144Y32286778D01*
X3824365Y32261075D01*
X4013957Y32223363D01*
X4337464Y32191500D01*
X4337473Y32191500D01*
X4662527Y32191500D01*
X4662536Y32191500D01*
X4986043Y32223363D01*
X5237696Y32273420D01*
X5304855Y32286778D01*
X5304857Y32286779D01*
X5304869Y32286781D01*
X5615944Y32381145D01*
X5916272Y32505545D01*
X6202960Y32658783D01*
X6473248Y32839383D01*
X6724532Y33045607D01*
X6954393Y33275468D01*
X7160617Y33526752D01*
X7341217Y33797040D01*
X7494455Y34083728D01*
X7618855Y34384056D01*
X7713219Y34695131D01*
X7776637Y35013957D01*
X7808500Y35337464D01*
X7808500Y35662536D01*
X7808499Y35662543D01*
X62191500Y35662543D01*
X62191500Y35337458D01*
X62223361Y35013973D01*
X62223364Y35013951D01*
X62286777Y34695145D01*
X62286780Y34695134D01*
X62286781Y34695131D01*
X62381145Y34384056D01*
X62505545Y34083728D01*
X62658784Y33797038D01*
X62839378Y33526759D01*
X62839389Y33526744D01*
X63045601Y33275475D01*
X63045619Y33275455D01*
X63275454Y33045620D01*
X63275464Y33045611D01*
X63275468Y33045607D01*
X63526752Y32839383D01*
X63797040Y32658783D01*
X64083728Y32505545D01*
X64384056Y32381145D01*
X64695131Y32286781D01*
X64695140Y32286780D01*
X64695144Y32286778D01*
X64824365Y32261075D01*
X65013957Y32223363D01*
X65337464Y32191500D01*
X65337473Y32191500D01*
X65662527Y32191500D01*
X65662536Y32191500D01*
X65986043Y32223363D01*
X66237696Y32273420D01*
X66304855Y32286778D01*
X66304857Y32286779D01*
X66304869Y32286781D01*
X66615944Y32381145D01*
X66916272Y32505545D01*
X67202960Y32658783D01*
X67473248Y32839383D01*
X67724532Y33045607D01*
X67954393Y33275468D01*
X68160617Y33526752D01*
X68341217Y33797040D01*
X68494455Y34083728D01*
X68618855Y34384056D01*
X68713219Y34695131D01*
X68776637Y35013957D01*
X68808500Y35337464D01*
X68808500Y35662536D01*
X68776637Y35986043D01*
X68725825Y36241494D01*
X68713222Y36304856D01*
X68713220Y36304860D01*
X68713219Y36304869D01*
X68618855Y36615944D01*
X68494455Y36916272D01*
X68341217Y37202960D01*
X68160617Y37473248D01*
X68026716Y37636406D01*
X67954398Y37724526D01*
X67954380Y37724546D01*
X67724545Y37954381D01*
X67724525Y37954399D01*
X67473256Y38160611D01*
X67473241Y38160622D01*
X67202962Y38341216D01*
X66916272Y38494455D01*
X66615944Y38618855D01*
X66304869Y38713219D01*
X66304866Y38713220D01*
X66304855Y38713223D01*
X65986049Y38776636D01*
X65986045Y38776637D01*
X65986043Y38776637D01*
X65986038Y38776638D01*
X65986027Y38776639D01*
X65662542Y38808500D01*
X65662536Y38808500D01*
X65337464Y38808500D01*
X65337457Y38808500D01*
X65013972Y38776639D01*
X65013950Y38776636D01*
X64695144Y38713223D01*
X64384062Y38618857D01*
X64384060Y38618857D01*
X64384056Y38618855D01*
X64328795Y38595965D01*
X64083727Y38494455D01*
X63797037Y38341216D01*
X63526758Y38160622D01*
X63526743Y38160611D01*
X63275474Y37954399D01*
X63275454Y37954381D01*
X63045619Y37724546D01*
X63045601Y37724526D01*
X62839389Y37473257D01*
X62839378Y37473242D01*
X62658784Y37202963D01*
X62505545Y36916273D01*
X62381143Y36615938D01*
X62286777Y36304856D01*
X62223364Y35986050D01*
X62223361Y35986028D01*
X62191500Y35662543D01*
X7808499Y35662543D01*
X7776637Y35986043D01*
X7725825Y36241494D01*
X7713222Y36304856D01*
X7713220Y36304860D01*
X7713219Y36304869D01*
X7618855Y36615944D01*
X7494455Y36916272D01*
X7352482Y37181884D01*
X7341215Y37202964D01*
X7341214Y37202965D01*
X7334070Y37213657D01*
X7334069Y37213658D01*
X7160621Y37473242D01*
X7160610Y37473257D01*
X7026717Y37636406D01*
X6954398Y37724526D01*
X6954380Y37724546D01*
X6924926Y37754000D01*
X17615302Y37754000D01*
X18519297Y37754000D01*
X18484075Y37692993D01*
X18450000Y37565826D01*
X18450000Y37434174D01*
X18484075Y37307007D01*
X18519297Y37246000D01*
X17615302Y37246000D01*
X17625440Y37181996D01*
X17691490Y36978714D01*
X17691493Y36978708D01*
X17788536Y36788250D01*
X17914177Y36615321D01*
X18065320Y36464178D01*
X18238249Y36338537D01*
X18428707Y36241494D01*
X18428713Y36241491D01*
X18631998Y36175440D01*
X18696000Y36165304D01*
X18696000Y37069298D01*
X18757007Y37034075D01*
X18884174Y37000000D01*
X19015826Y37000000D01*
X19142993Y37034075D01*
X19204000Y37069298D01*
X19204000Y36165304D01*
X19268001Y36175440D01*
X19471286Y36241491D01*
X19471292Y36241494D01*
X19661750Y36338537D01*
X19834679Y36464178D01*
X19985822Y36615321D01*
X20111460Y36788246D01*
X20112261Y36789552D01*
X20112695Y36789946D01*
X20114376Y36792258D01*
X20114861Y36791906D01*
X20164900Y36837193D01*
X20234940Y36848812D01*
X20300142Y36820720D01*
X20325097Y36791925D01*
X20325196Y36791996D01*
X20326025Y36790855D01*
X20327136Y36789573D01*
X20328103Y36787994D01*
X20403518Y36684194D01*
X20453794Y36614996D01*
X20453796Y36614994D01*
X20453798Y36614991D01*
X20604990Y36463799D01*
X20604993Y36463797D01*
X20604996Y36463794D01*
X20777991Y36338106D01*
X20968517Y36241028D01*
X21171878Y36174953D01*
X21171879Y36174953D01*
X21171884Y36174951D01*
X21383084Y36141500D01*
X21383087Y36141500D01*
X21596913Y36141500D01*
X21596916Y36141500D01*
X21808116Y36174951D01*
X22011483Y36241028D01*
X22202009Y36338106D01*
X22375004Y36463794D01*
X22526206Y36614996D01*
X22651894Y36787991D01*
X22651899Y36788003D01*
X22652561Y36789080D01*
X22652924Y36789409D01*
X22654804Y36791996D01*
X22655347Y36791602D01*
X22705204Y36836717D01*
X22775244Y36848330D01*
X22840445Y36820234D01*
X22865021Y36791870D01*
X22865196Y36791996D01*
X22866668Y36789970D01*
X22867439Y36789080D01*
X22868104Y36787994D01*
X22868106Y36787991D01*
X22993794Y36614996D01*
X22993796Y36614994D01*
X22993798Y36614991D01*
X23144990Y36463799D01*
X23144993Y36463797D01*
X23144996Y36463794D01*
X23317991Y36338106D01*
X23508517Y36241028D01*
X23711878Y36174953D01*
X23711879Y36174953D01*
X23711884Y36174951D01*
X23923084Y36141500D01*
X23923087Y36141500D01*
X24136913Y36141500D01*
X24136916Y36141500D01*
X24348116Y36174951D01*
X24551483Y36241028D01*
X24742009Y36338106D01*
X24915004Y36463794D01*
X25066206Y36614996D01*
X25191894Y36787991D01*
X25191899Y36788003D01*
X25192561Y36789080D01*
X25192924Y36789409D01*
X25194804Y36791996D01*
X25195347Y36791602D01*
X25245204Y36836717D01*
X25315244Y36848330D01*
X25380445Y36820234D01*
X25405021Y36791870D01*
X25405196Y36791996D01*
X25406668Y36789970D01*
X25407439Y36789080D01*
X25408104Y36787994D01*
X25408106Y36787991D01*
X25533794Y36614996D01*
X25533796Y36614994D01*
X25533798Y36614991D01*
X25684990Y36463799D01*
X25684993Y36463797D01*
X25684996Y36463794D01*
X25857991Y36338106D01*
X26048517Y36241028D01*
X26251878Y36174953D01*
X26251879Y36174953D01*
X26251884Y36174951D01*
X26463084Y36141500D01*
X26463087Y36141500D01*
X26676913Y36141500D01*
X26676916Y36141500D01*
X26888116Y36174951D01*
X27091483Y36241028D01*
X27282009Y36338106D01*
X27455004Y36463794D01*
X27606206Y36614996D01*
X27731894Y36787991D01*
X27731899Y36788003D01*
X27732561Y36789080D01*
X27732924Y36789409D01*
X27734804Y36791996D01*
X27735347Y36791602D01*
X27785204Y36836717D01*
X27855244Y36848330D01*
X27920445Y36820234D01*
X27945021Y36791870D01*
X27945196Y36791996D01*
X27946668Y36789970D01*
X27947439Y36789080D01*
X27948104Y36787994D01*
X27948106Y36787991D01*
X28073794Y36614996D01*
X28073796Y36614994D01*
X28073798Y36614991D01*
X28224990Y36463799D01*
X28224993Y36463797D01*
X28224996Y36463794D01*
X28397991Y36338106D01*
X28588517Y36241028D01*
X28791878Y36174953D01*
X28791879Y36174953D01*
X28791884Y36174951D01*
X29003084Y36141500D01*
X29003087Y36141500D01*
X29216913Y36141500D01*
X29216916Y36141500D01*
X29428116Y36174951D01*
X29631483Y36241028D01*
X29822009Y36338106D01*
X29995004Y36463794D01*
X30146206Y36614996D01*
X30271894Y36787991D01*
X30271899Y36788003D01*
X30272561Y36789080D01*
X30272924Y36789409D01*
X30274804Y36791996D01*
X30275347Y36791602D01*
X30325204Y36836717D01*
X30395244Y36848330D01*
X30460445Y36820234D01*
X30485021Y36791870D01*
X30485196Y36791996D01*
X30486668Y36789970D01*
X30487439Y36789080D01*
X30488104Y36787994D01*
X30488106Y36787991D01*
X30613794Y36614996D01*
X30613796Y36614994D01*
X30613798Y36614991D01*
X30764990Y36463799D01*
X30764993Y36463797D01*
X30764996Y36463794D01*
X30937991Y36338106D01*
X31128517Y36241028D01*
X31331878Y36174953D01*
X31331879Y36174953D01*
X31331884Y36174951D01*
X31543084Y36141500D01*
X31543087Y36141500D01*
X31756913Y36141500D01*
X31756916Y36141500D01*
X31968116Y36174951D01*
X32171483Y36241028D01*
X32362009Y36338106D01*
X32535004Y36463794D01*
X32686206Y36614996D01*
X32811894Y36787991D01*
X32811899Y36788003D01*
X32812561Y36789080D01*
X32812924Y36789409D01*
X32814804Y36791996D01*
X32815347Y36791602D01*
X32865204Y36836717D01*
X32935244Y36848330D01*
X33000445Y36820234D01*
X33025021Y36791870D01*
X33025196Y36791996D01*
X33026668Y36789970D01*
X33027439Y36789080D01*
X33028104Y36787994D01*
X33028106Y36787991D01*
X33153794Y36614996D01*
X33153796Y36614994D01*
X33153798Y36614991D01*
X33304990Y36463799D01*
X33304993Y36463797D01*
X33304996Y36463794D01*
X33477991Y36338106D01*
X33668517Y36241028D01*
X33871878Y36174953D01*
X33871879Y36174953D01*
X33871884Y36174951D01*
X34083084Y36141500D01*
X34083087Y36141500D01*
X34296913Y36141500D01*
X34296916Y36141500D01*
X34508116Y36174951D01*
X34711483Y36241028D01*
X34902009Y36338106D01*
X35075004Y36463794D01*
X35226206Y36614996D01*
X35351894Y36787991D01*
X35351902Y36788008D01*
X35352854Y36789559D01*
X35353377Y36790033D01*
X35354804Y36791996D01*
X35355216Y36791697D01*
X35405497Y36837196D01*
X35475537Y36848811D01*
X35540738Y36820715D01*
X35565484Y36792157D01*
X35565624Y36792258D01*
X35566801Y36790638D01*
X35567729Y36789567D01*
X35568535Y36788251D01*
X35694177Y36615321D01*
X35845320Y36464178D01*
X36018249Y36338537D01*
X36208707Y36241494D01*
X36208713Y36241491D01*
X36411998Y36175440D01*
X36476000Y36165304D01*
X36476000Y37069298D01*
X36537007Y37034075D01*
X36664174Y37000000D01*
X36795826Y37000000D01*
X36922993Y37034075D01*
X36984000Y37069298D01*
X36984000Y36165304D01*
X37048001Y36175440D01*
X37251286Y36241491D01*
X37251292Y36241494D01*
X37441750Y36338537D01*
X37614679Y36464178D01*
X37765822Y36615321D01*
X37891460Y36788246D01*
X37892261Y36789552D01*
X37892695Y36789946D01*
X37894376Y36792258D01*
X37894861Y36791906D01*
X37944900Y36837193D01*
X38014940Y36848812D01*
X38080142Y36820720D01*
X38105097Y36791925D01*
X38105196Y36791996D01*
X38106025Y36790855D01*
X38107136Y36789573D01*
X38108103Y36787994D01*
X38183518Y36684194D01*
X38233794Y36614996D01*
X38233796Y36614994D01*
X38233798Y36614991D01*
X38384990Y36463799D01*
X38384993Y36463797D01*
X38384996Y36463794D01*
X38557991Y36338106D01*
X38748517Y36241028D01*
X38951878Y36174953D01*
X38951879Y36174953D01*
X38951884Y36174951D01*
X39163084Y36141500D01*
X39163087Y36141500D01*
X39376913Y36141500D01*
X39376916Y36141500D01*
X39588116Y36174951D01*
X39791483Y36241028D01*
X39982009Y36338106D01*
X40155004Y36463794D01*
X40306206Y36614996D01*
X40431894Y36787991D01*
X40431899Y36788003D01*
X40432561Y36789080D01*
X40432924Y36789409D01*
X40434804Y36791996D01*
X40435347Y36791602D01*
X40485204Y36836717D01*
X40555244Y36848330D01*
X40620445Y36820234D01*
X40645021Y36791870D01*
X40645196Y36791996D01*
X40646668Y36789970D01*
X40647439Y36789080D01*
X40648104Y36787994D01*
X40648106Y36787991D01*
X40773794Y36614996D01*
X40773796Y36614994D01*
X40773798Y36614991D01*
X40924990Y36463799D01*
X40924993Y36463797D01*
X40924996Y36463794D01*
X41097991Y36338106D01*
X41288517Y36241028D01*
X41491878Y36174953D01*
X41491879Y36174953D01*
X41491884Y36174951D01*
X41703084Y36141500D01*
X41703087Y36141500D01*
X41916913Y36141500D01*
X41916916Y36141500D01*
X42128116Y36174951D01*
X42331483Y36241028D01*
X42522009Y36338106D01*
X42695004Y36463794D01*
X42846206Y36614996D01*
X42971894Y36787991D01*
X42971899Y36788003D01*
X42972561Y36789080D01*
X42972924Y36789409D01*
X42974804Y36791996D01*
X42975347Y36791602D01*
X43025204Y36836717D01*
X43095244Y36848330D01*
X43160445Y36820234D01*
X43185021Y36791870D01*
X43185196Y36791996D01*
X43186668Y36789970D01*
X43187439Y36789080D01*
X43188104Y36787994D01*
X43188106Y36787991D01*
X43313794Y36614996D01*
X43313796Y36614994D01*
X43313798Y36614991D01*
X43464990Y36463799D01*
X43464993Y36463797D01*
X43464996Y36463794D01*
X43637991Y36338106D01*
X43828517Y36241028D01*
X44031878Y36174953D01*
X44031879Y36174953D01*
X44031884Y36174951D01*
X44243084Y36141500D01*
X44243087Y36141500D01*
X44456913Y36141500D01*
X44456916Y36141500D01*
X44668116Y36174951D01*
X44871483Y36241028D01*
X45062009Y36338106D01*
X45235004Y36463794D01*
X45386206Y36614996D01*
X45511894Y36787991D01*
X45511899Y36788003D01*
X45512561Y36789080D01*
X45512924Y36789409D01*
X45514804Y36791996D01*
X45515347Y36791602D01*
X45565204Y36836717D01*
X45635244Y36848330D01*
X45700445Y36820234D01*
X45725021Y36791870D01*
X45725196Y36791996D01*
X45726668Y36789970D01*
X45727439Y36789080D01*
X45728104Y36787994D01*
X45728106Y36787991D01*
X45853794Y36614996D01*
X45853796Y36614994D01*
X45853798Y36614991D01*
X46004990Y36463799D01*
X46004993Y36463797D01*
X46004996Y36463794D01*
X46177991Y36338106D01*
X46368517Y36241028D01*
X46571878Y36174953D01*
X46571879Y36174953D01*
X46571884Y36174951D01*
X46783084Y36141500D01*
X46783087Y36141500D01*
X46996913Y36141500D01*
X46996916Y36141500D01*
X47208116Y36174951D01*
X47411483Y36241028D01*
X47602009Y36338106D01*
X47775004Y36463794D01*
X47926206Y36614996D01*
X48051894Y36787991D01*
X48051899Y36788003D01*
X48052561Y36789080D01*
X48052924Y36789409D01*
X48054804Y36791996D01*
X48055347Y36791602D01*
X48105204Y36836717D01*
X48175244Y36848330D01*
X48240445Y36820234D01*
X48265021Y36791870D01*
X48265196Y36791996D01*
X48266668Y36789970D01*
X48267439Y36789080D01*
X48268104Y36787994D01*
X48268106Y36787991D01*
X48393794Y36614996D01*
X48393796Y36614994D01*
X48393798Y36614991D01*
X48544990Y36463799D01*
X48544993Y36463797D01*
X48544996Y36463794D01*
X48717991Y36338106D01*
X48908517Y36241028D01*
X49111878Y36174953D01*
X49111879Y36174953D01*
X49111884Y36174951D01*
X49323084Y36141500D01*
X49323087Y36141500D01*
X49536913Y36141500D01*
X49536916Y36141500D01*
X49748116Y36174951D01*
X49951483Y36241028D01*
X50142009Y36338106D01*
X50315004Y36463794D01*
X50466206Y36614996D01*
X50591894Y36787991D01*
X50591899Y36788003D01*
X50592561Y36789080D01*
X50592924Y36789409D01*
X50594804Y36791996D01*
X50595347Y36791602D01*
X50645204Y36836717D01*
X50715244Y36848330D01*
X50780445Y36820234D01*
X50805021Y36791870D01*
X50805196Y36791996D01*
X50806668Y36789970D01*
X50807439Y36789080D01*
X50808104Y36787994D01*
X50808106Y36787991D01*
X50933794Y36614996D01*
X50933796Y36614994D01*
X50933798Y36614991D01*
X51084990Y36463799D01*
X51084993Y36463797D01*
X51084996Y36463794D01*
X51257991Y36338106D01*
X51448517Y36241028D01*
X51651878Y36174953D01*
X51651879Y36174953D01*
X51651884Y36174951D01*
X51863084Y36141500D01*
X51863087Y36141500D01*
X52076913Y36141500D01*
X52076916Y36141500D01*
X52288116Y36174951D01*
X52491483Y36241028D01*
X52682009Y36338106D01*
X52855004Y36463794D01*
X53006206Y36614996D01*
X53131894Y36787991D01*
X53131899Y36788003D01*
X53132561Y36789080D01*
X53132924Y36789409D01*
X53134804Y36791996D01*
X53135347Y36791602D01*
X53185204Y36836717D01*
X53255244Y36848330D01*
X53320445Y36820234D01*
X53345021Y36791870D01*
X53345196Y36791996D01*
X53346668Y36789970D01*
X53347439Y36789080D01*
X53348104Y36787994D01*
X53348106Y36787991D01*
X53473794Y36614996D01*
X53473796Y36614994D01*
X53473798Y36614991D01*
X53624990Y36463799D01*
X53624993Y36463797D01*
X53624996Y36463794D01*
X53797991Y36338106D01*
X53988517Y36241028D01*
X54191878Y36174953D01*
X54191879Y36174953D01*
X54191884Y36174951D01*
X54403084Y36141500D01*
X54403087Y36141500D01*
X54616913Y36141500D01*
X54616916Y36141500D01*
X54828116Y36174951D01*
X55031483Y36241028D01*
X55222009Y36338106D01*
X55395004Y36463794D01*
X55498371Y36567162D01*
X55560681Y36601185D01*
X55631497Y36596121D01*
X55688333Y36553574D01*
X55705521Y36522097D01*
X55749555Y36404035D01*
X55837095Y36287096D01*
X55954034Y36199556D01*
X56090906Y36148506D01*
X56151402Y36142001D01*
X56151415Y36142000D01*
X56796000Y36142000D01*
X56796000Y37069298D01*
X56857007Y37034075D01*
X56984174Y37000000D01*
X57115826Y37000000D01*
X57242993Y37034075D01*
X57304000Y37069298D01*
X57304000Y36142000D01*
X57948585Y36142000D01*
X57948597Y36142001D01*
X58009093Y36148506D01*
X58145964Y36199556D01*
X58145965Y36199556D01*
X58262904Y36287096D01*
X58350444Y36404035D01*
X58350444Y36404036D01*
X58401494Y36540907D01*
X58407999Y36601403D01*
X58408000Y36601415D01*
X58408000Y37246000D01*
X57480703Y37246000D01*
X57515925Y37307007D01*
X57550000Y37434174D01*
X57550000Y37565826D01*
X57515925Y37692993D01*
X57480703Y37754000D01*
X58408000Y37754000D01*
X58408000Y38398586D01*
X58407999Y38398598D01*
X58401494Y38459094D01*
X58350444Y38595965D01*
X58350444Y38595966D01*
X58262904Y38712905D01*
X58145965Y38800445D01*
X58009093Y38851495D01*
X57948597Y38858000D01*
X57304000Y38858000D01*
X57304000Y37930703D01*
X57242993Y37965925D01*
X57115826Y38000000D01*
X56984174Y38000000D01*
X56857007Y37965925D01*
X56796000Y37930703D01*
X56796000Y38858000D01*
X56151402Y38858000D01*
X56090906Y38851495D01*
X55954035Y38800445D01*
X55954034Y38800445D01*
X55837095Y38712905D01*
X55749556Y38595967D01*
X55705521Y38477903D01*
X55662974Y38421068D01*
X55596454Y38396257D01*
X55527079Y38411349D01*
X55498370Y38432841D01*
X55395009Y38536202D01*
X55395006Y38536204D01*
X55395004Y38536206D01*
X55222009Y38661894D01*
X55031483Y38758972D01*
X55031480Y38758973D01*
X55031478Y38758974D01*
X54828120Y38825048D01*
X54828123Y38825048D01*
X54767195Y38834698D01*
X54616916Y38858500D01*
X54403084Y38858500D01*
X54191884Y38825049D01*
X54191878Y38825048D01*
X53988521Y38758974D01*
X53988515Y38758971D01*
X53797987Y38661892D01*
X53624993Y38536204D01*
X53624990Y38536202D01*
X53473798Y38385010D01*
X53473796Y38385007D01*
X53348108Y38212013D01*
X53347434Y38210912D01*
X53347068Y38210582D01*
X53345196Y38208004D01*
X53344654Y38208398D01*
X53294787Y38163279D01*
X53224745Y38151672D01*
X53159547Y38179774D01*
X53134976Y38208130D01*
X53134804Y38208004D01*
X53133341Y38210018D01*
X53132566Y38210912D01*
X53131896Y38212004D01*
X53131894Y38212009D01*
X53006206Y38385004D01*
X53006203Y38385007D01*
X53006201Y38385010D01*
X52855009Y38536202D01*
X52855006Y38536204D01*
X52855004Y38536206D01*
X52682009Y38661894D01*
X52491483Y38758972D01*
X52491480Y38758973D01*
X52491478Y38758974D01*
X52288120Y38825048D01*
X52288123Y38825048D01*
X52227195Y38834698D01*
X52076916Y38858500D01*
X51863084Y38858500D01*
X51651884Y38825049D01*
X51651878Y38825048D01*
X51448521Y38758974D01*
X51448515Y38758971D01*
X51257987Y38661892D01*
X51084993Y38536204D01*
X51084990Y38536202D01*
X50933798Y38385010D01*
X50933796Y38385007D01*
X50808108Y38212013D01*
X50807434Y38210912D01*
X50807068Y38210582D01*
X50805196Y38208004D01*
X50804654Y38208398D01*
X50754787Y38163279D01*
X50684745Y38151672D01*
X50619547Y38179774D01*
X50594976Y38208130D01*
X50594804Y38208004D01*
X50593341Y38210018D01*
X50592566Y38210912D01*
X50591896Y38212004D01*
X50591894Y38212009D01*
X50466206Y38385004D01*
X50466203Y38385007D01*
X50466201Y38385010D01*
X50315009Y38536202D01*
X50315006Y38536204D01*
X50315004Y38536206D01*
X50142009Y38661894D01*
X49951483Y38758972D01*
X49951480Y38758973D01*
X49951478Y38758974D01*
X49748120Y38825048D01*
X49748123Y38825048D01*
X49687195Y38834698D01*
X49536916Y38858500D01*
X49323084Y38858500D01*
X49111884Y38825049D01*
X49111878Y38825048D01*
X48908521Y38758974D01*
X48908515Y38758971D01*
X48717987Y38661892D01*
X48544993Y38536204D01*
X48544990Y38536202D01*
X48393798Y38385010D01*
X48393796Y38385007D01*
X48268108Y38212013D01*
X48267434Y38210912D01*
X48267068Y38210582D01*
X48265196Y38208004D01*
X48264654Y38208398D01*
X48214787Y38163279D01*
X48144745Y38151672D01*
X48079547Y38179774D01*
X48054976Y38208130D01*
X48054804Y38208004D01*
X48053341Y38210018D01*
X48052566Y38210912D01*
X48051896Y38212004D01*
X48051894Y38212009D01*
X47926206Y38385004D01*
X47926203Y38385007D01*
X47926201Y38385010D01*
X47775009Y38536202D01*
X47775006Y38536204D01*
X47775004Y38536206D01*
X47602009Y38661894D01*
X47411483Y38758972D01*
X47411480Y38758973D01*
X47411478Y38758974D01*
X47208120Y38825048D01*
X47208123Y38825048D01*
X47147195Y38834698D01*
X46996916Y38858500D01*
X46783084Y38858500D01*
X46571884Y38825049D01*
X46571878Y38825048D01*
X46368521Y38758974D01*
X46368515Y38758971D01*
X46177987Y38661892D01*
X46004993Y38536204D01*
X46004990Y38536202D01*
X45853798Y38385010D01*
X45853796Y38385007D01*
X45728108Y38212013D01*
X45727434Y38210912D01*
X45727068Y38210582D01*
X45725196Y38208004D01*
X45724654Y38208398D01*
X45674787Y38163279D01*
X45604745Y38151672D01*
X45539547Y38179774D01*
X45514976Y38208130D01*
X45514804Y38208004D01*
X45513341Y38210018D01*
X45512566Y38210912D01*
X45511896Y38212004D01*
X45511894Y38212009D01*
X45386206Y38385004D01*
X45386203Y38385007D01*
X45386201Y38385010D01*
X45235009Y38536202D01*
X45235006Y38536204D01*
X45235004Y38536206D01*
X45062009Y38661894D01*
X44871483Y38758972D01*
X44871480Y38758973D01*
X44871478Y38758974D01*
X44668120Y38825048D01*
X44668123Y38825048D01*
X44607195Y38834698D01*
X44456916Y38858500D01*
X44243084Y38858500D01*
X44031884Y38825049D01*
X44031878Y38825048D01*
X43828521Y38758974D01*
X43828515Y38758971D01*
X43637987Y38661892D01*
X43464993Y38536204D01*
X43464990Y38536202D01*
X43313798Y38385010D01*
X43313796Y38385007D01*
X43188108Y38212013D01*
X43187434Y38210912D01*
X43187068Y38210582D01*
X43185196Y38208004D01*
X43184654Y38208398D01*
X43134787Y38163279D01*
X43064745Y38151672D01*
X42999547Y38179774D01*
X42974976Y38208130D01*
X42974804Y38208004D01*
X42973341Y38210018D01*
X42972566Y38210912D01*
X42971896Y38212004D01*
X42971894Y38212009D01*
X42846206Y38385004D01*
X42846203Y38385007D01*
X42846201Y38385010D01*
X42695009Y38536202D01*
X42695006Y38536204D01*
X42695004Y38536206D01*
X42522009Y38661894D01*
X42331483Y38758972D01*
X42331480Y38758973D01*
X42331478Y38758974D01*
X42128120Y38825048D01*
X42128123Y38825048D01*
X42067195Y38834698D01*
X41916916Y38858500D01*
X41703084Y38858500D01*
X41491884Y38825049D01*
X41491878Y38825048D01*
X41288521Y38758974D01*
X41288515Y38758971D01*
X41097987Y38661892D01*
X40924993Y38536204D01*
X40924990Y38536202D01*
X40773798Y38385010D01*
X40773796Y38385007D01*
X40648108Y38212013D01*
X40647434Y38210912D01*
X40647068Y38210582D01*
X40645196Y38208004D01*
X40644654Y38208398D01*
X40594787Y38163279D01*
X40524745Y38151672D01*
X40459547Y38179774D01*
X40434976Y38208130D01*
X40434804Y38208004D01*
X40433341Y38210018D01*
X40432566Y38210912D01*
X40431896Y38212004D01*
X40431894Y38212009D01*
X40306206Y38385004D01*
X40306203Y38385007D01*
X40306201Y38385010D01*
X40155009Y38536202D01*
X40155006Y38536204D01*
X40155004Y38536206D01*
X39982009Y38661894D01*
X39791483Y38758972D01*
X39791480Y38758973D01*
X39791478Y38758974D01*
X39588120Y38825048D01*
X39588123Y38825048D01*
X39527195Y38834698D01*
X39376916Y38858500D01*
X39163084Y38858500D01*
X38951884Y38825049D01*
X38951878Y38825048D01*
X38748521Y38758974D01*
X38748515Y38758971D01*
X38557987Y38661892D01*
X38384993Y38536204D01*
X38384990Y38536202D01*
X38233798Y38385010D01*
X38233796Y38385007D01*
X38108100Y38212002D01*
X38107131Y38210420D01*
X38106606Y38209946D01*
X38105196Y38208004D01*
X38104787Y38208301D01*
X38054479Y38162794D01*
X37984437Y38151193D01*
X37919242Y38179303D01*
X37894515Y38207844D01*
X37894376Y38207742D01*
X37893194Y38209369D01*
X37892266Y38210440D01*
X37891460Y38211756D01*
X37765822Y38384680D01*
X37614679Y38535823D01*
X37441750Y38661464D01*
X37251292Y38758507D01*
X37251286Y38758510D01*
X37048004Y38824560D01*
X36984000Y38834698D01*
X36984000Y37930703D01*
X36922993Y37965925D01*
X36795826Y38000000D01*
X36664174Y38000000D01*
X36537007Y37965925D01*
X36476000Y37930703D01*
X36476000Y38834698D01*
X36411995Y38824560D01*
X36208713Y38758510D01*
X36208707Y38758507D01*
X36018249Y38661464D01*
X35845320Y38535823D01*
X35694177Y38384680D01*
X35568532Y38211745D01*
X35567724Y38210426D01*
X35567286Y38210031D01*
X35565624Y38207742D01*
X35565143Y38208092D01*
X35515075Y38162797D01*
X35445033Y38151193D01*
X35379836Y38179298D01*
X35354901Y38208076D01*
X35354804Y38208004D01*
X35353975Y38209145D01*
X35352859Y38210433D01*
X35351899Y38211999D01*
X35351894Y38212009D01*
X35226206Y38385004D01*
X35226203Y38385007D01*
X35226201Y38385010D01*
X35075009Y38536202D01*
X35075006Y38536204D01*
X35075004Y38536206D01*
X34902009Y38661894D01*
X34711483Y38758972D01*
X34711480Y38758973D01*
X34711478Y38758974D01*
X34508120Y38825048D01*
X34508123Y38825048D01*
X34447195Y38834698D01*
X34296916Y38858500D01*
X34083084Y38858500D01*
X33871884Y38825049D01*
X33871878Y38825048D01*
X33668521Y38758974D01*
X33668515Y38758971D01*
X33477987Y38661892D01*
X33304993Y38536204D01*
X33304990Y38536202D01*
X33153798Y38385010D01*
X33153796Y38385007D01*
X33028108Y38212013D01*
X33027434Y38210912D01*
X33027068Y38210582D01*
X33025196Y38208004D01*
X33024654Y38208398D01*
X32974787Y38163279D01*
X32904745Y38151672D01*
X32839547Y38179774D01*
X32814976Y38208130D01*
X32814804Y38208004D01*
X32813341Y38210018D01*
X32812566Y38210912D01*
X32811896Y38212004D01*
X32811894Y38212009D01*
X32686206Y38385004D01*
X32686203Y38385007D01*
X32686201Y38385010D01*
X32535009Y38536202D01*
X32535006Y38536204D01*
X32535004Y38536206D01*
X32362009Y38661894D01*
X32171483Y38758972D01*
X32171480Y38758973D01*
X32171478Y38758974D01*
X31968120Y38825048D01*
X31968123Y38825048D01*
X31907195Y38834698D01*
X31756916Y38858500D01*
X31543084Y38858500D01*
X31331884Y38825049D01*
X31331878Y38825048D01*
X31128521Y38758974D01*
X31128515Y38758971D01*
X30937987Y38661892D01*
X30764993Y38536204D01*
X30764990Y38536202D01*
X30613798Y38385010D01*
X30613796Y38385007D01*
X30488108Y38212013D01*
X30487434Y38210912D01*
X30487068Y38210582D01*
X30485196Y38208004D01*
X30484654Y38208398D01*
X30434787Y38163279D01*
X30364745Y38151672D01*
X30299547Y38179774D01*
X30274976Y38208130D01*
X30274804Y38208004D01*
X30273341Y38210018D01*
X30272566Y38210912D01*
X30271896Y38212004D01*
X30271894Y38212009D01*
X30146206Y38385004D01*
X30146203Y38385007D01*
X30146201Y38385010D01*
X29995009Y38536202D01*
X29995006Y38536204D01*
X29995004Y38536206D01*
X29822009Y38661894D01*
X29631483Y38758972D01*
X29631480Y38758973D01*
X29631478Y38758974D01*
X29428120Y38825048D01*
X29428123Y38825048D01*
X29367195Y38834698D01*
X29216916Y38858500D01*
X29003084Y38858500D01*
X28791884Y38825049D01*
X28791878Y38825048D01*
X28588521Y38758974D01*
X28588515Y38758971D01*
X28397987Y38661892D01*
X28224993Y38536204D01*
X28224990Y38536202D01*
X28073798Y38385010D01*
X28073796Y38385007D01*
X27948108Y38212013D01*
X27947434Y38210912D01*
X27947068Y38210582D01*
X27945196Y38208004D01*
X27944654Y38208398D01*
X27894787Y38163279D01*
X27824745Y38151672D01*
X27759547Y38179774D01*
X27734976Y38208130D01*
X27734804Y38208004D01*
X27733341Y38210018D01*
X27732566Y38210912D01*
X27731896Y38212004D01*
X27731894Y38212009D01*
X27606206Y38385004D01*
X27606203Y38385007D01*
X27606201Y38385010D01*
X27455009Y38536202D01*
X27455006Y38536204D01*
X27455004Y38536206D01*
X27282009Y38661894D01*
X27091483Y38758972D01*
X27091480Y38758973D01*
X27091478Y38758974D01*
X26888120Y38825048D01*
X26888123Y38825048D01*
X26827195Y38834698D01*
X26676916Y38858500D01*
X26463084Y38858500D01*
X26251884Y38825049D01*
X26251878Y38825048D01*
X26048521Y38758974D01*
X26048515Y38758971D01*
X25857987Y38661892D01*
X25684993Y38536204D01*
X25684990Y38536202D01*
X25533798Y38385010D01*
X25533796Y38385007D01*
X25408108Y38212013D01*
X25407434Y38210912D01*
X25407068Y38210582D01*
X25405196Y38208004D01*
X25404654Y38208398D01*
X25354787Y38163279D01*
X25284745Y38151672D01*
X25219547Y38179774D01*
X25194976Y38208130D01*
X25194804Y38208004D01*
X25193341Y38210018D01*
X25192566Y38210912D01*
X25191896Y38212004D01*
X25191894Y38212009D01*
X25066206Y38385004D01*
X25066203Y38385007D01*
X25066201Y38385010D01*
X24915009Y38536202D01*
X24915006Y38536204D01*
X24915004Y38536206D01*
X24742009Y38661894D01*
X24551483Y38758972D01*
X24551480Y38758973D01*
X24551478Y38758974D01*
X24348120Y38825048D01*
X24348123Y38825048D01*
X24287195Y38834698D01*
X24136916Y38858500D01*
X23923084Y38858500D01*
X23711884Y38825049D01*
X23711878Y38825048D01*
X23508521Y38758974D01*
X23508515Y38758971D01*
X23317987Y38661892D01*
X23144993Y38536204D01*
X23144990Y38536202D01*
X22993798Y38385010D01*
X22993796Y38385007D01*
X22868108Y38212013D01*
X22867434Y38210912D01*
X22867068Y38210582D01*
X22865196Y38208004D01*
X22864654Y38208398D01*
X22814787Y38163279D01*
X22744745Y38151672D01*
X22679547Y38179774D01*
X22654976Y38208130D01*
X22654804Y38208004D01*
X22653341Y38210018D01*
X22652566Y38210912D01*
X22651896Y38212004D01*
X22651894Y38212009D01*
X22526206Y38385004D01*
X22526203Y38385007D01*
X22526201Y38385010D01*
X22375009Y38536202D01*
X22375006Y38536204D01*
X22375004Y38536206D01*
X22202009Y38661894D01*
X22011483Y38758972D01*
X22011480Y38758973D01*
X22011478Y38758974D01*
X21808120Y38825048D01*
X21808123Y38825048D01*
X21747195Y38834698D01*
X21596916Y38858500D01*
X21383084Y38858500D01*
X21171884Y38825049D01*
X21171878Y38825048D01*
X20968521Y38758974D01*
X20968515Y38758971D01*
X20777987Y38661892D01*
X20604993Y38536204D01*
X20604990Y38536202D01*
X20453798Y38385010D01*
X20453796Y38385007D01*
X20328100Y38212002D01*
X20327131Y38210420D01*
X20326606Y38209946D01*
X20325196Y38208004D01*
X20324787Y38208301D01*
X20274479Y38162794D01*
X20204437Y38151193D01*
X20139242Y38179303D01*
X20114515Y38207844D01*
X20114376Y38207742D01*
X20113194Y38209369D01*
X20112266Y38210440D01*
X20111460Y38211756D01*
X19985822Y38384680D01*
X19834679Y38535823D01*
X19661750Y38661464D01*
X19471292Y38758507D01*
X19471286Y38758510D01*
X19268004Y38824560D01*
X19204000Y38834698D01*
X19204000Y37930703D01*
X19142993Y37965925D01*
X19015826Y38000000D01*
X18884174Y38000000D01*
X18757007Y37965925D01*
X18696000Y37930703D01*
X18696000Y38834698D01*
X18631995Y38824560D01*
X18428713Y38758510D01*
X18428707Y38758507D01*
X18238249Y38661464D01*
X18065320Y38535823D01*
X17914177Y38384680D01*
X17788536Y38211751D01*
X17691493Y38021293D01*
X17691490Y38021287D01*
X17625440Y37818005D01*
X17615302Y37754000D01*
X6924926Y37754000D01*
X6724545Y37954381D01*
X6724525Y37954399D01*
X6473256Y38160611D01*
X6473241Y38160622D01*
X6202962Y38341216D01*
X5916272Y38494455D01*
X5615944Y38618855D01*
X5304869Y38713219D01*
X5304866Y38713220D01*
X5304855Y38713223D01*
X4986049Y38776636D01*
X4986045Y38776637D01*
X4986043Y38776637D01*
X4986038Y38776638D01*
X4986027Y38776639D01*
X4662542Y38808500D01*
X4662536Y38808500D01*
X4337464Y38808500D01*
X4337457Y38808500D01*
X4013972Y38776639D01*
X4013950Y38776636D01*
X3695144Y38713223D01*
X3384062Y38618857D01*
X3384060Y38618857D01*
X3384056Y38618855D01*
X3328795Y38595965D01*
X3083727Y38494455D01*
X2797037Y38341216D01*
X2526758Y38160622D01*
X2526743Y38160611D01*
X2275474Y37954399D01*
X2275454Y37954381D01*
X2045619Y37724546D01*
X2045601Y37724526D01*
X1839389Y37473257D01*
X1839378Y37473242D01*
X1658784Y37202963D01*
X1505545Y36916273D01*
X1381143Y36615938D01*
X1286777Y36304856D01*
X1223364Y35986050D01*
X1223361Y35986028D01*
X1191500Y35662543D01*
X500000Y35662543D01*
X500000Y39374000D01*
X520002Y39442121D01*
X573658Y39488614D01*
X626000Y39500000D01*
X69374000Y39500000D01*
X69442121Y39479998D01*
G37*
%TD.AperFunction*%
%TD*%
M02*
