%TF.GenerationSoftware,KiCad,Pcbnew,9.0.4-9.0.4-0~ubuntu24.04.1*%
%TF.CreationDate,2025-09-07T14:44:53-04:00*%
%TF.ProjectId,TCD1304Rev2,54434431-3330-4345-9265-76322e6b6963,rev?*%
%TF.SameCoordinates,PX7270e00PY7270e00*%
%TF.FileFunction,Soldermask,Bot*%
%TF.FilePolarity,Negative*%
%FSLAX46Y46*%
G04 Gerber Fmt 4.6, Leading zero omitted, Abs format (unit mm)*
G04 Created by KiCad (PCBNEW 9.0.4-9.0.4-0~ubuntu24.04.1) date 2025-09-07 14:44:53*
%MOMM*%
%LPD*%
G01*
G04 APERTURE LIST*
%ADD10C,1.700000*%
%ADD11R,1.700000X1.700000*%
%ADD12O,1.700000X1.700000*%
%ADD13C,1.290000*%
%ADD14R,1.290000X1.290000*%
%ADD15R,1.218000X1.218000*%
%ADD16C,1.218000*%
%ADD17C,1.600000*%
%ADD18C,5.600000*%
%ADD19C,0.800000*%
%ADD20C,1.000000*%
G04 APERTURE END LIST*
D10*
%TO.C,J3*%
X57070000Y2500000D03*
X54530000Y2500000D03*
X51990000Y2500000D03*
X49450000Y2500000D03*
X46910000Y2500000D03*
X44370000Y2500000D03*
X41830000Y2500000D03*
X39290000Y2500000D03*
X36750000Y2500000D03*
X34210000Y2500000D03*
X31670000Y2500000D03*
X29130000Y2500000D03*
X26590000Y2500000D03*
X24050000Y2500000D03*
X21510000Y2500000D03*
D11*
X18970000Y2500000D03*
%TD*%
D12*
%TO.C,J2*%
X18950000Y37500000D03*
X21490000Y37500000D03*
X24030000Y37500000D03*
X26570000Y37500000D03*
X29110000Y37500000D03*
X31650000Y37500000D03*
X34190000Y37500000D03*
X36730000Y37500000D03*
X39270000Y37500000D03*
X41810000Y37500000D03*
X44350000Y37500000D03*
X46890000Y37500000D03*
X49430000Y37500000D03*
X51970000Y37500000D03*
X54510000Y37500000D03*
D11*
X57050000Y37500000D03*
%TD*%
D13*
%TO.C,U1*%
X26870000Y14920000D03*
X29410000Y14920000D03*
X31950000Y14920000D03*
X34490000Y14920000D03*
X37030000Y14920000D03*
X39570000Y14920000D03*
X42110000Y14920000D03*
X44650000Y14920000D03*
X47190000Y14920000D03*
X49730000Y14920000D03*
X52270000Y14920000D03*
X52270000Y25080000D03*
X49730000Y25080000D03*
X47190000Y25080000D03*
X44650000Y25080000D03*
X42110000Y25080000D03*
X39570000Y25080000D03*
X37030000Y25080000D03*
X34490000Y25080000D03*
X31950000Y25080000D03*
X29410000Y25080000D03*
D14*
X26870000Y25080000D03*
%TD*%
D15*
%TO.C,RV1*%
X6960000Y28100000D03*
D16*
X9500000Y28100000D03*
X12040000Y28100000D03*
%TD*%
D17*
%TO.C,U3*%
X67080000Y27620000D03*
X64540000Y27620000D03*
X62000000Y27620000D03*
X59460000Y27620000D03*
X56920000Y27620000D03*
X54380000Y27620000D03*
X51840000Y27620000D03*
X49300000Y27620000D03*
X46760000Y27620000D03*
X44220000Y27620000D03*
X41680000Y27620000D03*
X39140000Y27620000D03*
X36600000Y27620000D03*
X34060000Y27620000D03*
X34060000Y12380000D03*
X36600000Y12380000D03*
X39140000Y12380000D03*
X41680000Y12380000D03*
X44220000Y12380000D03*
X46760000Y12380000D03*
X49300000Y12380000D03*
X51840000Y12380000D03*
X54380000Y12380000D03*
X56920000Y12380000D03*
X59460000Y12380000D03*
X62000000Y12380000D03*
X64540000Y12380000D03*
X67080000Y12380000D03*
%TD*%
D18*
%TO.C,REF\u002A\u002A*%
X65500000Y4500000D03*
%TD*%
%TO.C,REF\u002A\u002A*%
X65500000Y35500000D03*
%TD*%
%TO.C,REF\u002A\u002A*%
X4500000Y35500000D03*
%TD*%
%TO.C,REF\u002A\u002A*%
X4500000Y4500000D03*
%TD*%
D19*
X6500000Y12750000D03*
X6500000Y14750000D03*
X44750000Y6500000D03*
X51500000Y6500000D03*
X23250000Y27500000D03*
D20*
X2500000Y22100000D03*
X11875000Y12750000D03*
X14800000Y22100000D03*
X11875000Y14750000D03*
D19*
X40157500Y9250000D03*
M02*
