%TF.GenerationSoftware,KiCad,Pcbnew,9.0.4-9.0.4-0~ubuntu24.04.1*%
%TF.CreationDate,2025-09-07T14:44:50-04:00*%
%TF.ProjectId,TCD1304Rev2,54434431-3330-4345-9265-76322e6b6963,rev?*%
%TF.SameCoordinates,PX7270e00PY7270e00*%
%TF.FileFunction,Copper,L1,Top*%
%TF.FilePolarity,Positive*%
%FSLAX46Y46*%
G04 Gerber Fmt 4.6, Leading zero omitted, Abs format (unit mm)*
G04 Created by KiCad (PCBNEW 9.0.4-9.0.4-0~ubuntu24.04.1) date 2025-09-07 14:44:50*
%MOMM*%
%LPD*%
G01*
G04 APERTURE LIST*
G04 Aperture macros list*
%AMRoundRect*
0 Rectangle with rounded corners*
0 $1 Rounding radius*
0 $2 $3 $4 $5 $6 $7 $8 $9 X,Y pos of 4 corners*
0 Add a 4 corners polygon primitive as box body*
4,1,4,$2,$3,$4,$5,$6,$7,$8,$9,$2,$3,0*
0 Add four circle primitives for the rounded corners*
1,1,$1+$1,$2,$3*
1,1,$1+$1,$4,$5*
1,1,$1+$1,$6,$7*
1,1,$1+$1,$8,$9*
0 Add four rect primitives between the rounded corners*
20,1,$1+$1,$2,$3,$4,$5,0*
20,1,$1+$1,$4,$5,$6,$7,0*
20,1,$1+$1,$6,$7,$8,$9,0*
20,1,$1+$1,$8,$9,$2,$3,0*%
G04 Aperture macros list end*
%TA.AperFunction,ComponentPad*%
%ADD10C,1.700000*%
%TD*%
%TA.AperFunction,ComponentPad*%
%ADD11R,1.700000X1.700000*%
%TD*%
%TA.AperFunction,ComponentPad*%
%ADD12O,1.700000X1.700000*%
%TD*%
%TA.AperFunction,SMDPad,CuDef*%
%ADD13RoundRect,0.250000X-0.450000X0.350000X-0.450000X-0.350000X0.450000X-0.350000X0.450000X0.350000X0*%
%TD*%
%TA.AperFunction,ComponentPad*%
%ADD14C,1.290000*%
%TD*%
%TA.AperFunction,ComponentPad*%
%ADD15R,1.290000X1.290000*%
%TD*%
%TA.AperFunction,SMDPad,CuDef*%
%ADD16RoundRect,0.250000X-0.337500X-0.475000X0.337500X-0.475000X0.337500X0.475000X-0.337500X0.475000X0*%
%TD*%
%TA.AperFunction,SMDPad,CuDef*%
%ADD17RoundRect,0.250000X0.337500X0.475000X-0.337500X0.475000X-0.337500X-0.475000X0.337500X-0.475000X0*%
%TD*%
%TA.AperFunction,SMDPad,CuDef*%
%ADD18RoundRect,0.250000X0.450000X-0.350000X0.450000X0.350000X-0.450000X0.350000X-0.450000X-0.350000X0*%
%TD*%
%TA.AperFunction,SMDPad,CuDef*%
%ADD19RoundRect,0.250000X0.475000X-0.337500X0.475000X0.337500X-0.475000X0.337500X-0.475000X-0.337500X0*%
%TD*%
%TA.AperFunction,SMDPad,CuDef*%
%ADD20RoundRect,0.100000X0.712500X0.100000X-0.712500X0.100000X-0.712500X-0.100000X0.712500X-0.100000X0*%
%TD*%
%TA.AperFunction,SMDPad,CuDef*%
%ADD21RoundRect,0.250000X0.350000X0.450000X-0.350000X0.450000X-0.350000X-0.450000X0.350000X-0.450000X0*%
%TD*%
%TA.AperFunction,ComponentPad*%
%ADD22R,1.218000X1.218000*%
%TD*%
%TA.AperFunction,ComponentPad*%
%ADD23C,1.218000*%
%TD*%
%TA.AperFunction,ComponentPad*%
%ADD24C,1.600000*%
%TD*%
%TA.AperFunction,ComponentPad*%
%ADD25C,5.600000*%
%TD*%
%TA.AperFunction,ViaPad*%
%ADD26C,0.800000*%
%TD*%
%TA.AperFunction,ViaPad*%
%ADD27C,1.000000*%
%TD*%
%TA.AperFunction,Conductor*%
%ADD28C,0.250000*%
%TD*%
%TA.AperFunction,Conductor*%
%ADD29C,0.350000*%
%TD*%
G04 APERTURE END LIST*
D10*
%TO.P,J3,16,Pin_16*%
%TO.N,Net-(J3-Pin_16)*%
X57070000Y2500000D03*
%TO.P,J3,15,Pin_15*%
%TO.N,Earth*%
X54530000Y2500000D03*
%TO.P,J3,14,Pin_14*%
%TO.N,unconnected-(J3-Pin_14-Pad14)*%
X51990000Y2500000D03*
%TO.P,J3,13,Pin_13*%
%TO.N,unconnected-(J3-Pin_13-Pad13)*%
X49450000Y2500000D03*
%TO.P,J3,12,Pin_12*%
%TO.N,unconnected-(J3-Pin_12-Pad12)*%
X46910000Y2500000D03*
%TO.P,J3,11,Pin_11*%
%TO.N,Net-(J3-Pin_11)*%
X44370000Y2500000D03*
%TO.P,J3,10,Pin_10*%
%TO.N,Net-(J3-Pin_10)*%
X41830000Y2500000D03*
%TO.P,J3,9,Pin_9*%
%TO.N,Net-(J3-Pin_9)*%
X39290000Y2500000D03*
%TO.P,J3,8,Pin_8*%
%TO.N,Net-(J3-Pin_8)*%
X36750000Y2500000D03*
%TO.P,J3,7,Pin_7*%
%TO.N,Earth*%
X34210000Y2500000D03*
%TO.P,J3,6,Pin_6*%
%TO.N,Net-(J3-Pin_6)*%
X31670000Y2500000D03*
%TO.P,J3,5,Pin_5*%
%TO.N,Earth*%
X29130000Y2500000D03*
%TO.P,J3,4,Pin_4*%
%TO.N,Net-(J3-Pin_4)*%
X26590000Y2500000D03*
%TO.P,J3,3,Pin_3*%
%TO.N,Net-(J3-Pin_3)*%
X24050000Y2500000D03*
%TO.P,J3,2,Pin_2*%
%TO.N,Net-(J3-Pin_2)*%
X21510000Y2500000D03*
D11*
%TO.P,J3,1,Pin_1*%
%TO.N,Net-(J3-Pin_1)*%
X18970000Y2500000D03*
%TD*%
D12*
%TO.P,J2,16,Pin_16*%
%TO.N,Earth*%
X18950000Y37500000D03*
%TO.P,J2,15,Pin_15*%
%TO.N,Net-(J2-Pin_15)*%
X21490000Y37500000D03*
%TO.P,J2,14,Pin_14*%
%TO.N,Net-(J2-Pin_14)*%
X24030000Y37500000D03*
%TO.P,J2,13,Pin_13*%
%TO.N,Net-(J2-Pin_13)*%
X26570000Y37500000D03*
%TO.P,J2,12,Pin_12*%
%TO.N,Net-(J2-Pin_12)*%
X29110000Y37500000D03*
%TO.P,J2,11,Pin_11*%
%TO.N,Net-(J2-Pin_11)*%
X31650000Y37500000D03*
%TO.P,J2,10,Pin_10*%
%TO.N,Net-(J2-Pin_10)*%
X34190000Y37500000D03*
%TO.P,J2,9,Pin_9*%
%TO.N,Earth*%
X36730000Y37500000D03*
%TO.P,J2,8,Pin_8*%
%TO.N,Net-(J2-Pin_8)*%
X39270000Y37500000D03*
%TO.P,J2,7,Pin_7*%
%TO.N,Net-(J2-Pin_7)*%
X41810000Y37500000D03*
%TO.P,J2,6,Pin_6*%
%TO.N,Net-(J2-Pin_6)*%
X44350000Y37500000D03*
%TO.P,J2,5,Pin_5*%
%TO.N,Net-(J2-Pin_5)*%
X46890000Y37500000D03*
%TO.P,J2,4,Pin_4*%
%TO.N,Net-(J2-Pin_4)*%
X49430000Y37500000D03*
%TO.P,J2,3,Pin_3*%
%TO.N,Net-(J2-Pin_3)*%
X51970000Y37500000D03*
%TO.P,J2,2,Pin_2*%
%TO.N,Net-(J2-Pin_2)*%
X54510000Y37500000D03*
D11*
%TO.P,J2,1,Pin_1*%
%TO.N,Earth*%
X57050000Y37500000D03*
%TD*%
D13*
%TO.P,R6,1*%
%TO.N,Net-(J3-Pin_4)*%
X46750000Y8500000D03*
%TO.P,R6,2*%
%TO.N,+3.3V*%
X46750000Y6500000D03*
%TD*%
%TO.P,R5,1*%
%TO.N,Net-(J3-Pin_6)*%
X49250000Y8500000D03*
%TO.P,R5,2*%
%TO.N,+3.3V*%
X49250000Y6500000D03*
%TD*%
D14*
%TO.P,U1,22,SS*%
%TO.N,Earth*%
X26870000Y14920000D03*
%TO.P,U1,21,OS*%
%TO.N,Net-(U1-OS)*%
X29410000Y14920000D03*
%TO.P,U1,20*%
%TO.N,N/C*%
X31950000Y14920000D03*
%TO.P,U1,19*%
X34490000Y14920000D03*
%TO.P,U1,18*%
X37030000Y14920000D03*
%TO.P,U1,17*%
X39570000Y14920000D03*
%TO.P,U1,16*%
X42110000Y14920000D03*
%TO.P,U1,15*%
X44650000Y14920000D03*
%TO.P,U1,14*%
X47190000Y14920000D03*
%TO.P,U1,13*%
X49730000Y14920000D03*
%TO.P,U1,12*%
X52270000Y14920000D03*
%TO.P,U1,11*%
X52270000Y25080000D03*
%TO.P,U1,10*%
X49730000Y25080000D03*
%TO.P,U1,9*%
X47190000Y25080000D03*
%TO.P,U1,8*%
X44650000Y25080000D03*
%TO.P,U1,7*%
X42110000Y25080000D03*
%TO.P,U1,6*%
X39570000Y25080000D03*
%TO.P,U1,5,SH*%
%TO.N,Net-(J2-Pin_8)*%
X37030000Y25080000D03*
%TO.P,U1,4,M*%
%TO.N,Net-(J2-Pin_6)*%
X34490000Y25080000D03*
%TO.P,U1,3,ICG*%
%TO.N,Net-(J2-Pin_7)*%
X31950000Y25080000D03*
%TO.P,U1,2,VAD*%
%TO.N,+3.3V*%
X29410000Y25080000D03*
D15*
%TO.P,U1,1,VDD*%
X26870000Y25080000D03*
%TD*%
D16*
%TO.P,C1,2*%
%TO.N,Earth*%
X64287500Y9500000D03*
%TO.P,C1,1*%
%TO.N,+3.3V*%
X62212500Y9500000D03*
%TD*%
D17*
%TO.P,C6,2*%
%TO.N,Earth*%
X24712500Y27500000D03*
%TO.P,C6,1*%
%TO.N,+3.3V*%
X26787500Y27500000D03*
%TD*%
D18*
%TO.P,R3,1*%
%TO.N,Net-(U2-OUT2)*%
X4000000Y17750000D03*
%TO.P,R3,2*%
%TO.N,Net-(U2--IN2)*%
X4000000Y19750000D03*
%TD*%
D17*
%TO.P,C2,1*%
%TO.N,Net-(U2-+IN2)*%
X6037500Y22100000D03*
%TO.P,C2,2*%
%TO.N,Earth*%
X3962500Y22100000D03*
%TD*%
D19*
%TO.P,C5,2*%
%TO.N,Net-(U2--IN2)*%
X6250000Y19825000D03*
%TO.P,C5,1*%
%TO.N,Net-(U2-OUT2)*%
X6250000Y17750000D03*
%TD*%
D20*
%TO.P,U2,8,+VS*%
%TO.N,+3.3V*%
X9887500Y18525000D03*
%TO.P,U2,7,OUT2*%
%TO.N,Net-(U2-OUT2)*%
X9887500Y19175000D03*
%TO.P,U2,6,-IN2*%
%TO.N,Net-(U2--IN2)*%
X9887500Y19825000D03*
%TO.P,U2,5,+IN2*%
%TO.N,Net-(U2-+IN2)*%
X9887500Y20475000D03*
%TO.P,U2,4,-VS*%
%TO.N,Earth*%
X14112500Y20475000D03*
%TO.P,U2,3,+IN1*%
%TO.N,Net-(U2-+IN1)*%
X14112500Y19825000D03*
%TO.P,U2,2,-IN1*%
%TO.N,Net-(U2--IN1)*%
X14112500Y19175000D03*
%TO.P,U2,1,OUT1*%
X14112500Y18525000D03*
%TD*%
D13*
%TO.P,R4,2*%
%TO.N,Net-(U3-14_A0_TX3_SPDIF_OUT)*%
X16500000Y12750000D03*
%TO.P,R4,1*%
%TO.N,Net-(U2-OUT2)*%
X16500000Y14750000D03*
%TD*%
D21*
%TO.P,R2,2*%
%TO.N,Net-(U2--IN2)*%
X11000000Y24000000D03*
%TO.P,R2,1*%
%TO.N,Net-(U2--IN1)*%
X13000000Y24000000D03*
%TD*%
D16*
%TO.P,C3,2*%
%TO.N,Earth*%
X10325000Y12750000D03*
%TO.P,C3,1*%
%TO.N,+3.3V*%
X8250000Y12750000D03*
%TD*%
D21*
%TO.P,R1,2*%
%TO.N,Net-(U2-+IN1)*%
X17750000Y19750000D03*
%TO.P,R1,1*%
%TO.N,Net-(U1-OS)*%
X19750000Y19750000D03*
%TD*%
D16*
%TO.P,C4,2*%
%TO.N,Earth*%
X10325000Y14750000D03*
%TO.P,C4,1*%
%TO.N,+3.3V*%
X8250000Y14750000D03*
%TD*%
%TO.P,C7,1*%
%TO.N,Net-(U3-14_A0_TX3_SPDIF_OUT)*%
X36750000Y9250000D03*
%TO.P,C7,2*%
%TO.N,Earth*%
X38825000Y9250000D03*
%TD*%
D22*
%TO.P,RV1,1,1*%
%TO.N,+3.3V*%
X6960000Y28100000D03*
D23*
%TO.P,RV1,2,2*%
%TO.N,Net-(U2-+IN2)*%
X9500000Y28100000D03*
%TO.P,RV1,3,3*%
%TO.N,Earth*%
X12040000Y28100000D03*
%TD*%
D24*
%TO.P,U3,1,GND*%
%TO.N,Earth*%
X67080000Y27620000D03*
%TO.P,U3,2,0_RX1_CRX2_CS1*%
%TO.N,Net-(J2-Pin_2)*%
X64540000Y27620000D03*
%TO.P,U3,3,1_TX1_CTX2_MISO1*%
%TO.N,Net-(J2-Pin_3)*%
X62000000Y27620000D03*
%TO.P,U3,4,2_OUT2*%
%TO.N,Net-(J2-Pin_4)*%
X59460000Y27620000D03*
%TO.P,U3,5,3_LRCLK2*%
%TO.N,Net-(J2-Pin_5)*%
X56920000Y27620000D03*
%TO.P,U3,6,4_BCLK2*%
%TO.N,Net-(J2-Pin_6)*%
X54380000Y27620000D03*
%TO.P,U3,7,5_IN2*%
X51840000Y27620000D03*
%TO.P,U3,8,6_OUT1D*%
%TO.N,Net-(J2-Pin_7)*%
X49300000Y27620000D03*
%TO.P,U3,9,7_RX2_OUT1A*%
%TO.N,Net-(J2-Pin_8)*%
X46760000Y27620000D03*
%TO.P,U3,10,8_TX2_IN1*%
%TO.N,Net-(J2-Pin_10)*%
X44220000Y27620000D03*
%TO.P,U3,11,9_OUT1C*%
%TO.N,Net-(J2-Pin_11)*%
X41680000Y27620000D03*
%TO.P,U3,12,10_CS_MQSR*%
%TO.N,Net-(J2-Pin_12)*%
X39140000Y27620000D03*
%TO.P,U3,13,11_MOSI_CTX1*%
%TO.N,Net-(J2-Pin_13)*%
X36600000Y27620000D03*
%TO.P,U3,14,12_MISO_MQSL*%
%TO.N,Net-(J2-Pin_14)*%
X34060000Y27620000D03*
%TO.P,U3,20,13_SCK_CRX1_LED*%
%TO.N,Net-(J2-Pin_15)*%
X34060000Y12380000D03*
%TO.P,U3,21,14_A0_TX3_SPDIF_OUT*%
%TO.N,Net-(U3-14_A0_TX3_SPDIF_OUT)*%
X36600000Y12380000D03*
%TO.P,U3,22,15_A1_RX3_SPDIF_IN*%
%TO.N,Net-(J3-Pin_1)*%
X39140000Y12380000D03*
%TO.P,U3,23,16_A2_RX4_SCL1*%
%TO.N,Net-(J3-Pin_2)*%
X41680000Y12380000D03*
%TO.P,U3,24,17_A3_TX4_SDA1*%
%TO.N,Net-(J3-Pin_3)*%
X44220000Y12380000D03*
%TO.P,U3,25,18_A4_SDA0*%
%TO.N,Net-(J3-Pin_4)*%
X46760000Y12380000D03*
%TO.P,U3,26,19_A5_SCL0*%
%TO.N,Net-(J3-Pin_6)*%
X49300000Y12380000D03*
%TO.P,U3,27,20_A6_TX5_LRCLK1*%
%TO.N,Net-(J3-Pin_8)*%
X51840000Y12380000D03*
%TO.P,U3,28,21_A7_RX5_BCLK1*%
%TO.N,Net-(J3-Pin_9)*%
X54380000Y12380000D03*
%TO.P,U3,29,22_A8_CTX1*%
%TO.N,Net-(J3-Pin_10)*%
X56920000Y12380000D03*
%TO.P,U3,30,23_A9_CRX1_MCLK1*%
%TO.N,Net-(J3-Pin_11)*%
X59460000Y12380000D03*
%TO.P,U3,31,3V3*%
%TO.N,+3.3V*%
X62000000Y12380000D03*
%TO.P,U3,32,GND*%
%TO.N,Earth*%
X64540000Y12380000D03*
%TO.P,U3,33,VIN*%
%TO.N,Net-(J3-Pin_16)*%
X67080000Y12380000D03*
%TD*%
D25*
%TO.P,REF\u002A\u002A,1*%
%TO.N,N/C*%
X65500000Y4500000D03*
%TD*%
%TO.P,REF\u002A\u002A,1*%
%TO.N,N/C*%
X65500000Y35500000D03*
%TD*%
%TO.P,REF\u002A\u002A,1*%
%TO.N,N/C*%
X4500000Y35500000D03*
%TD*%
%TO.P,REF\u002A\u002A,1*%
%TO.N,N/C*%
X4500000Y4500000D03*
%TD*%
D26*
%TO.N,+3.3V*%
X6500000Y12750000D03*
X6500000Y14750000D03*
X44750000Y6500000D03*
X51500000Y6500000D03*
%TO.N,Earth*%
X23250000Y27500000D03*
D27*
X2500000Y22100000D03*
X11875000Y12750000D03*
X14800000Y22100000D03*
X11875000Y14750000D03*
D26*
X40157500Y9250000D03*
%TD*%
D28*
%TO.N,Net-(J2-Pin_6)*%
X54380000Y27620000D02*
X53510000Y26750000D01*
X53510000Y26750000D02*
X52710000Y26750000D01*
X52710000Y26750000D02*
X51840000Y27620000D01*
%TO.N,Net-(U2--IN1)*%
X16000000Y19000000D02*
X16000000Y18500000D01*
X14112500Y19175000D02*
X15825000Y19175000D01*
X15825000Y19175000D02*
X16000000Y19000000D01*
X16000000Y18500000D02*
X15975000Y18525000D01*
X15975000Y18525000D02*
X14112500Y18525000D01*
%TO.N,+3.3V*%
X6500000Y12750000D02*
X8250000Y12750000D01*
X8250000Y14750000D02*
X6500000Y14750000D01*
X9887500Y18525000D02*
X8250000Y16887500D01*
X8250000Y16887500D02*
X8250000Y14750000D01*
X8250000Y12750000D02*
X8250000Y14650000D01*
X49250000Y6500000D02*
X51500000Y6500000D01*
X46750000Y6500000D02*
X44750000Y6500000D01*
%TO.N,Net-(J2-Pin_15)*%
X21490000Y37500000D02*
X21100000Y37110000D01*
X30750000Y27460000D02*
X30750000Y13750000D01*
X21100000Y37110000D02*
X30750000Y27460000D01*
X30750000Y13750000D02*
X32120000Y12380000D01*
X32120000Y12380000D02*
X34060000Y12380000D01*
%TO.N,Net-(J3-Pin_6)*%
X49250000Y8500000D02*
X48324000Y7574000D01*
X48324000Y7574000D02*
X43574000Y7574000D01*
X43574000Y7574000D02*
X41750000Y5750000D01*
X41750000Y5750000D02*
X34920000Y5750000D01*
X34920000Y5750000D02*
X31670000Y2500000D01*
%TO.N,Net-(J3-Pin_4)*%
X46760000Y12380000D02*
X41880000Y7500000D01*
X41880000Y7500000D02*
X31590000Y7500000D01*
X31590000Y7500000D02*
X26590000Y2500000D01*
%TO.N,Net-(J3-Pin_6)*%
X49300000Y12380000D02*
X49300000Y8550000D01*
X49300000Y8550000D02*
X49250000Y8500000D01*
%TO.N,Net-(J3-Pin_4)*%
X46760000Y12380000D02*
X46760000Y8510000D01*
X46760000Y8510000D02*
X46750000Y8500000D01*
%TO.N,+3.3V*%
X62462500Y9500000D02*
X62000000Y9962500D01*
X62000000Y9962500D02*
X62000000Y12380000D01*
%TO.N,Earth*%
X24712500Y27500000D02*
X23250000Y27500000D01*
%TO.N,Net-(J2-Pin_11)*%
X31650000Y37500000D02*
X41530000Y27620000D01*
X41530000Y27620000D02*
X41680000Y27620000D01*
%TO.N,+3.3V*%
X26925000Y27500000D02*
X26925000Y25135000D01*
X26925000Y25135000D02*
X26870000Y25080000D01*
%TO.N,Net-(U2--IN2)*%
X9887500Y19825000D02*
X11125000Y19825000D01*
X11500000Y22675000D02*
X11000000Y23175000D01*
X11000000Y23175000D02*
X11000000Y24000000D01*
X11125000Y19825000D02*
X11500000Y20200000D01*
X11500000Y20200000D02*
X11500000Y22675000D01*
%TO.N,Net-(U2--IN1)*%
X13000000Y23000000D02*
X12500000Y22500000D01*
X13000000Y24000000D02*
X13000000Y23000000D01*
X12500000Y22500000D02*
X12500000Y19850000D01*
X12500000Y19850000D02*
X13175000Y19175000D01*
X13175000Y19175000D02*
X14112500Y19175000D01*
%TO.N,Net-(U2-+IN1)*%
X14112500Y19825000D02*
X17675000Y19825000D01*
X17675000Y19825000D02*
X17750000Y19750000D01*
%TO.N,Net-(U1-OS)*%
X29410000Y14920000D02*
X29410000Y15340000D01*
X29410000Y15340000D02*
X25000000Y19750000D01*
X25000000Y19750000D02*
X19750000Y19750000D01*
%TO.N,Net-(U2--IN2)*%
X9887500Y19825000D02*
X6250000Y19825000D01*
X6250000Y19825000D02*
X4075000Y19825000D01*
X4075000Y19825000D02*
X4000000Y19750000D01*
%TO.N,Net-(U2-OUT2)*%
X6250000Y17750000D02*
X6750000Y17750000D01*
X6750000Y17750000D02*
X8175000Y19175000D01*
X4000000Y17750000D02*
X6250000Y17750000D01*
X8175000Y19175000D02*
X9887500Y19175000D01*
%TO.N,Net-(U2-+IN2)*%
X6037500Y22100000D02*
X9475000Y22100000D01*
%TO.N,Net-(U3-14_A0_TX3_SPDIF_OUT)*%
X16500000Y12750000D02*
X16500000Y12300000D01*
X16500000Y12300000D02*
X19262500Y9537500D01*
%TO.N,Net-(U2-OUT2)*%
X9887500Y19175000D02*
X11075000Y19175000D01*
X11075000Y19175000D02*
X15500000Y14750000D01*
X15500000Y14750000D02*
X16500000Y14750000D01*
D29*
%TO.N,Net-(U2-+IN2)*%
X9475000Y22100000D02*
X9887500Y21687500D01*
D28*
%TO.N,Net-(U3-14_A0_TX3_SPDIF_OUT)*%
X36600000Y12380000D02*
X36600000Y9537500D01*
X36600000Y9537500D02*
X19262500Y9537500D01*
%TO.N,Earth*%
X64537500Y9500000D02*
X64537500Y12377500D01*
X64537500Y12377500D02*
X64540000Y12380000D01*
%TO.N,Net-(J2-Pin_8)*%
X39270000Y37500000D02*
X39270000Y35110000D01*
X39270000Y35110000D02*
X46760000Y27620000D01*
%TO.N,Net-(J2-Pin_7)*%
X41810000Y35110000D02*
X41835000Y35085000D01*
X41810000Y37500000D02*
X41810000Y35110000D01*
X41835000Y35085000D02*
X49300000Y27620000D01*
%TO.N,Net-(J2-Pin_6)*%
X44350000Y37500000D02*
X54230000Y27620000D01*
X54230000Y27620000D02*
X54380000Y27620000D01*
%TO.N,Net-(J2-Pin_5)*%
X46890000Y37500000D02*
X56770000Y27620000D01*
X56770000Y27620000D02*
X56920000Y27620000D01*
%TO.N,Net-(J2-Pin_2)*%
X54510000Y37500000D02*
X64390000Y27620000D01*
X64390000Y27620000D02*
X64540000Y27620000D01*
%TO.N,Net-(J2-Pin_4)*%
X49890000Y37040000D02*
X50040000Y37040000D01*
X50040000Y37040000D02*
X59460000Y27620000D01*
%TO.N,Net-(J2-Pin_3)*%
X52430000Y37040000D02*
X52580000Y37040000D01*
X52580000Y37040000D02*
X62000000Y27620000D01*
%TO.N,Net-(J2-Pin_14)*%
X24490000Y37040000D02*
X24640000Y37040000D01*
X24640000Y37040000D02*
X34060000Y27620000D01*
%TO.N,Net-(J2-Pin_12)*%
X29570000Y37040000D02*
X29720000Y37040000D01*
X29720000Y37040000D02*
X39140000Y27620000D01*
%TO.N,Net-(J2-Pin_10)*%
X34650000Y37040000D02*
X34800000Y37040000D01*
X34800000Y37040000D02*
X44220000Y27620000D01*
%TO.N,Net-(J2-Pin_13)*%
X27030000Y37040000D02*
X27180000Y37040000D01*
X27180000Y37040000D02*
X36600000Y27620000D01*
%TO.N,+3.3V*%
X9625000Y18525000D02*
X9887500Y18525000D01*
%TO.N,Earth*%
X11875000Y12750000D02*
X10325000Y12750000D01*
X10325000Y14750000D02*
X11875000Y14750000D01*
D29*
X4025000Y22100000D02*
X2500000Y22100000D01*
X38642500Y9250000D02*
X40157500Y9250000D01*
X14800000Y22100000D02*
X14112500Y21412500D01*
D28*
X9962500Y12850000D02*
X10062500Y12750000D01*
D29*
X14112500Y21412500D02*
X14112500Y20475000D01*
%TO.N,Net-(U2-+IN2)*%
X9500000Y22125000D02*
X9500000Y28100000D01*
X9887500Y20475000D02*
X9887500Y21687500D01*
D28*
%TO.N,Net-(J2-Pin_4)*%
X49890000Y37040000D02*
X49430000Y37500000D01*
%TO.N,Net-(J2-Pin_10)*%
X34650000Y37040000D02*
X34190000Y37500000D01*
%TO.N,Net-(J2-Pin_3)*%
X52430000Y37040000D02*
X51970000Y37500000D01*
%TO.N,Net-(J2-Pin_14)*%
X24490000Y37040000D02*
X24030000Y37500000D01*
%TO.N,Net-(J2-Pin_13)*%
X27030000Y37040000D02*
X26570000Y37500000D01*
%TO.N,Net-(J2-Pin_12)*%
X29570000Y37040000D02*
X29110000Y37500000D01*
%TD*%
M02*
