M48
; DRILL file {KiCad 9.0.4-9.0.4-0~ubuntu24.04.1} date 2025-09-07T14:46:55-0400
; FORMAT={-:-/ absolute / metric / decimal}
; #@! TF.CreationDate,2025-09-07T14:46:55-04:00
; #@! TF.GenerationSoftware,Kicad,Pcbnew,9.0.4-9.0.4-0~ubuntu24.04.1
; #@! TF.FileFunction,Plated,1,4,PTH
FMAT,2
METRIC
; #@! TA.AperFunction,Plated,PTH,ViaDrill
T1C0.400
; #@! TA.AperFunction,Plated,PTH,ViaDrill
T2C0.500
; #@! TA.AperFunction,Plated,PTH,ComponentDrill
T3C0.710
; #@! TA.AperFunction,Plated,PTH,ComponentDrill
T4C0.860
; #@! TA.AperFunction,Plated,PTH,ComponentDrill
T5C1.000
; #@! TA.AperFunction,Plated,PTH,ComponentDrill
T6C1.100
; #@! TA.AperFunction,Plated,PTH,ComponentDrill
T7C3.200
%
G90
G05
T1
X6.5Y14.75
X6.5Y12.75
X23.25Y27.5
X40.157Y9.25
X44.75Y6.5
X51.5Y6.5
T2
X2.5Y22.1
X11.875Y14.75
X11.875Y12.75
X14.8Y22.1
T3
X6.96Y28.1
X9.5Y28.1
X12.04Y28.1
T4
X26.87Y25.08
X26.87Y14.92
X29.41Y25.08
X29.41Y14.92
X31.95Y25.08
X31.95Y14.92
X34.49Y25.08
X34.49Y14.92
X37.03Y25.08
X37.03Y14.92
X39.57Y25.08
X39.57Y14.92
X42.11Y25.08
X42.11Y14.92
X44.65Y25.08
X44.65Y14.92
X47.19Y25.08
X47.19Y14.92
X49.73Y25.08
X49.73Y14.92
X52.27Y25.08
X52.27Y14.92
T5
X18.95Y37.5
X18.97Y2.5
X21.49Y37.5
X21.51Y2.5
X24.03Y37.5
X24.05Y2.5
X26.57Y37.5
X26.59Y2.5
X29.11Y37.5
X29.13Y2.5
X31.65Y37.5
X31.67Y2.5
X34.19Y37.5
X34.21Y2.5
X36.73Y37.5
X36.75Y2.5
X39.27Y37.5
X39.29Y2.5
X41.81Y37.5
X41.83Y2.5
X44.35Y37.5
X44.37Y2.5
X46.89Y37.5
X46.91Y2.5
X49.43Y37.5
X49.45Y2.5
X51.97Y37.5
X51.99Y2.5
X54.51Y37.5
X54.53Y2.5
X57.05Y37.5
X57.07Y2.5
T6
X34.06Y27.62
X34.06Y12.38
X36.6Y27.62
X36.6Y12.38
X39.14Y27.62
X39.14Y12.38
X41.68Y27.62
X41.68Y12.38
X44.22Y27.62
X44.22Y12.38
X46.76Y27.62
X46.76Y12.38
X49.3Y27.62
X49.3Y12.38
X51.84Y27.62
X51.84Y12.38
X54.38Y27.62
X54.38Y12.38
X56.92Y27.62
X56.92Y12.38
X59.46Y27.62
X59.46Y12.38
X62.0Y27.62
X62.0Y12.38
X64.54Y27.62
X64.54Y12.38
X67.08Y27.62
X67.08Y12.38
T7
X4.5Y35.5
X4.5Y4.5
X65.5Y35.5
X65.5Y4.5
M30
