%TF.GenerationSoftware,KiCad,Pcbnew,9.0.4-9.0.4-0~ubuntu24.04.1*%
%TF.CreationDate,2025-09-07T14:44:52-04:00*%
%TF.ProjectId,TCD1304Rev2,54434431-3330-4345-9265-76322e6b6963,rev?*%
%TF.SameCoordinates,PX7270e00PY7270e00*%
%TF.FileFunction,Legend,Top*%
%TF.FilePolarity,Positive*%
%FSLAX46Y46*%
G04 Gerber Fmt 4.6, Leading zero omitted, Abs format (unit mm)*
G04 Created by KiCad (PCBNEW 9.0.4-9.0.4-0~ubuntu24.04.1) date 2025-09-07 14:44:52*
%MOMM*%
%LPD*%
G01*
G04 APERTURE LIST*
G04 Aperture macros list*
%AMRoundRect*
0 Rectangle with rounded corners*
0 $1 Rounding radius*
0 $2 $3 $4 $5 $6 $7 $8 $9 X,Y pos of 4 corners*
0 Add a 4 corners polygon primitive as box body*
4,1,4,$2,$3,$4,$5,$6,$7,$8,$9,$2,$3,0*
0 Add four circle primitives for the rounded corners*
1,1,$1+$1,$2,$3*
1,1,$1+$1,$4,$5*
1,1,$1+$1,$6,$7*
1,1,$1+$1,$8,$9*
0 Add four rect primitives between the rounded corners*
20,1,$1+$1,$2,$3,$4,$5,0*
20,1,$1+$1,$4,$5,$6,$7,0*
20,1,$1+$1,$6,$7,$8,$9,0*
20,1,$1+$1,$8,$9,$2,$3,0*%
G04 Aperture macros list end*
%ADD10C,0.150000*%
%ADD11C,0.120000*%
%ADD12C,0.127000*%
%ADD13C,0.200000*%
%ADD14C,0.100000*%
%ADD15C,1.700000*%
%ADD16R,1.700000X1.700000*%
%ADD17O,1.700000X1.700000*%
%ADD18RoundRect,0.250000X-0.450000X0.350000X-0.450000X-0.350000X0.450000X-0.350000X0.450000X0.350000X0*%
%ADD19C,1.290000*%
%ADD20R,1.290000X1.290000*%
%ADD21RoundRect,0.250000X-0.337500X-0.475000X0.337500X-0.475000X0.337500X0.475000X-0.337500X0.475000X0*%
%ADD22RoundRect,0.250000X0.337500X0.475000X-0.337500X0.475000X-0.337500X-0.475000X0.337500X-0.475000X0*%
%ADD23RoundRect,0.250000X0.450000X-0.350000X0.450000X0.350000X-0.450000X0.350000X-0.450000X-0.350000X0*%
%ADD24RoundRect,0.250000X0.475000X-0.337500X0.475000X0.337500X-0.475000X0.337500X-0.475000X-0.337500X0*%
%ADD25RoundRect,0.100000X0.712500X0.100000X-0.712500X0.100000X-0.712500X-0.100000X0.712500X-0.100000X0*%
%ADD26RoundRect,0.250000X0.350000X0.450000X-0.350000X0.450000X-0.350000X-0.450000X0.350000X-0.450000X0*%
%ADD27R,1.218000X1.218000*%
%ADD28C,1.218000*%
%ADD29C,1.600000*%
%ADD30C,5.600000*%
%ADD31C,0.800000*%
%ADD32C,1.000000*%
G04 APERTURE END LIST*
D10*
X16044819Y2166667D02*
X16759104Y2166667D01*
X16759104Y2166667D02*
X16901961Y2119048D01*
X16901961Y2119048D02*
X16997200Y2023810D01*
X16997200Y2023810D02*
X17044819Y1880953D01*
X17044819Y1880953D02*
X17044819Y1785715D01*
X16044819Y2547620D02*
X16044819Y3166667D01*
X16044819Y3166667D02*
X16425771Y2833334D01*
X16425771Y2833334D02*
X16425771Y2976191D01*
X16425771Y2976191D02*
X16473390Y3071429D01*
X16473390Y3071429D02*
X16521009Y3119048D01*
X16521009Y3119048D02*
X16616247Y3166667D01*
X16616247Y3166667D02*
X16854342Y3166667D01*
X16854342Y3166667D02*
X16949580Y3119048D01*
X16949580Y3119048D02*
X16997200Y3071429D01*
X16997200Y3071429D02*
X17044819Y2976191D01*
X17044819Y2976191D02*
X17044819Y2690477D01*
X17044819Y2690477D02*
X16997200Y2595239D01*
X16997200Y2595239D02*
X16949580Y2547620D01*
X58834819Y37166667D02*
X59549104Y37166667D01*
X59549104Y37166667D02*
X59691961Y37119048D01*
X59691961Y37119048D02*
X59787200Y37023810D01*
X59787200Y37023810D02*
X59834819Y36880953D01*
X59834819Y36880953D02*
X59834819Y36785715D01*
X58930057Y37595239D02*
X58882438Y37642858D01*
X58882438Y37642858D02*
X58834819Y37738096D01*
X58834819Y37738096D02*
X58834819Y37976191D01*
X58834819Y37976191D02*
X58882438Y38071429D01*
X58882438Y38071429D02*
X58930057Y38119048D01*
X58930057Y38119048D02*
X59025295Y38166667D01*
X59025295Y38166667D02*
X59120533Y38166667D01*
X59120533Y38166667D02*
X59263390Y38119048D01*
X59263390Y38119048D02*
X59834819Y37547620D01*
X59834819Y37547620D02*
X59834819Y38166667D01*
X44583333Y8045181D02*
X44250000Y8521372D01*
X44011905Y8045181D02*
X44011905Y9045181D01*
X44011905Y9045181D02*
X44392857Y9045181D01*
X44392857Y9045181D02*
X44488095Y8997562D01*
X44488095Y8997562D02*
X44535714Y8949943D01*
X44535714Y8949943D02*
X44583333Y8854705D01*
X44583333Y8854705D02*
X44583333Y8711848D01*
X44583333Y8711848D02*
X44535714Y8616610D01*
X44535714Y8616610D02*
X44488095Y8568991D01*
X44488095Y8568991D02*
X44392857Y8521372D01*
X44392857Y8521372D02*
X44011905Y8521372D01*
X45440476Y9045181D02*
X45250000Y9045181D01*
X45250000Y9045181D02*
X45154762Y8997562D01*
X45154762Y8997562D02*
X45107143Y8949943D01*
X45107143Y8949943D02*
X45011905Y8807086D01*
X45011905Y8807086D02*
X44964286Y8616610D01*
X44964286Y8616610D02*
X44964286Y8235658D01*
X44964286Y8235658D02*
X45011905Y8140420D01*
X45011905Y8140420D02*
X45059524Y8092800D01*
X45059524Y8092800D02*
X45154762Y8045181D01*
X45154762Y8045181D02*
X45345238Y8045181D01*
X45345238Y8045181D02*
X45440476Y8092800D01*
X45440476Y8092800D02*
X45488095Y8140420D01*
X45488095Y8140420D02*
X45535714Y8235658D01*
X45535714Y8235658D02*
X45535714Y8473753D01*
X45535714Y8473753D02*
X45488095Y8568991D01*
X45488095Y8568991D02*
X45440476Y8616610D01*
X45440476Y8616610D02*
X45345238Y8664229D01*
X45345238Y8664229D02*
X45154762Y8664229D01*
X45154762Y8664229D02*
X45059524Y8616610D01*
X45059524Y8616610D02*
X45011905Y8568991D01*
X45011905Y8568991D02*
X44964286Y8473753D01*
X51083333Y8045181D02*
X50750000Y8521372D01*
X50511905Y8045181D02*
X50511905Y9045181D01*
X50511905Y9045181D02*
X50892857Y9045181D01*
X50892857Y9045181D02*
X50988095Y8997562D01*
X50988095Y8997562D02*
X51035714Y8949943D01*
X51035714Y8949943D02*
X51083333Y8854705D01*
X51083333Y8854705D02*
X51083333Y8711848D01*
X51083333Y8711848D02*
X51035714Y8616610D01*
X51035714Y8616610D02*
X50988095Y8568991D01*
X50988095Y8568991D02*
X50892857Y8521372D01*
X50892857Y8521372D02*
X50511905Y8521372D01*
X51988095Y9045181D02*
X51511905Y9045181D01*
X51511905Y9045181D02*
X51464286Y8568991D01*
X51464286Y8568991D02*
X51511905Y8616610D01*
X51511905Y8616610D02*
X51607143Y8664229D01*
X51607143Y8664229D02*
X51845238Y8664229D01*
X51845238Y8664229D02*
X51940476Y8616610D01*
X51940476Y8616610D02*
X51988095Y8568991D01*
X51988095Y8568991D02*
X52035714Y8473753D01*
X52035714Y8473753D02*
X52035714Y8235658D01*
X52035714Y8235658D02*
X51988095Y8140420D01*
X51988095Y8140420D02*
X51940476Y8092800D01*
X51940476Y8092800D02*
X51845238Y8045181D01*
X51845238Y8045181D02*
X51607143Y8045181D01*
X51607143Y8045181D02*
X51511905Y8092800D01*
X51511905Y8092800D02*
X51464286Y8140420D01*
X60333333Y9140420D02*
X60285714Y9092800D01*
X60285714Y9092800D02*
X60142857Y9045181D01*
X60142857Y9045181D02*
X60047619Y9045181D01*
X60047619Y9045181D02*
X59904762Y9092800D01*
X59904762Y9092800D02*
X59809524Y9188039D01*
X59809524Y9188039D02*
X59761905Y9283277D01*
X59761905Y9283277D02*
X59714286Y9473753D01*
X59714286Y9473753D02*
X59714286Y9616610D01*
X59714286Y9616610D02*
X59761905Y9807086D01*
X59761905Y9807086D02*
X59809524Y9902324D01*
X59809524Y9902324D02*
X59904762Y9997562D01*
X59904762Y9997562D02*
X60047619Y10045181D01*
X60047619Y10045181D02*
X60142857Y10045181D01*
X60142857Y10045181D02*
X60285714Y9997562D01*
X60285714Y9997562D02*
X60333333Y9949943D01*
X61285714Y9045181D02*
X60714286Y9045181D01*
X61000000Y9045181D02*
X61000000Y10045181D01*
X61000000Y10045181D02*
X60904762Y9902324D01*
X60904762Y9902324D02*
X60809524Y9807086D01*
X60809524Y9807086D02*
X60714286Y9759467D01*
X25583333Y28640420D02*
X25535714Y28592800D01*
X25535714Y28592800D02*
X25392857Y28545181D01*
X25392857Y28545181D02*
X25297619Y28545181D01*
X25297619Y28545181D02*
X25154762Y28592800D01*
X25154762Y28592800D02*
X25059524Y28688039D01*
X25059524Y28688039D02*
X25011905Y28783277D01*
X25011905Y28783277D02*
X24964286Y28973753D01*
X24964286Y28973753D02*
X24964286Y29116610D01*
X24964286Y29116610D02*
X25011905Y29307086D01*
X25011905Y29307086D02*
X25059524Y29402324D01*
X25059524Y29402324D02*
X25154762Y29497562D01*
X25154762Y29497562D02*
X25297619Y29545181D01*
X25297619Y29545181D02*
X25392857Y29545181D01*
X25392857Y29545181D02*
X25535714Y29497562D01*
X25535714Y29497562D02*
X25583333Y29449943D01*
X26440476Y29545181D02*
X26250000Y29545181D01*
X26250000Y29545181D02*
X26154762Y29497562D01*
X26154762Y29497562D02*
X26107143Y29449943D01*
X26107143Y29449943D02*
X26011905Y29307086D01*
X26011905Y29307086D02*
X25964286Y29116610D01*
X25964286Y29116610D02*
X25964286Y28735658D01*
X25964286Y28735658D02*
X26011905Y28640420D01*
X26011905Y28640420D02*
X26059524Y28592800D01*
X26059524Y28592800D02*
X26154762Y28545181D01*
X26154762Y28545181D02*
X26345238Y28545181D01*
X26345238Y28545181D02*
X26440476Y28592800D01*
X26440476Y28592800D02*
X26488095Y28640420D01*
X26488095Y28640420D02*
X26535714Y28735658D01*
X26535714Y28735658D02*
X26535714Y28973753D01*
X26535714Y28973753D02*
X26488095Y29068991D01*
X26488095Y29068991D02*
X26440476Y29116610D01*
X26440476Y29116610D02*
X26345238Y29164229D01*
X26345238Y29164229D02*
X26154762Y29164229D01*
X26154762Y29164229D02*
X26059524Y29116610D01*
X26059524Y29116610D02*
X26011905Y29068991D01*
X26011905Y29068991D02*
X25964286Y28973753D01*
X4454819Y15833334D02*
X3978628Y15500001D01*
X4454819Y15261906D02*
X3454819Y15261906D01*
X3454819Y15261906D02*
X3454819Y15642858D01*
X3454819Y15642858D02*
X3502438Y15738096D01*
X3502438Y15738096D02*
X3550057Y15785715D01*
X3550057Y15785715D02*
X3645295Y15833334D01*
X3645295Y15833334D02*
X3788152Y15833334D01*
X3788152Y15833334D02*
X3883390Y15785715D01*
X3883390Y15785715D02*
X3931009Y15738096D01*
X3931009Y15738096D02*
X3978628Y15642858D01*
X3978628Y15642858D02*
X3978628Y15261906D01*
X3454819Y16166668D02*
X3454819Y16785715D01*
X3454819Y16785715D02*
X3835771Y16452382D01*
X3835771Y16452382D02*
X3835771Y16595239D01*
X3835771Y16595239D02*
X3883390Y16690477D01*
X3883390Y16690477D02*
X3931009Y16738096D01*
X3931009Y16738096D02*
X4026247Y16785715D01*
X4026247Y16785715D02*
X4264342Y16785715D01*
X4264342Y16785715D02*
X4359580Y16738096D01*
X4359580Y16738096D02*
X4407200Y16690477D01*
X4407200Y16690477D02*
X4454819Y16595239D01*
X4454819Y16595239D02*
X4454819Y16309525D01*
X4454819Y16309525D02*
X4407200Y16214287D01*
X4407200Y16214287D02*
X4359580Y16166668D01*
X4833333Y23390420D02*
X4785714Y23342800D01*
X4785714Y23342800D02*
X4642857Y23295181D01*
X4642857Y23295181D02*
X4547619Y23295181D01*
X4547619Y23295181D02*
X4404762Y23342800D01*
X4404762Y23342800D02*
X4309524Y23438039D01*
X4309524Y23438039D02*
X4261905Y23533277D01*
X4261905Y23533277D02*
X4214286Y23723753D01*
X4214286Y23723753D02*
X4214286Y23866610D01*
X4214286Y23866610D02*
X4261905Y24057086D01*
X4261905Y24057086D02*
X4309524Y24152324D01*
X4309524Y24152324D02*
X4404762Y24247562D01*
X4404762Y24247562D02*
X4547619Y24295181D01*
X4547619Y24295181D02*
X4642857Y24295181D01*
X4642857Y24295181D02*
X4785714Y24247562D01*
X4785714Y24247562D02*
X4833333Y24199943D01*
X5214286Y24199943D02*
X5261905Y24247562D01*
X5261905Y24247562D02*
X5357143Y24295181D01*
X5357143Y24295181D02*
X5595238Y24295181D01*
X5595238Y24295181D02*
X5690476Y24247562D01*
X5690476Y24247562D02*
X5738095Y24199943D01*
X5738095Y24199943D02*
X5785714Y24104705D01*
X5785714Y24104705D02*
X5785714Y24009467D01*
X5785714Y24009467D02*
X5738095Y23866610D01*
X5738095Y23866610D02*
X5166667Y23295181D01*
X5166667Y23295181D02*
X5785714Y23295181D01*
X6609580Y15833334D02*
X6657200Y15785715D01*
X6657200Y15785715D02*
X6704819Y15642858D01*
X6704819Y15642858D02*
X6704819Y15547620D01*
X6704819Y15547620D02*
X6657200Y15404763D01*
X6657200Y15404763D02*
X6561961Y15309525D01*
X6561961Y15309525D02*
X6466723Y15261906D01*
X6466723Y15261906D02*
X6276247Y15214287D01*
X6276247Y15214287D02*
X6133390Y15214287D01*
X6133390Y15214287D02*
X5942914Y15261906D01*
X5942914Y15261906D02*
X5847676Y15309525D01*
X5847676Y15309525D02*
X5752438Y15404763D01*
X5752438Y15404763D02*
X5704819Y15547620D01*
X5704819Y15547620D02*
X5704819Y15642858D01*
X5704819Y15642858D02*
X5752438Y15785715D01*
X5752438Y15785715D02*
X5800057Y15833334D01*
X5704819Y16738096D02*
X5704819Y16261906D01*
X5704819Y16261906D02*
X6181009Y16214287D01*
X6181009Y16214287D02*
X6133390Y16261906D01*
X6133390Y16261906D02*
X6085771Y16357144D01*
X6085771Y16357144D02*
X6085771Y16595239D01*
X6085771Y16595239D02*
X6133390Y16690477D01*
X6133390Y16690477D02*
X6181009Y16738096D01*
X6181009Y16738096D02*
X6276247Y16785715D01*
X6276247Y16785715D02*
X6514342Y16785715D01*
X6514342Y16785715D02*
X6609580Y16738096D01*
X6609580Y16738096D02*
X6657200Y16690477D01*
X6657200Y16690477D02*
X6704819Y16595239D01*
X6704819Y16595239D02*
X6704819Y16357144D01*
X6704819Y16357144D02*
X6657200Y16261906D01*
X6657200Y16261906D02*
X6609580Y16214287D01*
X11488095Y17545181D02*
X11488095Y16735658D01*
X11488095Y16735658D02*
X11535714Y16640420D01*
X11535714Y16640420D02*
X11583333Y16592800D01*
X11583333Y16592800D02*
X11678571Y16545181D01*
X11678571Y16545181D02*
X11869047Y16545181D01*
X11869047Y16545181D02*
X11964285Y16592800D01*
X11964285Y16592800D02*
X12011904Y16640420D01*
X12011904Y16640420D02*
X12059523Y16735658D01*
X12059523Y16735658D02*
X12059523Y17545181D01*
X12488095Y17449943D02*
X12535714Y17497562D01*
X12535714Y17497562D02*
X12630952Y17545181D01*
X12630952Y17545181D02*
X12869047Y17545181D01*
X12869047Y17545181D02*
X12964285Y17497562D01*
X12964285Y17497562D02*
X13011904Y17449943D01*
X13011904Y17449943D02*
X13059523Y17354705D01*
X13059523Y17354705D02*
X13059523Y17259467D01*
X13059523Y17259467D02*
X13011904Y17116610D01*
X13011904Y17116610D02*
X12440476Y16545181D01*
X12440476Y16545181D02*
X13059523Y16545181D01*
X18604819Y13583334D02*
X18128628Y13250001D01*
X18604819Y13011906D02*
X17604819Y13011906D01*
X17604819Y13011906D02*
X17604819Y13392858D01*
X17604819Y13392858D02*
X17652438Y13488096D01*
X17652438Y13488096D02*
X17700057Y13535715D01*
X17700057Y13535715D02*
X17795295Y13583334D01*
X17795295Y13583334D02*
X17938152Y13583334D01*
X17938152Y13583334D02*
X18033390Y13535715D01*
X18033390Y13535715D02*
X18081009Y13488096D01*
X18081009Y13488096D02*
X18128628Y13392858D01*
X18128628Y13392858D02*
X18128628Y13011906D01*
X17938152Y14440477D02*
X18604819Y14440477D01*
X17557200Y14202382D02*
X18271485Y13964287D01*
X18271485Y13964287D02*
X18271485Y14583334D01*
X11833333Y21895181D02*
X11500000Y22371372D01*
X11261905Y21895181D02*
X11261905Y22895181D01*
X11261905Y22895181D02*
X11642857Y22895181D01*
X11642857Y22895181D02*
X11738095Y22847562D01*
X11738095Y22847562D02*
X11785714Y22799943D01*
X11785714Y22799943D02*
X11833333Y22704705D01*
X11833333Y22704705D02*
X11833333Y22561848D01*
X11833333Y22561848D02*
X11785714Y22466610D01*
X11785714Y22466610D02*
X11738095Y22418991D01*
X11738095Y22418991D02*
X11642857Y22371372D01*
X11642857Y22371372D02*
X11261905Y22371372D01*
X12214286Y22799943D02*
X12261905Y22847562D01*
X12261905Y22847562D02*
X12357143Y22895181D01*
X12357143Y22895181D02*
X12595238Y22895181D01*
X12595238Y22895181D02*
X12690476Y22847562D01*
X12690476Y22847562D02*
X12738095Y22799943D01*
X12738095Y22799943D02*
X12785714Y22704705D01*
X12785714Y22704705D02*
X12785714Y22609467D01*
X12785714Y22609467D02*
X12738095Y22466610D01*
X12738095Y22466610D02*
X12166667Y21895181D01*
X12166667Y21895181D02*
X12785714Y21895181D01*
X9083333Y10540420D02*
X9035714Y10492800D01*
X9035714Y10492800D02*
X8892857Y10445181D01*
X8892857Y10445181D02*
X8797619Y10445181D01*
X8797619Y10445181D02*
X8654762Y10492800D01*
X8654762Y10492800D02*
X8559524Y10588039D01*
X8559524Y10588039D02*
X8511905Y10683277D01*
X8511905Y10683277D02*
X8464286Y10873753D01*
X8464286Y10873753D02*
X8464286Y11016610D01*
X8464286Y11016610D02*
X8511905Y11207086D01*
X8511905Y11207086D02*
X8559524Y11302324D01*
X8559524Y11302324D02*
X8654762Y11397562D01*
X8654762Y11397562D02*
X8797619Y11445181D01*
X8797619Y11445181D02*
X8892857Y11445181D01*
X8892857Y11445181D02*
X9035714Y11397562D01*
X9035714Y11397562D02*
X9083333Y11349943D01*
X9416667Y11445181D02*
X10035714Y11445181D01*
X10035714Y11445181D02*
X9702381Y11064229D01*
X9702381Y11064229D02*
X9845238Y11064229D01*
X9845238Y11064229D02*
X9940476Y11016610D01*
X9940476Y11016610D02*
X9988095Y10968991D01*
X9988095Y10968991D02*
X10035714Y10873753D01*
X10035714Y10873753D02*
X10035714Y10635658D01*
X10035714Y10635658D02*
X9988095Y10540420D01*
X9988095Y10540420D02*
X9940476Y10492800D01*
X9940476Y10492800D02*
X9845238Y10445181D01*
X9845238Y10445181D02*
X9559524Y10445181D01*
X9559524Y10445181D02*
X9464286Y10492800D01*
X9464286Y10492800D02*
X9416667Y10540420D01*
X18583333Y17645181D02*
X18250000Y18121372D01*
X18011905Y17645181D02*
X18011905Y18645181D01*
X18011905Y18645181D02*
X18392857Y18645181D01*
X18392857Y18645181D02*
X18488095Y18597562D01*
X18488095Y18597562D02*
X18535714Y18549943D01*
X18535714Y18549943D02*
X18583333Y18454705D01*
X18583333Y18454705D02*
X18583333Y18311848D01*
X18583333Y18311848D02*
X18535714Y18216610D01*
X18535714Y18216610D02*
X18488095Y18168991D01*
X18488095Y18168991D02*
X18392857Y18121372D01*
X18392857Y18121372D02*
X18011905Y18121372D01*
X19535714Y17645181D02*
X18964286Y17645181D01*
X19250000Y17645181D02*
X19250000Y18645181D01*
X19250000Y18645181D02*
X19154762Y18502324D01*
X19154762Y18502324D02*
X19059524Y18407086D01*
X19059524Y18407086D02*
X18964286Y18359467D01*
X8833333Y16070420D02*
X8785714Y16022800D01*
X8785714Y16022800D02*
X8642857Y15975181D01*
X8642857Y15975181D02*
X8547619Y15975181D01*
X8547619Y15975181D02*
X8404762Y16022800D01*
X8404762Y16022800D02*
X8309524Y16118039D01*
X8309524Y16118039D02*
X8261905Y16213277D01*
X8261905Y16213277D02*
X8214286Y16403753D01*
X8214286Y16403753D02*
X8214286Y16546610D01*
X8214286Y16546610D02*
X8261905Y16737086D01*
X8261905Y16737086D02*
X8309524Y16832324D01*
X8309524Y16832324D02*
X8404762Y16927562D01*
X8404762Y16927562D02*
X8547619Y16975181D01*
X8547619Y16975181D02*
X8642857Y16975181D01*
X8642857Y16975181D02*
X8785714Y16927562D01*
X8785714Y16927562D02*
X8833333Y16879943D01*
X9690476Y16641848D02*
X9690476Y15975181D01*
X9452381Y17022800D02*
X9214286Y16308515D01*
X9214286Y16308515D02*
X9833333Y16308515D01*
X34583333Y8890420D02*
X34535714Y8842800D01*
X34535714Y8842800D02*
X34392857Y8795181D01*
X34392857Y8795181D02*
X34297619Y8795181D01*
X34297619Y8795181D02*
X34154762Y8842800D01*
X34154762Y8842800D02*
X34059524Y8938039D01*
X34059524Y8938039D02*
X34011905Y9033277D01*
X34011905Y9033277D02*
X33964286Y9223753D01*
X33964286Y9223753D02*
X33964286Y9366610D01*
X33964286Y9366610D02*
X34011905Y9557086D01*
X34011905Y9557086D02*
X34059524Y9652324D01*
X34059524Y9652324D02*
X34154762Y9747562D01*
X34154762Y9747562D02*
X34297619Y9795181D01*
X34297619Y9795181D02*
X34392857Y9795181D01*
X34392857Y9795181D02*
X34535714Y9747562D01*
X34535714Y9747562D02*
X34583333Y9699943D01*
X34916667Y9795181D02*
X35583333Y9795181D01*
X35583333Y9795181D02*
X35154762Y8795181D01*
X7069373Y31293779D02*
X6734612Y31772009D01*
X6495497Y31293779D02*
X6495497Y32298062D01*
X6495497Y32298062D02*
X6878081Y32298062D01*
X6878081Y32298062D02*
X6973727Y32250239D01*
X6973727Y32250239D02*
X7021550Y32202416D01*
X7021550Y32202416D02*
X7069373Y32106770D01*
X7069373Y32106770D02*
X7069373Y31963301D01*
X7069373Y31963301D02*
X7021550Y31867655D01*
X7021550Y31867655D02*
X6973727Y31819832D01*
X6973727Y31819832D02*
X6878081Y31772009D01*
X6878081Y31772009D02*
X6495497Y31772009D01*
X7356311Y32298062D02*
X7691072Y31293779D01*
X7691072Y31293779D02*
X8025833Y32298062D01*
X8886647Y31293779D02*
X8312771Y31293779D01*
X8599709Y31293779D02*
X8599709Y32298062D01*
X8599709Y32298062D02*
X8504063Y32154593D01*
X8504063Y32154593D02*
X8408417Y32058947D01*
X8408417Y32058947D02*
X8312771Y32011124D01*
X58808095Y20545181D02*
X58808095Y19735658D01*
X58808095Y19735658D02*
X58855714Y19640420D01*
X58855714Y19640420D02*
X58903333Y19592800D01*
X58903333Y19592800D02*
X58998571Y19545181D01*
X58998571Y19545181D02*
X59189047Y19545181D01*
X59189047Y19545181D02*
X59284285Y19592800D01*
X59284285Y19592800D02*
X59331904Y19640420D01*
X59331904Y19640420D02*
X59379523Y19735658D01*
X59379523Y19735658D02*
X59379523Y20545181D01*
X59760476Y20545181D02*
X60379523Y20545181D01*
X60379523Y20545181D02*
X60046190Y20164229D01*
X60046190Y20164229D02*
X60189047Y20164229D01*
X60189047Y20164229D02*
X60284285Y20116610D01*
X60284285Y20116610D02*
X60331904Y20068991D01*
X60331904Y20068991D02*
X60379523Y19973753D01*
X60379523Y19973753D02*
X60379523Y19735658D01*
X60379523Y19735658D02*
X60331904Y19640420D01*
X60331904Y19640420D02*
X60284285Y19592800D01*
X60284285Y19592800D02*
X60189047Y19545181D01*
X60189047Y19545181D02*
X59903333Y19545181D01*
X59903333Y19545181D02*
X59808095Y19592800D01*
X59808095Y19592800D02*
X59760476Y19640420D01*
X50632033Y16916667D02*
X49932033Y16916667D01*
X49932033Y16916667D02*
X50432033Y17150000D01*
X50432033Y17150000D02*
X49932033Y17383334D01*
X49932033Y17383334D02*
X50632033Y17383334D01*
X50632033Y17716667D02*
X49932033Y17716667D01*
X50632033Y18050000D02*
X49932033Y18050000D01*
X49932033Y18050000D02*
X50432033Y18283333D01*
X50432033Y18283333D02*
X49932033Y18516667D01*
X49932033Y18516667D02*
X50632033Y18516667D01*
X49932033Y18783333D02*
X50632033Y19250000D01*
X49932033Y19250000D02*
X50632033Y18783333D01*
X50632033Y19916667D02*
X50298700Y19683334D01*
X50632033Y19516667D02*
X49932033Y19516667D01*
X49932033Y19516667D02*
X49932033Y19783334D01*
X49932033Y19783334D02*
X49965366Y19850000D01*
X49965366Y19850000D02*
X49998700Y19883334D01*
X49998700Y19883334D02*
X50065366Y19916667D01*
X50065366Y19916667D02*
X50165366Y19916667D01*
X50165366Y19916667D02*
X50232033Y19883334D01*
X50232033Y19883334D02*
X50265366Y19850000D01*
X50265366Y19850000D02*
X50298700Y19783334D01*
X50298700Y19783334D02*
X50298700Y19516667D01*
X49932033Y20116667D02*
X49932033Y20516667D01*
X50632033Y20316667D02*
X49932033Y20316667D01*
X50632033Y21116667D02*
X50632033Y20716667D01*
X50632033Y20916667D02*
X49932033Y20916667D01*
X49932033Y20916667D02*
X50032033Y20850000D01*
X50032033Y20850000D02*
X50098700Y20783333D01*
X50098700Y20783333D02*
X50132033Y20716667D01*
X49932033Y21550000D02*
X49932033Y21616667D01*
X49932033Y21616667D02*
X49965366Y21683334D01*
X49965366Y21683334D02*
X49998700Y21716667D01*
X49998700Y21716667D02*
X50065366Y21750000D01*
X50065366Y21750000D02*
X50198700Y21783334D01*
X50198700Y21783334D02*
X50365366Y21783334D01*
X50365366Y21783334D02*
X50498700Y21750000D01*
X50498700Y21750000D02*
X50565366Y21716667D01*
X50565366Y21716667D02*
X50598700Y21683334D01*
X50598700Y21683334D02*
X50632033Y21616667D01*
X50632033Y21616667D02*
X50632033Y21550000D01*
X50632033Y21550000D02*
X50598700Y21483334D01*
X50598700Y21483334D02*
X50565366Y21450000D01*
X50565366Y21450000D02*
X50498700Y21416667D01*
X50498700Y21416667D02*
X50365366Y21383334D01*
X50365366Y21383334D02*
X50198700Y21383334D01*
X50198700Y21383334D02*
X50065366Y21416667D01*
X50065366Y21416667D02*
X49998700Y21450000D01*
X49998700Y21450000D02*
X49965366Y21483334D01*
X49965366Y21483334D02*
X49932033Y21550000D01*
X49932033Y22383334D02*
X49932033Y22250001D01*
X49932033Y22250001D02*
X49965366Y22183334D01*
X49965366Y22183334D02*
X49998700Y22150001D01*
X49998700Y22150001D02*
X50098700Y22083334D01*
X50098700Y22083334D02*
X50232033Y22050001D01*
X50232033Y22050001D02*
X50498700Y22050001D01*
X50498700Y22050001D02*
X50565366Y22083334D01*
X50565366Y22083334D02*
X50598700Y22116667D01*
X50598700Y22116667D02*
X50632033Y22183334D01*
X50632033Y22183334D02*
X50632033Y22316667D01*
X50632033Y22316667D02*
X50598700Y22383334D01*
X50598700Y22383334D02*
X50565366Y22416667D01*
X50565366Y22416667D02*
X50498700Y22450001D01*
X50498700Y22450001D02*
X50332033Y22450001D01*
X50332033Y22450001D02*
X50265366Y22416667D01*
X50265366Y22416667D02*
X50232033Y22383334D01*
X50232033Y22383334D02*
X50198700Y22316667D01*
X50198700Y22316667D02*
X50198700Y22183334D01*
X50198700Y22183334D02*
X50232033Y22116667D01*
X50232033Y22116667D02*
X50265366Y22083334D01*
X50265366Y22083334D02*
X50332033Y22050001D01*
X49998700Y22716668D02*
X49965366Y22750001D01*
X49965366Y22750001D02*
X49932033Y22816668D01*
X49932033Y22816668D02*
X49932033Y22983334D01*
X49932033Y22983334D02*
X49965366Y23050001D01*
X49965366Y23050001D02*
X49998700Y23083334D01*
X49998700Y23083334D02*
X50065366Y23116668D01*
X50065366Y23116668D02*
X50132033Y23116668D01*
X50132033Y23116668D02*
X50232033Y23083334D01*
X50232033Y23083334D02*
X50632033Y22683334D01*
X50632033Y22683334D02*
X50632033Y23116668D01*
X49108033Y18600000D02*
X48408033Y18600000D01*
X48408033Y18600000D02*
X48408033Y18766667D01*
X48408033Y18766667D02*
X48441366Y18866667D01*
X48441366Y18866667D02*
X48508033Y18933333D01*
X48508033Y18933333D02*
X48574700Y18966667D01*
X48574700Y18966667D02*
X48708033Y19000000D01*
X48708033Y19000000D02*
X48808033Y19000000D01*
X48808033Y19000000D02*
X48941366Y18966667D01*
X48941366Y18966667D02*
X49008033Y18933333D01*
X49008033Y18933333D02*
X49074700Y18866667D01*
X49074700Y18866667D02*
X49108033Y18766667D01*
X49108033Y18766667D02*
X49108033Y18600000D01*
X48408033Y19200000D02*
X49108033Y19433333D01*
X49108033Y19433333D02*
X48408033Y19666667D01*
X49108033Y20233333D02*
X49108033Y19900000D01*
X49108033Y19900000D02*
X48408033Y19900000D01*
X48408033Y20766667D02*
X48408033Y20633334D01*
X48408033Y20633334D02*
X48441366Y20566667D01*
X48441366Y20566667D02*
X48474700Y20533334D01*
X48474700Y20533334D02*
X48574700Y20466667D01*
X48574700Y20466667D02*
X48708033Y20433334D01*
X48708033Y20433334D02*
X48974700Y20433334D01*
X48974700Y20433334D02*
X49041366Y20466667D01*
X49041366Y20466667D02*
X49074700Y20500000D01*
X49074700Y20500000D02*
X49108033Y20566667D01*
X49108033Y20566667D02*
X49108033Y20700000D01*
X49108033Y20700000D02*
X49074700Y20766667D01*
X49074700Y20766667D02*
X49041366Y20800000D01*
X49041366Y20800000D02*
X48974700Y20833334D01*
X48974700Y20833334D02*
X48808033Y20833334D01*
X48808033Y20833334D02*
X48741366Y20800000D01*
X48741366Y20800000D02*
X48708033Y20766667D01*
X48708033Y20766667D02*
X48674700Y20700000D01*
X48674700Y20700000D02*
X48674700Y20566667D01*
X48674700Y20566667D02*
X48708033Y20500000D01*
X48708033Y20500000D02*
X48741366Y20466667D01*
X48741366Y20466667D02*
X48808033Y20433334D01*
X48908033Y21100001D02*
X48908033Y21433334D01*
X49108033Y21033334D02*
X48408033Y21266667D01*
X48408033Y21266667D02*
X49108033Y21500001D01*
D11*
%TO.C,J3*%
X20240000Y3880000D02*
X58450000Y3880000D01*
X58450000Y1120000D02*
X58450000Y3880000D01*
X20240000Y1120000D02*
X20240000Y3880000D01*
X20240000Y1120000D02*
X58450000Y1120000D01*
X18970000Y1120000D02*
X17590000Y1120000D01*
X17590000Y1120000D02*
X17590000Y2500000D01*
%TO.C,J2*%
X58380000Y38830000D02*
X58380000Y37500000D01*
X57050000Y38830000D02*
X58380000Y38830000D01*
X55780000Y36170000D02*
X17620000Y36170000D01*
X55780000Y38830000D02*
X55780000Y36170000D01*
X55780000Y38830000D02*
X17620000Y38830000D01*
X17620000Y38830000D02*
X17620000Y36170000D01*
%TO.C,R6*%
X47485000Y7727064D02*
X47485000Y7272936D01*
X46015000Y7727064D02*
X46015000Y7272936D01*
%TO.C,R5*%
X49985000Y7727064D02*
X49985000Y7272936D01*
X48515000Y7727064D02*
X48515000Y7272936D01*
%TO.C,C1*%
X62988748Y8765000D02*
X63511252Y8765000D01*
X62988748Y10235000D02*
X63511252Y10235000D01*
%TO.C,C6*%
X26011252Y28235000D02*
X25488748Y28235000D01*
X26011252Y26765000D02*
X25488748Y26765000D01*
%TO.C,R3*%
X3265000Y18522936D02*
X3265000Y18977064D01*
X4735000Y18522936D02*
X4735000Y18977064D01*
%TO.C,C2*%
X5261252Y21365000D02*
X4738748Y21365000D01*
X5261252Y22835000D02*
X4738748Y22835000D01*
%TO.C,C5*%
X6985000Y18526248D02*
X6985000Y19048752D01*
X5515000Y18526248D02*
X5515000Y19048752D01*
%TO.C,U2*%
X12000000Y17890000D02*
X14925000Y17890000D01*
X12000000Y17890000D02*
X10500000Y17890000D01*
X12000000Y21110000D02*
X13500000Y21110000D01*
X12000000Y21110000D02*
X10500000Y21110000D01*
%TO.C,R4*%
X15765000Y13977064D02*
X15765000Y13522936D01*
X17235000Y13977064D02*
X17235000Y13522936D01*
%TO.C,R2*%
X12227064Y24735000D02*
X11772936Y24735000D01*
X12227064Y23265000D02*
X11772936Y23265000D01*
%TO.C,C3*%
X9026248Y12015000D02*
X9548752Y12015000D01*
X9026248Y13485000D02*
X9548752Y13485000D01*
%TO.C,R1*%
X18977064Y20485000D02*
X18522936Y20485000D01*
X18977064Y19015000D02*
X18522936Y19015000D01*
%TO.C,C4*%
X9026248Y14015000D02*
X9548752Y14015000D01*
X9026248Y15485000D02*
X9548752Y15485000D01*
%TO.C,C7*%
X37526248Y9985000D02*
X38048752Y9985000D01*
X37526248Y8515000D02*
X38048752Y8515000D01*
D12*
%TO.C,RV1*%
X4735000Y30520000D02*
X14265000Y30520000D01*
X4735000Y25690000D02*
X4735000Y30520000D01*
X14265000Y30520000D02*
X14265000Y25690000D01*
X14265000Y25690000D02*
X4735000Y25690000D01*
D13*
X4350000Y28100000D02*
G75*
G02*
X4150000Y28100000I-100000J0D01*
G01*
X4150000Y28100000D02*
G75*
G02*
X4350000Y28100000I100000J0D01*
G01*
D10*
%TO.C,U3*%
X32790000Y28890000D02*
X68350000Y28890000D01*
X32790000Y11110000D02*
X32790000Y28890000D01*
X35838000Y21270000D02*
X40410000Y21270000D01*
X35838000Y18730000D02*
X35838000Y21270000D01*
X40410000Y21270000D02*
X40410000Y18730000D01*
X40410000Y18730000D02*
X35838000Y18730000D01*
X42950000Y18095000D02*
X45490000Y18095000D01*
X42950000Y14920000D02*
X42950000Y18095000D01*
X45490000Y18095000D02*
X45490000Y14920000D01*
X45490000Y14920000D02*
X42950000Y14920000D01*
X46125000Y25080000D02*
X46125000Y14920000D01*
X46125000Y25080000D02*
X56285000Y25080000D01*
X46125000Y14920000D02*
X56285000Y14920000D01*
X56285000Y14920000D02*
X56285000Y25080000D01*
X63270000Y23810000D02*
X63270000Y16190000D01*
X63270000Y23810000D02*
X68350000Y23810000D01*
X63270000Y16190000D02*
X68350000Y16190000D01*
X68350000Y28890000D02*
X68350000Y11110000D01*
X68350000Y23810000D02*
X69620000Y23810000D01*
X68350000Y11110000D02*
X32790000Y11110000D01*
X69620000Y23810000D02*
X69620000Y16190000D01*
X69620000Y16190000D02*
X68350000Y16190000D01*
D14*
X52221000Y20508000D02*
X51967000Y20254000D01*
X51713000Y20635000D01*
X51967000Y20889000D01*
X52221000Y20508000D01*
G36*
X52221000Y20508000D02*
G01*
X51967000Y20254000D01*
X51713000Y20635000D01*
X51967000Y20889000D01*
X52221000Y20508000D01*
G37*
X52602000Y20000000D02*
X52348000Y19746000D01*
X52094000Y20127000D01*
X52348000Y20381000D01*
X52602000Y20000000D01*
G36*
X52602000Y20000000D02*
G01*
X52348000Y19746000D01*
X52094000Y20127000D01*
X52348000Y20381000D01*
X52602000Y20000000D01*
G37*
X52983000Y20381000D02*
X52729000Y20127000D01*
X52475000Y20508000D01*
X52729000Y20762000D01*
X52983000Y20381000D01*
G36*
X52983000Y20381000D02*
G01*
X52729000Y20127000D01*
X52475000Y20508000D01*
X52729000Y20762000D01*
X52983000Y20381000D01*
G37*
X52983000Y19492000D02*
X52729000Y19238000D01*
X52475000Y19619000D01*
X52729000Y19873000D01*
X52983000Y19492000D01*
G36*
X52983000Y19492000D02*
G01*
X52729000Y19238000D01*
X52475000Y19619000D01*
X52729000Y19873000D01*
X52983000Y19492000D01*
G37*
X53364000Y19873000D02*
X53110000Y19619000D01*
X52856000Y20000000D01*
X53110000Y20254000D01*
X53364000Y19873000D01*
G36*
X53364000Y19873000D02*
G01*
X53110000Y19619000D01*
X52856000Y20000000D01*
X53110000Y20254000D01*
X53364000Y19873000D01*
G37*
X53745000Y19365000D02*
X53491000Y19111000D01*
X53237000Y19492000D01*
X53491000Y19746000D01*
X53745000Y19365000D01*
G36*
X53745000Y19365000D02*
G01*
X53491000Y19111000D01*
X53237000Y19492000D01*
X53491000Y19746000D01*
X53745000Y19365000D01*
G37*
X54126000Y19746000D02*
X53872000Y19492000D01*
X53618000Y19873000D01*
X53872000Y20127000D01*
X54126000Y19746000D01*
G36*
X54126000Y19746000D02*
G01*
X53872000Y19492000D01*
X53618000Y19873000D01*
X53872000Y20127000D01*
X54126000Y19746000D01*
G37*
X54507000Y20127000D02*
X54253000Y19873000D01*
X53999000Y20254000D01*
X54253000Y20508000D01*
X54507000Y20127000D01*
G36*
X54507000Y20127000D02*
G01*
X54253000Y19873000D01*
X53999000Y20254000D01*
X54253000Y20508000D01*
X54507000Y20127000D01*
G37*
%TD*%
%LPC*%
D15*
%TO.C,J3*%
X57070000Y2500000D03*
X54530000Y2500000D03*
X51990000Y2500000D03*
X49450000Y2500000D03*
X46910000Y2500000D03*
X44370000Y2500000D03*
X41830000Y2500000D03*
X39290000Y2500000D03*
X36750000Y2500000D03*
X34210000Y2500000D03*
X31670000Y2500000D03*
X29130000Y2500000D03*
X26590000Y2500000D03*
X24050000Y2500000D03*
X21510000Y2500000D03*
D16*
X18970000Y2500000D03*
%TD*%
D17*
%TO.C,J2*%
X18950000Y37500000D03*
X21490000Y37500000D03*
X24030000Y37500000D03*
X26570000Y37500000D03*
X29110000Y37500000D03*
X31650000Y37500000D03*
X34190000Y37500000D03*
X36730000Y37500000D03*
X39270000Y37500000D03*
X41810000Y37500000D03*
X44350000Y37500000D03*
X46890000Y37500000D03*
X49430000Y37500000D03*
X51970000Y37500000D03*
X54510000Y37500000D03*
D16*
X57050000Y37500000D03*
%TD*%
D18*
%TO.C,R6*%
X46750000Y8500000D03*
X46750000Y6500000D03*
%TD*%
%TO.C,R5*%
X49250000Y8500000D03*
X49250000Y6500000D03*
%TD*%
D19*
%TO.C,U1*%
X26870000Y14920000D03*
X29410000Y14920000D03*
X31950000Y14920000D03*
X34490000Y14920000D03*
X37030000Y14920000D03*
X39570000Y14920000D03*
X42110000Y14920000D03*
X44650000Y14920000D03*
X47190000Y14920000D03*
X49730000Y14920000D03*
X52270000Y14920000D03*
X52270000Y25080000D03*
X49730000Y25080000D03*
X47190000Y25080000D03*
X44650000Y25080000D03*
X42110000Y25080000D03*
X39570000Y25080000D03*
X37030000Y25080000D03*
X34490000Y25080000D03*
X31950000Y25080000D03*
X29410000Y25080000D03*
D20*
X26870000Y25080000D03*
%TD*%
D21*
%TO.C,C1*%
X64287500Y9500000D03*
X62212500Y9500000D03*
%TD*%
D22*
%TO.C,C6*%
X24712500Y27500000D03*
X26787500Y27500000D03*
%TD*%
D23*
%TO.C,R3*%
X4000000Y17750000D03*
X4000000Y19750000D03*
%TD*%
D22*
%TO.C,C2*%
X6037500Y22100000D03*
X3962500Y22100000D03*
%TD*%
D24*
%TO.C,C5*%
X6250000Y19825000D03*
X6250000Y17750000D03*
%TD*%
D25*
%TO.C,U2*%
X9887500Y18525000D03*
X9887500Y19175000D03*
X9887500Y19825000D03*
X9887500Y20475000D03*
X14112500Y20475000D03*
X14112500Y19825000D03*
X14112500Y19175000D03*
X14112500Y18525000D03*
%TD*%
D18*
%TO.C,R4*%
X16500000Y12750000D03*
X16500000Y14750000D03*
%TD*%
D26*
%TO.C,R2*%
X11000000Y24000000D03*
X13000000Y24000000D03*
%TD*%
D21*
%TO.C,C3*%
X10325000Y12750000D03*
X8250000Y12750000D03*
%TD*%
D26*
%TO.C,R1*%
X17750000Y19750000D03*
X19750000Y19750000D03*
%TD*%
D21*
%TO.C,C4*%
X10325000Y14750000D03*
X8250000Y14750000D03*
%TD*%
%TO.C,C7*%
X36750000Y9250000D03*
X38825000Y9250000D03*
%TD*%
D27*
%TO.C,RV1*%
X6960000Y28100000D03*
D28*
X9500000Y28100000D03*
X12040000Y28100000D03*
%TD*%
D29*
%TO.C,U3*%
X67080000Y27620000D03*
X64540000Y27620000D03*
X62000000Y27620000D03*
X59460000Y27620000D03*
X56920000Y27620000D03*
X54380000Y27620000D03*
X51840000Y27620000D03*
X49300000Y27620000D03*
X46760000Y27620000D03*
X44220000Y27620000D03*
X41680000Y27620000D03*
X39140000Y27620000D03*
X36600000Y27620000D03*
X34060000Y27620000D03*
X34060000Y12380000D03*
X36600000Y12380000D03*
X39140000Y12380000D03*
X41680000Y12380000D03*
X44220000Y12380000D03*
X46760000Y12380000D03*
X49300000Y12380000D03*
X51840000Y12380000D03*
X54380000Y12380000D03*
X56920000Y12380000D03*
X59460000Y12380000D03*
X62000000Y12380000D03*
X64540000Y12380000D03*
X67080000Y12380000D03*
%TD*%
D30*
%TO.C,REF\u002A\u002A*%
X65500000Y4500000D03*
%TD*%
%TO.C,REF\u002A\u002A*%
X65500000Y35500000D03*
%TD*%
%TO.C,REF\u002A\u002A*%
X4500000Y35500000D03*
%TD*%
%TO.C,REF\u002A\u002A*%
X4500000Y4500000D03*
%TD*%
D31*
X6500000Y12750000D03*
X6500000Y14750000D03*
X44750000Y6500000D03*
X51500000Y6500000D03*
X23250000Y27500000D03*
D32*
X2500000Y22100000D03*
X11875000Y12750000D03*
X14800000Y22100000D03*
X11875000Y14750000D03*
D31*
X40157500Y9250000D03*
%LPD*%
M02*
